<?xml version="1.0" encoding="UTF-8"?>
<svg width="233px" height="43px" viewBox="0 0 233 43" version="1.1" xmlns="http://www.w3.org/2000/svg" xmlns:xlink="http://www.w3.org/1999/xlink">
    <title>cosmopolitan white</title>
    <defs>
        <polygon id="path-1" points="0.0249642857 0.366961165 150.116907 0.366961165 150.116907 42.9749515 0.0249642857 42.9749515"></polygon>
    </defs>
    <g id="Final-concept" stroke="none" stroke-width="1" fill="none" fill-rule="evenodd">
        <g id="iPhone-8-Copy-13" transform="translate(-130.000000, -1000.000000)">
            <g id="cosmopolitan-white" transform="translate(130.000000, 1000.000000)">
                <g id="Group-9">
                    <mask id="mask-2" fill="white">
                        <use xlink:href="#path-1"></use>
                    </mask>
                    <g id="Clip-2"></g>
                    <path d="M13.6080321,16.0377476 C13.6080321,9.23957282 12.7467643,6.70466019 10.9089768,6.70466019 C9.35911071,6.70466019 7.80882857,7.7416699 7.80882857,21.6836893 C7.80882857,35.1648155 8.6122625,36.6627184 10.9089768,36.6627184 C13.3783607,36.6627184 13.9521232,32.859932 14.067375,26.9263495 L20.3833393,27.2144078 C20.3833393,34.3582524 19.3498179,43 10.6223036,43 C2.64122143,43 0,35.1648155 0,21.6836893 C0,6.01332039 4.70826429,0.366961165 10.6223036,0.366961165 C19.2349821,0.366961165 20.2685036,8.31736893 20.2685036,15.807301 L13.6080321,16.0377476" id="Fill-1" fill="#FFFFFE" mask="url(#mask-2)"></path>
                    <path d="M30.6515661,0.366961165 C37.2546196,0.366961165 41.5609589,5.49481553 41.5609589,21.6836893 C41.5609589,37.8725631 37.2546196,43 30.6515661,43 C24.0485125,43 19.7421732,37.8725631 19.7421732,21.6836893 C19.7421732,5.49481553 24.0485125,0.366961165 30.6515661,0.366961165 Z M27.8950929,26.0045631 C27.8950929,34.8767573 28.9290304,36.6627184 30.6515661,36.6627184 C32.3741018,36.6627184 33.4076232,34.8767573 33.4076232,26.0045631 L33.4076232,17.3628155 C33.4076232,8.49062136 32.3741018,6.70466019 30.6515661,6.70466019 C28.9290304,6.70466019 27.8950929,8.49062136 27.8950929,17.3628155 L27.8950929,26.0045631 L27.8950929,26.0045631 Z" id="Fill-3" fill="#FFFFFE" mask="url(#mask-2)"></path>
                    <path d="M47.8024464,30.3254369 C47.8024464,32.6299029 47.8024464,36.6627184 51.0178464,36.6627184 C53.4868143,36.6627184 54.3480821,34.3582524 54.3480821,32.6875146 C54.3480821,25.370835 40.7974679,23.7000971 40.7974679,11.5440388 C40.7974679,5.37959223 44.1277036,0.366961165 50.4436679,0.366961165 C57.1619732,0.366961165 59.7453607,5.49481553 59.9180304,12.8691068 L53.2571429,12.8691068 C53.2571429,10.5646408 53.2571429,6.70466019 50.2718304,6.70466019 C48.4914607,6.70466019 47.4579393,8.20256311 47.4579393,10.4494175 C47.4579393,17.4204272 61.0085536,19.7825049 61.0085536,31.7081165 C61.0085536,37.9877864 57.4486464,43 50.7307571,43 C42.749675,43 41.141975,35.9713786 41.141975,30.3254369 L47.8024464,30.3254369" id="Fill-4" fill="#FFFFFE" mask="url(#mask-2)"></path>
                    <polyline id="Fill-5" fill="#FFFFFE" mask="url(#mask-2)" points="60.1110875 1.17394175 70.0443768 1.17394175 73.3746125 22.2021942 73.4890321 22.2021942 76.9919375 1.17394175 86.6955554 1.17394175 86.6955554 42.1934369 80.0350839 42.1934369 80.0350839 12.1201553 79.9202482 12.1201553 74.8674768 42.1934369 70.7333911 42.1934369 65.7380375 12.1201553 65.6232018 12.1201553 65.6232018 42.1934369 60.1110875 42.1934369 60.1110875 1.17394175"></polyline>
                    <path d="M97.6053643,0.366961165 C104.208002,0.366961165 108.514341,5.49481553 108.514341,21.6836893 C108.514341,37.8725631 104.208002,43 97.6053643,43 C91.0023107,43 86.6963875,37.8725631 86.6963875,21.6836893 C86.6963875,5.49481553 91.0023107,0.366961165 97.6053643,0.366961165 Z M94.8493071,26.0045631 C94.8493071,34.8767573 95.8832446,36.6627184 97.6053643,36.6627184 C99.3274839,36.6627184 100.361421,34.8767573 100.361421,26.0045631 L100.361421,17.3628155 C100.361421,8.49062136 99.3274839,6.70466019 97.6053643,6.70466019 C95.8832446,6.70466019 94.8493071,8.49062136 94.8493071,17.3628155 L94.8493071,26.0045631 L94.8493071,26.0045631 Z" id="Fill-6" fill="#FFFFFE" mask="url(#mask-2)"></path>
                    <path d="M108.513925,1.17394175 L115.978246,1.17394175 C124.418671,1.17394175 128.839846,4.57302913 128.839846,13.4452233 C128.839846,20.8195146 125.968954,25.7741165 118.963975,25.7741165 L115.978246,25.7741165 L115.978246,42.1934369 L108.513925,42.1934369 L108.513925,1.17394175 Z M116.035664,19.7825049 L116.667261,19.7825049 C119.710407,19.7825049 121.375525,18.5726602 121.375525,13.6180583 C121.375525,7.68405825 119.078811,7.5112233 116.609843,7.5112233 L116.035664,7.5112233 L116.035664,19.7825049 L116.035664,19.7825049 Z" id="Fill-7" fill="#FFFFFE" mask="url(#mask-2)"></path>
                    <path d="M139.207514,0.366961165 C145.810568,0.366961165 150.116907,5.49481553 150.116907,21.6836893 C150.116907,37.8725631 145.810568,43 139.207514,43 C132.604461,43 128.297705,37.8725631 128.297705,21.6836893 C128.297705,5.49481553 132.604461,0.366961165 139.207514,0.366961165 Z M136.451873,26.0045631 C136.451873,34.8767573 137.484563,36.6627184 139.207514,36.6627184 C140.929634,36.6627184 141.963988,34.8767573 141.963988,26.0045631 L141.963988,17.3628155 C141.963988,8.49062136 140.929634,6.70466019 139.207514,6.70466019 C137.484563,6.70466019 136.451873,8.49062136 136.451873,17.3628155 L136.451873,26.0045631 L136.451873,26.0045631 Z" id="Fill-8" fill="#FFFFFE" mask="url(#mask-2)"></path>
                </g>
                <polyline id="Fill-10" fill="#FFFFFE" points="150.116075 1.17394175 157.580396 1.17394175 157.580396 35.8561553 167.111761 35.8561553 167.111761 42.1934369 150.116075 42.1934369 150.116075 1.17394175"></polyline>
                <polygon id="Fill-11" fill="#FFFFFE" points="167.440873 42.1934369 174.906027 42.1934369 174.906027 1.17394175 167.440873 1.17394175"></polygon>
                <polyline id="Fill-12" fill="#FFFFFE" points="181.705466 7.5112233 175.274666 7.5112233 175.274666 1.17394175 195.600588 1.17394175 195.600588 7.5112233 189.169788 7.5112233 189.169788 42.1934369 181.705466 42.1934369 181.705466 7.5112233"></polyline>
                <path d="M196.689862,1.17394175 L207.484836,1.17394175 L212.537607,42.1934369 L205.360375,42.1934369 L204.269436,33.0907961 L198.240561,33.0907961 L197.206623,42.1934369 L190.948077,42.1934369 L196.689862,1.17394175 Z M201.455545,7.5112233 L201.341541,7.5112233 L198.986577,27.0991845 L203.637839,27.0991845 L201.455545,7.5112233 L201.455545,7.5112233 Z" id="Fill-13" fill="#FFFFFE"></path>
                <polyline id="Fill-14" fill="#FFFFFE" points="212.508898 1.17394175 219.801382 1.17394175 226.634523 22.8359223 226.748527 22.8359223 226.748527 1.17394175 232.7204 1.17394175 232.7204 42.1934369 226.92078 42.1934369 218.940114 17.3628155 218.825279 17.3628155 218.825279 42.1934369 212.508898 42.1934369 212.508898 1.17394175"></polyline>
            </g>
        </g>
    </g>
</svg>