<?xml version="1.0" encoding="UTF-8"?>
<svg width="234px" height="134px" viewBox="0 0 234 134" version="1.1" xmlns="http://www.w3.org/2000/svg" xmlns:xlink="http://www.w3.org/1999/xlink">
    <title>Group 5</title>
    <g id="Final-concept" stroke="none" stroke-width="1" fill="none" fill-rule="evenodd">
        <g id="iPhone-8-Copy-13" transform="translate(-130.000000, -84.000000)" fill="#FFFFFF" fill-rule="nonzero">
            <g id="Group-5" transform="translate(130.017590, 84.090159)">
                <polygon id="Path" points="31.7087588 68.1391359 1.36779477e-13 49.9434357 1.36779477e-13 86.335127"></polygon>
                <polygon id="Path" points="31.7087588 113.821958 1.36779477e-13 95.6259667 1.36779477e-13 132.017949"></polygon>
                <polygon id="Path" points="1.93209675 90.9805468 33.6407414 72.7845557 33.6407414 109.176538"></polygon>
                <polygon id="Path" points="230.849675 68.1391359 199.141048 49.9434357 199.141048 86.335127"></polygon>
                <polygon id="Path" points="230.849675 113.821958 199.141048 95.6259667 199.141048 132.017949"></polygon>
                <polygon id="Path" points="201.065768 90.9805468 232.774395 72.7845557 232.774395 109.176538"></polygon>
                <polygon id="Path" points="137.650256 126.209938 155.824837 94.4639573 119.089279 94.4639573"></polygon>
                <polygon id="Path" points="92.0229296 126.209938 110.19722 94.4639573 73.4616616 94.4639573"></polygon>
                <polygon id="Path" points="114.842403 96.4002518 133.016985 128.146232 96.2814259 128.146232"></polygon>
                <polygon id="Path" points="160.082753 87.8825338 178.257334 56.1365531 141.908462 56.1365531"></polygon>
                <polygon id="Path" points="137.263569 58.0722659 155.43815 89.8182466 119.089279 89.8182466"></polygon>
                <polygon id="Path" points="69.2078137 87.8825338 51.0335232 56.1365531 87.3823947 56.1365531"></polygon>
                <polygon id="Path" points="92.026997 58.0722659 73.8527064 89.8182466 110.201578 89.8182466"></polygon>
                <polygon id="Path" points="31.7087588 18.1960007 1.36779477e-13 9.97670153e-05 1.36779477e-13 36.7791344 31.7087588 18.5831433"></polygon>
                <polygon id="Path" points="230.849675 18.1958844 199.141048 7.10542736e-15 199.141048 36.7788435 230.849675 18.5830269"></polygon>
            </g>
        </g>
    </g>
</svg>