<svg width="802" height="455" viewBox="0 0 802 455" fill="none" xmlns="http://www.w3.org/2000/svg">
<path d="M109.204 234.573L0.0605469 172.016V297.131L109.204 234.573Z" fill="white"/>
<path d="M109.204 391.631L0.0605469 329.073V454.189L109.204 391.631Z" fill="white"/>
<path d="M6.71094 313.102L115.854 250.544V375.66L6.71094 313.102Z" fill="white"/>
<path d="M794.659 234.573L685.516 172.016V297.131L794.659 234.573Z" fill="white"/>
<path d="M794.659 391.631L685.516 329.073V454.189L794.659 391.631Z" fill="white"/>
<path d="M692.141 313.102L801.284 250.544V375.66L692.141 313.102Z" fill="white"/>
<path d="M473.861 434.221L536.419 325.078H409.973L473.861 434.221Z" fill="white"/>
<path d="M316.809 434.221L379.366 325.078H252.92L316.809 434.221Z" fill="white"/>
<path d="M395.355 331.735L457.913 440.878H331.467L395.355 331.735Z" fill="white"/>
<path d="M551.075 302.451L613.633 193.308H488.518L551.075 302.451Z" fill="white"/>
<path d="M472.53 199.963L535.088 309.106H409.973L472.53 199.963Z" fill="white"/>
<path d="M238.278 302.451L175.721 193.308H300.836L238.278 302.451Z" fill="white"/>
<path d="M316.823 199.963L254.266 309.106H379.381L316.823 199.963Z" fill="white"/>
<path d="M109.204 62.868L0.0605469 0.31031V126.757L109.204 64.199V62.868Z" fill="white"/>
<path d="M794.659 62.8676L685.516 0.309967V126.756L794.659 64.1986V62.8676Z" fill="white"/>
</svg>
