<?xml version="1.0" encoding="UTF-8"?>
<svg width="233px" height="233px" viewBox="0 0 233 233" version="1.1" xmlns="http://www.w3.org/2000/svg" xmlns:xlink="http://www.w3.org/1999/xlink">
    <title>красная строка</title>
    <g id="Final-concept" stroke="none" stroke-width="1" fill="none" fill-rule="evenodd">
        <g id="iPhone-8-Copy-10" transform="translate(-130.000000, -481.000000)" fill="#FFFFFF" fill-rule="nonzero">
            <g id="красная-строка" transform="translate(130.000000, 481.756410)">
                <polygon id="Path" points="88.8607006 66.2972371 96.4802348 66.2972371 129.278096 6.66184938 207.082006 6.66184938 221.47446 6.66184938 188.659666 66.2972371 196.2792 66.2972371 232.75137 0 207.082006 0 125.332871 0 0.812750311 0 0.812750311 6.66184938 121.658562 6.66184938"></polygon>
                <polygon id="Path" points="144.280112 165.53174 136.660578 165.53174 104.25216 225.031862 12.038864 225.031862 44.4811472 165.548648 36.861613 165.548648 0.812750311 231.693711 14.2061981 231.693711 14.2061981 231.710619 232.717506 231.710619 232.717506 225.04877 111.837829 225.04877"></polygon>
                <polygon id="Path" points="13.0717342 97.8818428 8.92332112 97.8818428 8.92332112 107.063021 0.795818012 107.063021 0.795818012 82.8504111 8.92332112 82.8504111 8.92332112 91.3045347 13.173328 91.3045347 17.5249286 82.8504111 25.7540255 82.8504111 19.7599919 94.5171017 26.126536 107.063021 17.660387 107.063021"></polygon>
                <path d="M37.4203789,105.017123 L36.1165919,105.017123 L36.1165919,116.396373 L27.9890888,116.396373 L27.9890888,82.8504111 L35.8287429,82.8504111 L35.8287429,84.896309 L37.1494621,84.896309 C38.7016717,83.0247709 41.074578,82.0327253 43.4990739,82.2417142 C49.865618,82.2417142 53.6584528,87.5678121 53.6584528,94.9905326 C53.6584528,102.413253 49.7809565,107.722443 43.4990739,107.722443 C41.1449182,107.906109 38.8575133,106.888101 37.4203789,105.017123 Z M35.7271491,94.8721748 C35.7271491,98.1354666 37.2171913,100.976052 40.6205832,100.976052 C44.0239752,100.976052 45.3954913,98.1354666 45.3954913,94.8721748 C45.3954913,91.6088831 44.0409075,88.7513894 40.6205832,88.7513894 C37.200259,88.7513894 35.7948783,91.6596079 35.7948783,94.9398078 L35.7271491,94.8721748 Z" id="Shape"></path>
                <path d="M78.9045093,91.7610574 L78.9045093,106.97848 L71.4712304,106.97848 L71.4712304,105.118573 L70.1674435,105.118573 C68.5351923,106.902049 66.1587277,107.81622 63.7501025,107.587177 C61.5222734,107.699773 59.3473426,106.885338 57.7429748,105.33772 C56.1386069,103.790102 55.2482977,101.647721 55.2839534,99.4204933 C55.2839534,95.6499542 58.1285795,91.3552594 65.4433323,91.3552594 L71.1156522,91.3552594 L71.1156522,90.9325533 C71.1156522,88.6499399 69.8457298,87.8552523 67.7291925,87.8552523 C65.6126553,87.8552523 64.6813789,88.6499399 64.4951236,89.9518749 L56.5030789,89.9518749 C56.6554696,85.234474 61.0917317,82.1064482 67.3058851,82.1064482 C74.1803981,82.1909895 78.9045093,84.6257771 78.9045093,91.7610574 Z M71.1156522,96.0557521 L67.1704267,96.0557521 C64.9184311,96.0557521 63.3775919,97.0364305 63.3775919,98.8625212 C63.3775919,100.688612 64.6475143,101.703107 66.7640516,101.703107 C67.9188838,101.802234 69.0602332,101.397897 69.8943086,100.594173 C70.7283839,99.7904501 71.1737083,98.6658531 71.1156522,97.5098614 L71.1156522,96.0557521 Z" id="Shape"></path>
                <path d="M105.301962,98.3890903 C104.793993,103.901179 100.069882,107.671718 93.7033379,107.671718 C86.1853975,107.671718 81.1395727,102.9205 81.1395727,94.9398078 C81.1395727,86.9591152 86.2192621,82.1909895 93.7033379,82.1909895 C100.019085,82.1909895 104.556941,85.6909895 105.06491,91.0170945 L97.0728652,91.0170945 C96.6620191,89.5354673 95.2091605,88.5924506 93.6864056,88.8190224 C90.299946,88.8190224 89.1993466,91.6257914 89.1993466,94.9398078 C89.1993466,98.2538243 90.418472,101.043685 93.6864056,101.043685 C95.3984386,101.275757 96.9807134,100.094499 97.2421882,98.3890903 L105.301962,98.3890903 Z" id="Path"></path>
                <polygon id="Path" points="123.741235 107.063021 123.741235 97.9156593 115.613732 97.9156593 115.613732 107.063021 107.469296 107.063021 107.469296 82.8504111 115.613732 82.8504111 115.613732 91.3045347 123.741235 91.3045347 123.741235 82.8504111 131.868738 82.8504111 131.868738 107.063021"></polygon>
                <path d="M157.622763,91.7610574 L157.622763,106.97848 L150.189484,106.97848 L150.189484,105.118573 L148.885698,105.118573 C147.261803,106.903805 144.889313,107.818862 142.485289,107.587177 C140.25746,107.699773 138.082529,106.885338 136.478161,105.33772 C134.873793,103.790102 133.983484,101.647721 134.01914,99.4204933 C134.01914,95.6499542 136.863766,91.3552594 144.178519,91.3552594 L149.783109,91.3552594 L149.783109,90.9325533 C149.783109,88.6499399 148.530119,87.8552523 146.39665,87.8552523 C144.26318,87.8552523 143.365768,88.6499399 143.179513,89.9518749 L135.238265,89.9518749 C135.373724,85.234474 139.826918,82.1064482 146.041071,82.1064482 C152.898652,82.1909895 157.622763,84.6257771 157.622763,91.7610574 Z M149.816974,96.0557521 L145.888681,96.0557521 C143.653617,96.0557521 142.112778,97.0364305 142.112778,98.8625212 C142.112778,100.688612 143.365768,101.703107 145.499238,101.703107 C146.637131,101.771675 147.75053,101.353746 148.561437,100.553669 C149.372344,99.7535923 149.804224,98.6468807 149.749245,97.5098614 L149.816974,96.0557521 Z" id="Shape"></path>
                <path d="M183.021211,107.063021 L174.893707,107.063021 L174.893707,99.8431995 L170.49131,99.8431995 L167.731345,107.063021 L159.840894,107.063021 L163.227354,98.1016501 C160.887338,96.6763738 159.536152,94.0690955 159.722368,91.3383512 C159.722368,85.9615286 163.515203,82.7489616 170.423581,82.7489616 L182.953481,82.7489616 L183.021211,107.063021 Z M171.168602,94.1451202 L174.961437,94.1451202 L174.961437,89.0726461 L171.168602,89.0726461 C168.510231,89.0726461 167.782142,90.0533244 167.782142,91.5074337 C167.782142,92.9615429 168.442502,94.1451202 171.100873,94.1451202 L171.168602,94.1451202 Z" id="Shape"></path>
                <path d="M24.1623894,140.338451 C23.6544205,145.833632 18.9303093,149.621079 12.5806975,149.621079 C5.07968944,149.688712 0,144.920586 0,136.956802 C0,128.993018 5.07968944,124.224892 12.5806975,124.224892 C18.8795124,124.224892 23.4173683,127.724892 23.9253373,133.050997 L15.9332925,133.050997 C15.5224464,131.56937 14.0695878,130.626353 12.5468329,130.852925 C9.29583168,130.836017 8.12750311,133.575153 8.12750311,136.956802 C8.12750311,140.338451 9.34662857,143.077588 12.6145621,143.077588 C13.4502653,143.187731 14.295454,142.960566 14.9628874,142.446421 C15.6303208,141.932275 16.0648983,141.173593 16.1703447,140.338451 L24.1623894,140.338451 Z" id="Path"></path>
                <polygon id="Path" points="25.5508379 124.749048 49.1036646 124.749048 49.1036646 131.37708 41.3994689 131.37708 41.3994689 149.012382 33.2719658 149.012382 33.2719658 131.37708 25.5508379 131.37708"></polygon>
                <path d="M61.0917317,146.949576 L59.7879447,146.949576 L59.7879447,158.345735 L51.6435093,158.345735 L51.6435093,124.749048 L59.5000957,124.749048 L59.5000957,126.811854 L60.8038826,126.811854 C62.3614052,124.937556 64.7406313,123.945514 67.1704267,124.157259 C73.5200385,124.157259 77.3298056,129.466449 77.3298056,136.889169 C77.3298056,144.31189 73.4523093,149.637987 67.1704267,149.637987 C64.8182888,149.831925 62.5285949,148.819267 61.0917317,146.949576 Z M59.3985019,136.804628 C59.3985019,140.06792 60.9054764,142.925413 64.3088683,142.925413 C67.7122602,142.925413 69.0837764,140.06792 69.0837764,136.804628 C69.0837764,133.541336 67.7291925,130.768384 64.3427329,130.768384 C60.9562733,130.768384 59.4492988,133.575153 59.4492988,136.956802 L59.3985019,136.804628 Z" id="Shape"></path>
                <path d="M105.403556,136.956802 C105.403556,144.802229 100.323866,149.70562 92.4503478,149.70562 C84.5768292,149.70562 79.4632752,144.802229 79.4632752,136.956802 C79.4632752,129.111375 84.6614907,124.207984 92.4503478,124.207984 C100.239205,124.207984 105.403556,129.111375 105.403556,136.956802 Z M97.2591205,136.956802 C97.2591205,133.575153 95.8198752,130.852925 92.4503478,130.852925 C89.0808205,130.852925 87.5907783,133.575153 87.5907783,136.956802 C87.5907783,140.338451 89.0300236,143.077588 92.4503478,143.077588 C95.870672,143.077588 97.2591205,140.338451 97.2591205,136.956802 Z" id="Shape"></path>
                <polygon id="Path" points="120.778083 139.814296 116.612737 139.814296 116.612737 149.012382 108.485234 149.012382 108.485234 124.732139 116.612737 124.732139 116.612737 133.186263 120.862744 133.186263 125.214345 124.732139 133.443442 124.732139 127.449408 136.449555 133.765155 149.012382 125.299006 149.012382"></polygon>
                <path d="M157.792086,133.727327 L157.792086,148.944749 L150.358807,148.944749 L150.358807,147.10175 L149.004224,147.10175 C147.367405,148.878535 144.994399,149.791376 142.586883,149.570354 C140.359054,149.682951 138.184123,148.868516 136.579755,147.320898 C134.975387,145.77328 134.085078,143.630899 134.120734,141.403671 C134.120734,137.616224 136.96536,133.321529 144.280112,133.321529 L149.901635,133.321529 L149.901635,132.898823 C149.901635,130.616209 148.631713,129.821522 146.515176,129.821522 C144.398639,129.821522 143.467362,130.616209 143.281107,131.935053 L135.458385,131.935053 C135.610776,127.217652 140.047038,124.089626 146.261191,124.089626 C153.067975,124.157259 157.792086,126.575138 157.792086,133.727327 Z M149.986297,138.022022 L146.058004,138.022022 C143.806008,138.022022 142.265169,139.0027 142.265169,140.811882 C142.265169,142.621065 143.535091,143.669376 145.651629,143.669376 C146.792614,143.738376 147.908918,143.318212 148.720421,142.514318 C149.531925,141.710424 149.961603,140.599103 149.901635,139.459223 L149.986297,138.022022 Z" id="Shape"></path>
            </g>
        </g>
    </g>
</svg>