<?xml version="1.0" encoding="UTF-8"?>
<svg width="233px" height="60px" viewBox="0 0 233 60" version="1.1" xmlns="http://www.w3.org/2000/svg" xmlns:xlink="http://www.w3.org/1999/xlink">
    <title>Сеанс</title>
    <g id="Final-concept" stroke="none" stroke-width="1" fill="none" fill-rule="evenodd">
        <g id="iPhone-8-Copy-10" transform="translate(-130.000000, -387.000000)" fill="#FFFFFF" fill-rule="nonzero">
            <g id="Сеанс" transform="translate(130.000000, 387.008547)">
                <path d="M50.2611224,36.8105222 L42.8552806,36.8105222 C42.0728979,40.5064947 40.7417755,43.7122287 38.9433671,45.9609317 C37.1449586,48.2096347 35.1107636,49.7613464 32.9415271,50.6501702 C30.9831366,51.4643903 28.8823043,51.8859629 26.759632,51.8906869 C20.1876173,51.8906869 15.3990064,49.7720037 12.4409568,45.6092388 C9.57293468,41.3953186 8.08533579,35.9920369 8.08533579,28.8835777 C8.08533579,24.1261321 8.86771849,20.0678093 10.4839282,16.7853424 C12.1537259,13.3749871 14.3701196,10.864113 17.0816651,9.2100907 C19.9394944,7.54113551 23.1990048,6.6741149 26.5131279,6.70134811 C29.949246,6.6735623 33.3334218,7.5359727 36.3325667,9.20369629 C39.4106532,10.8577186 41.3934039,13.9334328 42.3065409,18.2773728 L49.7123827,18.2496636 C49.7123827,15.0524556 48.0425851,11.8381957 46.3470653,9.28042928 C44.3464705,6.38463128 41.6358761,4.04434315 38.4717939,2.48103346 C35.1064765,0.748146688 31.1688408,0 26.525989,0 C22.4533119,0 18.8093376,0.673545166 15.5211868,2.09523702 C12.3376828,3.43400184 9.50183237,5.47478043 7.22793008,8.06335874 C4.9300828,10.6253881 3.21527139,13.6776561 2.03848206,17.2436088 C0.797884843,21.0768511 0.182057809,25.082784 0.214351426,29.1095137 C0.214351426,34.3337517 0.945289788,38.5199628 2.24854646,42.3246404 C3.65683533,46.125055 5.53455382,49.2519245 8.0124563,51.6839341 C10.3136612,53.9876357 13.0774515,55.7830129 16.1235143,56.952933 C19.1534891,58.0679238 22.3606595,58.6310977 25.5914167,58.6157973 C28.2000736,58.6157973 31.1645538,58.176398 34.4055474,57.219367 C37.6915547,56.3412006 40.9261178,54.2715412 44.1328151,50.9634966 C47.2623459,47.6277428 49.3222631,42.8639028 50.2611224,36.8211796 L50.2611224,36.8105222 Z" id="Path"></path>
                <polygon id="Path" points="164.984149 27.9585188 173.043763 27.9585188 173.043763 29.2501909 164.984149 29.2523223 164.984149 27.9585188"></polygon>
                <path d="M171.504719,22.0649986 C171.510903,21.3223647 171.331164,20.5898705 170.981702,19.9335266 C170.617305,19.3132682 169.965676,18.9764956 169.026817,18.978617 C168.087958,18.9807586 167.436329,19.3132682 167.069788,19.9335266 C166.719187,20.5893518 166.54007,21.3223188 166.548914,22.0649986 C166.540952,22.8069619 166.730252,23.5378488 167.097654,24.1836818 C167.436329,24.8039402 168.062236,25.1407128 169.026817,25.1407128 C169.669871,25.1407128 170.173597,24.9851153 170.56586,24.6227651 C170.928908,24.3127069 171.18401,23.8963916 171.294655,23.4334037 C171.421056,22.9874718 171.493024,22.528033 171.509006,22.0649986 L171.504719,22.0649986 Z M164.72264,22.0649986 C164.72264,20.4877093 165.166348,19.3239256 165.974453,18.6269342 C166.83814,17.9363993 167.918813,17.570401 169.026817,17.5931703 C170.127974,17.5574059 171.204085,17.9244588 172.051316,18.6248027 C172.908721,19.3239256 173.303128,20.4877093 173.303128,22.0649986 C173.303128,23.6422879 172.913008,24.7783625 172.051316,25.4753539 C171.208021,26.1862318 170.132088,26.565356 169.026817,26.5410899 C167.9139,26.5604515 166.830898,26.1823203 165.974453,25.4753539 C165.166348,24.8018087 164.72264,23.6401564 164.72264,22.0649986 L164.72264,22.0649986 Z" id="Shape"></path>
                <path d="M232.974278,36.8105222 L225.568436,36.8105222 C224.786053,40.5064947 223.454931,43.7122287 221.656523,45.9609317 C219.858114,48.2096347 217.823919,49.7613464 215.654683,50.6501702 C213.696292,51.4643903 211.59546,51.8859629 209.472787,51.8906869 C202.900773,51.8906869 198.112162,49.7720037 195.154112,45.6092388 C192.28609,41.3953186 190.798491,35.9920369 190.798491,28.8835777 C190.798491,24.1261321 191.580874,20.0678093 193.197084,16.7853424 C194.866881,13.3749871 197.083275,10.864113 199.794821,9.2100907 C202.65265,7.54113551 205.91216,6.6741149 209.226283,6.70134811 C212.658626,6.67773749 216.038123,7.54228883 219.032861,9.2100907 C222.110948,10.864113 224.093698,13.9398272 225.006835,18.2837672 L232.412677,18.2560581 C232.412677,15.05885 230.742879,11.8445902 229.04736,9.2868237 C227.046765,6.39102569 224.336171,4.05073757 221.172088,2.48742788 C217.819632,0.748146688 213.881996,0 209.239144,0 C205.166467,0 201.522493,0.673545166 198.234342,2.09523702 C195.050838,3.43400184 192.214988,5.47478043 189.941086,8.06335874 C187.645382,10.6211252 185.926283,13.6733932 184.751638,17.2393459 C183.51104,21.0725881 182.895213,25.0785211 182.927507,29.1052508 C182.927507,34.3294887 183.658445,38.5156998 184.961702,42.3203774 C186.369991,46.1207921 188.247709,49.2476616 190.725612,51.6796712 C193.026408,53.9849086 195.790228,55.7817577 198.83667,56.952933 C201.866645,58.0679238 205.073815,58.6310977 208.304572,58.6157973 C210.913229,58.6157973 213.877709,58.176398 217.118703,57.219367 C220.40471,56.3412006 223.639273,54.2715412 226.845971,50.9634966 C229.975501,47.6277428 232.035419,42.8639028 232.974278,36.8211796 L232.974278,36.8105222 Z" id="Path"></path>
                <path d="M120.780598,34.4126162 L112.405888,9.8047714 L112.277277,9.8047714 L103.22736,34.4147476 L120.780598,34.4126162 Z M137.399264,57.110662 L129.039558,57.110662 L123.466421,40.8496617 L100.882355,40.8496617 L94.9876909,57.1234508 L50.5483533,57.1234508 L50.5483533,1.49203043 L91.6480957,1.49203043 L91.6480957,8.17632676 L58.1878381,8.17632676 L58.1878381,25.2899158 L89.0415823,25.2899158 L89.0415823,31.9592918 L58.1878381,31.9592918 L58.1878381,50.3666844 L89.6824931,50.3666844 L108.311776,1.4792416 L116.943707,1.4792416 L137.392833,57.110662 L137.399264,57.110662 Z" id="Shape"></path>
                <polygon id="Path" points="174.47563 1.47497865 182.091536 1.47497865 182.09368 57.1085305 174.477774 57.1085305 174.47563 1.47497865"></polygon>
                <polygon id="Path" points="147.563809 31.3155873 145.060184 31.2836152 145.060184 57.1085305 137.420699 57.110662 137.416412 1.47711013 145.05804 1.47711013 145.060184 24.5886615 147.563809 24.5886615 147.561665 18.5906992 150.691196 18.5906992 160.446329 34.2037319 160.446329 18.5906992 163.054986 18.5906992 163.054986 37.9274136 160.107654 37.9274136 150.170322 22.3122494 150.170322 37.9274136 147.563809 37.9274136 147.563809 31.3155873"></polygon>
            </g>
        </g>
    </g>
</svg>