<?xml version="1.0" encoding="UTF-8"?>
<svg width="233px" height="87px" viewBox="0 0 233 87" version="1.1" xmlns="http://www.w3.org/2000/svg" xmlns:xlink="http://www.w3.org/1999/xlink">
    <title>Snob_logo_RU_web_white</title>
    <defs>
        <polygon id="path-1" points="0.0561445783 0.871824796 54.606389 0.871824796 54.606389 63.9281312 0.0561445783 63.9281312"></polygon>
    </defs>
    <g id="Final-concept" stroke="none" stroke-width="1" fill="none" fill-rule="evenodd">
        <g id="iPhone-8-Copy-13" transform="translate(-130.000000, -246.000000)">
            <g id="Snob_logo_RU_web_white" transform="translate(130.000000, 246.000000)">
                <g id="Group-3" transform="translate(0.000000, 5.612903)">
                    <mask id="mask-2" fill="white">
                        <use xlink:href="#path-1"></use>
                    </mask>
                    <g id="Clip-2"></g>
                    <path d="M43.1255863,7.42025806 C40.2406908,5.16667742 36.814,3.42574194 32.8483213,2.20025806 C22.673988,-0.945774194 6.45756225,1.27319355 1.29413253,11.2557419 C0.642855422,12.236129 0.244228916,13.3278387 0.0851526104,14.5261935 C0.0804738956,14.5458387 0.0739236948,14.5645484 0.0692449799,14.5841935 L0.0776666667,14.5926129 C0.0233935743,15.023871 -0.00748594378,15.4635484 0.00187148594,15.922871 C0.0495943775,18.1783226 0.891763052,20.0773548 2.53212048,21.6171613 C4.17154217,23.1569677 6.10946586,23.9044194 8.34495582,23.8585806 C10.7208072,23.809 12.7148755,22.9820323 14.3252892,21.3758065 C15.9347671,19.7686452 16.7161124,17.8359355 16.670261,15.5795484 C16.6478032,14.4859677 16.3988956,13.4475806 15.9254096,12.4643871 C15.4500522,11.482129 14.8202972,10.6224194 14.0361446,9.88525806 C13.4185542,9.30525806 12.7242329,8.82629032 11.9569237,8.43993548 L11.9616024,8.43806452 C16.615988,6.28551613 21.7251446,5.8523871 26.4787189,7.67003226 C28.8948072,8.59429032 31.0021004,9.85906452 32.8015341,11.4652903 C33.7017189,12.2997419 34.5888032,13.3007097 35.4646586,14.4700645 C36.3405141,15.6375484 37.1265382,17.0370323 37.8208594,18.6657097 C38.5170522,20.2943871 39.107506,22.1690968 39.5940924,24.2889032 C40.0778715,26.4087097 40.3483012,28.8072903 40.40351,31.4837097 C40.4746265,34.9506129 40.1471165,38.2584839 39.4237871,41.4082581 C38.6995221,44.5570968 37.4793133,47.3682258 35.7650321,49.8350968 C31.8816988,55.4255484 25.7984337,58.1412581 19.040498,58.0898065 C12.2806908,58.0374194 6.7701004,56.1758065 3.15064659,53.8782581 L0.916092369,59.8513226 C6.87303213,62.7494516 14.6687068,64.0525806 21.2001928,63.9188065 C23.4693695,63.8720323 25.6730442,63.6896129 27.8112169,63.3715484 C29.9493896,63.0544194 32.0360964,62.5558065 34.0722731,61.8747742 C36.1084498,61.1937419 38.0613454,60.2863226 39.9300241,59.1525161 C41.7996386,58.0196452 43.600008,56.5818065 45.3283253,54.8427419 C47.1839036,53.039129 48.7063574,51.1531935 49.8966225,49.1811935 C51.0868876,47.2082581 52.0394739,45.2269032 52.7553173,43.2352581 C53.4711606,41.2417419 53.9661687,39.2688065 54.2422129,37.3164516 C54.518257,35.3631613 54.6370964,33.4744194 54.5996667,31.6483548 C54.4845703,26.0522903 53.3438996,21.2373548 51.1804618,17.2054194 C49.0151526,13.1716129 46.3323775,9.91051613 43.1255863,7.42025806" id="Fill-1" fill="#FFFFFE" mask="url(#mask-2)"></path>
                </g>
                <path d="M88.1376305,27.9625484 C92.0303213,28.0822903 94.2863976,28.8297419 94.2863976,33.3724516 L94.2863976,42.5645161 L76.3126466,42.5645161 L76.3126466,39.6027742 L76.3135823,39.4521613 L76.3135823,33.3724516 C76.3135823,28.8886774 78.5135141,28.1290645 82.3173092,27.9681613 L82.4623494,27.9625484 L82.4623494,23.8557742 L58.3398313,23.8557742 L58.3398313,27.9625484 C62.2325221,28.0822903 64.675747,28.8297419 64.675747,33.3724516 L64.675747,35.8243548 L64.6766827,35.8655161 L64.675747,58.784871 C64.675747,63.3266452 62.2325221,64.0750323 58.3398313,64.1947742 L58.3398313,68.3015484 L82.4623494,68.3015484 L82.4623494,64.1947742 C78.5696586,64.0750323 76.3135823,63.3257097 76.3135823,58.784871 L76.3135823,53.6509355 L76.3126466,53.65 L76.3126466,47.6750645 L94.2863976,47.6750645 L94.2863976,58.784871 C94.2863976,63.3266452 92.0303213,64.0750323 88.1376305,64.1947742 L88.1376305,68.3015484 L112.259213,68.3015484 L112.259213,64.1947742 C108.367458,64.0750323 105.923297,63.3257097 105.923297,58.784871 L105.923297,52.0147742 L105.921426,52.0100968 L105.921426,37.8300323 L105.923297,37.8281613 L105.923297,33.3724516 C105.923297,28.8334839 108.367458,28.0822903 112.259213,27.9625484 L112.259213,23.8557742 L88.1376305,23.8557742 L88.1376305,27.9625484" id="Fill-4" fill="#FFFFFE"></path>
                <path d="M147.777209,51.5077419 C147.461863,53.5770323 146.893867,55.5555806 146.073221,57.4415161 C145.254446,59.3265161 144.120325,60.9243226 142.668988,62.2330645 C141.218586,63.540871 139.358329,64.1947742 137.087281,64.1947742 C134.881735,64.1947742 133.067329,63.540871 131.647807,62.2330645 C130.230157,60.9243226 129.111008,59.3265161 128.290361,57.4415161 C127.470651,55.5555806 126.902655,53.5620645 126.587309,51.4637742 C126.271964,49.3654839 126.114759,47.4926452 126.114759,45.850871 C126.114759,42.5645161 126.383317,39.9189677 126.918562,37.9104839 C127.454743,35.902 128.037711,34.2892258 128.669337,33.0740323 C128.921052,32.5267742 129.283185,31.9467742 129.755735,31.3396452 C130.230157,30.7306452 130.797217,30.1525161 131.458787,29.6043226 C132.121293,29.058 132.910124,28.6014839 133.824345,28.2366452 C134.738566,27.8718065 135.8259,27.6884516 137.087281,27.6884516 C139.421024,27.6884516 141.329004,28.4031613 142.810285,29.8335161 C144.292502,31.2629355 145.428494,32.9823548 146.21639,34.9899032 C147.005221,36.9974516 147.541402,39.0368065 147.824932,41.1042258 C148.108462,43.1725806 148.250695,44.8470968 148.250695,46.1249677 C148.250695,47.6460645 148.09349,49.4403226 147.777209,51.5077419 Z M158.797454,34.6250645 C158.072253,33.1638387 157.252542,31.901871 156.338321,30.8372903 C155.423165,29.7717742 154.555731,28.8755806 153.73602,28.1459032 C151.908514,26.564 149.669281,25.2711613 147.020193,24.2655161 C144.371104,23.2626774 141.314032,22.7603226 137.844297,22.7603226 C134.565454,22.7603226 131.426972,23.2009355 128.432594,24.0840323 C125.437281,24.9661935 122.803165,26.3348065 120.533052,28.1908065 C118.26294,30.045871 116.450406,32.4500645 115.094514,35.4015161 C113.737687,38.3510968 113.060209,41.9255806 113.060209,46.1249677 C113.060209,50.0792581 113.6909,53.5012581 114.952281,56.3919032 C116.212727,59.2816129 117.931687,61.6708387 120.107289,63.5558387 C122.283827,65.4417742 124.822498,66.8412581 127.722365,67.7542903 C130.624104,68.6663871 133.713928,69.1238387 136.991835,69.1238387 C139.579165,69.1238387 142.30592,68.7730323 145.175843,68.0732903 C148.044831,67.3735484 150.678012,66.1564839 153.07445,64.4230323 C155.470888,62.6895806 157.442498,60.3312258 158.98741,57.3498387 C160.531386,54.3684516 161.305245,50.5657097 161.305245,45.9416129 C161.305245,43.5682903 161.067566,41.4550323 160.595016,39.5980968 C160.122466,37.7439677 159.522655,36.0853548 158.797454,34.6250645 L158.797454,34.6250645 Z" id="Fill-5" fill="#FFFFFE"></path>
                <path d="M201.439261,51.4179355 C201.282056,53.3646774 200.841321,55.2814839 200.115185,57.1674194 C199.39092,59.0533548 198.271771,60.6960645 196.757739,62.0964839 C195.242771,63.4950323 193.16355,64.1947742 190.514462,64.1947742 C187.929004,64.1947742 185.910606,63.5109355 184.459269,62.1413871 C183.008867,60.7727742 181.921534,59.1300645 181.196333,57.2132581 C180.470197,55.2964516 180.013554,53.3347419 179.82547,51.3262581 C179.635514,49.3187097 179.541004,47.6750645 179.541004,46.398129 C179.541004,43.1127097 179.808627,40.5120645 180.344807,38.5952581 C180.880988,36.6784516 181.463956,35.1423871 182.095582,33.986129 C182.851663,32.5866452 183.908116,31.3695806 185.264008,30.335871 C186.620835,29.3012258 188.401554,28.7839032 190.608972,28.7839032 C192.879084,28.7839032 194.739341,29.3320968 196.189743,30.4256774 C197.640145,31.521129 198.775201,32.9365161 199.594912,34.6709032 C200.415558,36.4043548 200.967647,38.3510968 201.250241,40.5120645 C201.534707,42.6711613 201.676004,44.7853548 201.676004,46.8546452 C201.676004,47.9491613 201.597402,49.4702581 201.439261,51.4179355 Z M207.541241,29.058 C206.090839,27.780129 204.135137,26.5939355 201.676004,25.4984839 C199.215936,24.4030323 196.127048,23.8557742 192.405598,23.8557742 C188.62239,23.8557742 185.121775,24.7070645 181.904691,26.4105806 C178.690414,28.1150323 176.041325,30.5182903 173.959297,33.6212903 L173.770277,33.6212903 C173.959297,29.9700968 174.621803,27.0195806 175.756859,24.7688065 C176.891916,22.5161613 178.29553,20.736871 179.966767,19.43 C181.638004,18.1212581 183.499197,17.1633226 185.547538,16.5543226 C187.597751,15.9453226 189.63112,15.4897419 191.649518,15.1857097 L199.122361,14.0902581 C200.825414,13.8470323 202.479807,13.4513226 204.089285,12.903129 C205.695956,12.355871 207.146357,11.5644516 208.439554,10.5316774 C209.733687,9.49609677 210.852835,8.14245161 211.797936,6.46980645 C212.744908,4.79716129 213.407414,2.71290323 213.784518,0.217032258 L208.488213,0.217032258 C208.108301,1.43409677 207.162265,2.25545161 205.649169,2.68109677 C204.135137,3.1086129 202.559345,3.41170968 200.918988,3.59506452 L193.446145,4.50716129 C191.996679,4.69051613 190.514462,4.93280645 189.00043,5.23777419 C187.487333,5.54180645 185.958329,5.98241935 184.412482,6.56148387 C182.86757,7.13867742 181.337631,7.91512903 179.82547,8.88803226 C178.311438,9.86187097 176.861036,11.0789355 175.472394,12.5382903 C173.832972,14.3026129 172.430293,16.4027742 171.262486,18.8359677 C170.09655,21.2691613 169.167357,23.839871 168.473972,26.5480968 C167.779651,29.2553871 167.275285,32.0234839 166.95994,34.8533226 C166.644594,37.6812903 166.486454,40.4044839 166.486454,43.0210323 C166.486454,44.7245484 166.580964,46.4898065 166.77092,48.3149355 C166.95994,50.1400645 167.306165,51.9492903 167.81053,53.7454194 C168.315831,55.5396774 169.05694,57.2740645 170.034791,58.9476452 C171.011707,60.6202903 172.288996,62.1563548 173.865723,63.5558387 C175.315189,64.8346452 177.364466,66.0816452 180.013554,67.2977742 C182.662643,68.5148387 186.068747,69.1238387 190.229996,69.1238387 C192.941779,69.1238387 195.748072,68.7889355 198.648876,68.119129 C201.550614,67.4502581 204.182859,66.2481613 206.547482,64.5137742 C208.913976,62.7803226 210.868743,60.437871 212.413655,57.4864194 C213.957631,54.5359032 214.73149,50.8089355 214.73149,46.3064516 C214.73149,42.2913548 214.083956,38.8833871 212.790759,36.0853548 C211.498498,33.2863871 209.748659,30.9439355 207.541241,29.058 L207.541241,29.058 Z" id="Fill-6" fill="#FFFFFE"></path>
                <path d="M231.627265,60.3826774 C231.21741,59.5005161 230.666257,58.7240645 229.971936,58.0551935 C229.27855,57.3853871 228.474747,56.8540323 227.55959,56.4592581 C226.645369,56.0635484 225.684361,55.8642903 224.674695,55.8642903 C222.593602,55.8642903 220.827855,56.5640323 219.377454,57.9644516 C217.927052,59.3639355 217.200916,61.0983226 217.200916,63.1657419 C217.200916,65.1732903 217.927052,66.8777419 219.377454,68.2762903 C220.827855,69.6757742 222.561787,70.3764516 224.580185,70.3764516 C226.723972,70.3764516 228.536506,69.6757742 230.019659,68.2762903 C231.50094,66.8777419 232.242048,65.1732903 232.242048,63.1657419 C232.242048,62.1928387 232.038056,61.2648387 231.627265,60.3826774" id="Fill-7" fill="#FFFFFE"></path>
                <path d="M172.504217,87 C171.477707,87 170.143337,86.0766774 169.157064,85.3788065 L169.321755,84.9466129 C169.999233,85.173 171.642398,85.7268065 172.442458,85.7268065 C173.900345,85.7268065 174.577823,85.2141613 174.577823,84.2693226 C174.577823,81.9914194 169.629614,83.346 169.629614,79.9791935 C169.629614,78.4197419 171.313016,77.4131613 172.894422,77.4131613 C174.04445,77.4131613 174.845446,77.5160645 175.892542,77.8041935 L175.563161,78.9333226 L171.826739,78.0090645 C171.375711,78.2139355 170.779643,78.7480968 170.779643,79.3028387 C170.779643,81.6827097 176.076884,80.4516129 176.076884,83.9007419 C176.076884,86.014 174.249378,87 172.504217,87" id="Fill-8" fill="#FFFFFE"></path>
                <path d="M183.631137,77.5160645 C185.416534,77.5160645 187.183217,78.6451935 187.183217,81.4787742 L187.183217,86.2198065 L188.805795,86.4040968 L188.805795,86.6922258 L183.980169,86.6922258 L183.980169,86.4040968 L185.457707,86.2198065 L185.457707,81.4787742 C185.457707,79.2205161 184.102751,78.5226452 182.912486,78.5226452 C182.050667,78.5226452 181.454598,78.8715806 180.674189,79.342129 L180.674189,86.2198065 L182.317353,86.4040968 L182.317353,86.6922258 L177.491727,86.6922258 L177.491727,86.4040968 L178.949614,86.2198065 L178.949614,79.487129 L177.759349,77.721871 L180.674189,77.721871 L180.674189,78.6863548 L183.631137,77.5160645" id="Fill-9" fill="#FFFFFE"></path>
                <path d="M194.263984,77.9473226 C192.724687,77.9473226 191.698177,79.4656129 191.698177,82.1962903 C191.698177,84.9063871 192.724687,86.4452581 194.263984,86.4452581 C195.805153,86.4452581 197.03659,84.9063871 197.03659,82.1962903 C197.03659,79.4656129 195.805153,77.9473226 194.263984,77.9473226 Z M194.263984,87 C191.718763,87 189.768675,84.9466129 189.768675,82.1962903 C189.768675,78.994129 191.718763,77.3925806 194.263984,77.3925806 C196.811076,77.3925806 198.967028,78.994129 198.967028,82.1962903 C198.967028,84.9466129 196.811076,87 194.263984,87 L194.263984,87 Z" id="Fill-10" fill="#FFFFFE"></path>
                <path d="M207.834129,81.9296774 C207.834129,79.2401613 205.596767,78.6451935 204.713426,78.6451935 C203.974189,78.6451935 203.481988,78.851 202.680992,79.2822581 L202.680992,85.809129 C203.112369,86.0766774 203.748675,86.2198065 204.343807,86.2198065 C205.390904,86.2198065 207.834129,85.4807742 207.834129,81.9296774 Z M200.956418,85.7062258 L200.956418,73.2670968 L199.785803,71.5027742 L202.680992,71.5027742 L202.680992,78.7480968 L205.514422,77.4337419 C207.670373,77.4337419 209.580225,79.2401613 209.580225,81.9296774 C209.580225,85.3788065 206.561518,87 204.734012,87 C203.502574,87 202.187855,86.5275806 200.956418,85.7062258 L200.956418,85.7062258 Z" id="Fill-11" fill="#FFFFFE"></path>
                <path d="M212.103924,84.2281613 C212.801988,84.2281613 213.376534,84.8240645 213.376534,85.5219355 C213.376534,86.2198065 212.801988,86.7941935 212.103924,86.7941935 C211.405859,86.7941935 210.809791,86.2198065 210.809791,85.5219355 C210.809791,84.8240645 211.405859,84.2281613 212.103924,84.2281613" id="Fill-12" fill="#FFFFFE"></path>
                <path d="M218.056185,82.9764839 L218.056185,86.2198065 L219.904277,86.4040968 L219.904277,86.6922258 L214.873723,86.6922258 L214.873723,86.4040968 L216.332546,86.2198065 L216.332546,79.487129 L215.161932,77.721871 L218.056185,77.721871 L218.056185,80.9240323 C218.816008,78.7480968 219.740522,77.7630323 221.280755,77.4131613 L221.751434,78.8715806 C219.493486,79.3028387 218.056185,80.5339355 218.056185,82.9764839" id="Fill-13" fill="#FFFFFE"></path>
                <path d="M229.758586,86.6922258 L229.758586,85.2338065 L227.21243,86.8970968 C225.241755,86.8970968 223.680936,86.4040968 223.680936,82.9559032 L223.680936,79.487129 L222.490671,77.721871 L225.406446,77.721871 L225.406446,82.9559032 C225.406446,85.316129 226.288851,85.7268065 227.43888,85.7268065 C228.013426,85.7268065 228.917353,85.2955484 229.758586,84.6397742 L229.758586,79.487129 L228.568321,77.721871 L231.483161,77.721871 L231.483161,86.6922258 L229.758586,86.6922258" id="Fill-14" fill="#FFFFFE"></path>
            </g>
        </g>
    </g>
</svg>