<?xml version="1.0" encoding="UTF-8"?>
<svg width="233px" height="83px" viewBox="0 0 233 83" version="1.1" xmlns="http://www.w3.org/2000/svg" xmlns:xlink="http://www.w3.org/1999/xlink">
    <title>the village</title>
    <g id="Final-concept" stroke="none" stroke-width="1" fill="none" fill-rule="evenodd">
        <g id="iPhone-8-Copy-10" transform="translate(-130.000000, -269.000000)" fill="#FFFFFF" fill-rule="nonzero">
            <g id="the-village" transform="translate(130.000000, 269.358974)">
                <path d="M100.537216,0.155333333 L88.1151176,0.155333333 L87.8866863,0.776666667 C89.1270686,1.55333333 91.845402,7.22071569 91.845402,8.77176471 L91.845402,46.2710588 L91.0687353,60.7878725 L102.8695,60.7878725 C101.782167,57.9941569 100.5395,50.4627745 100.5395,46.2710588 L100.537216,0.155333333 Z" id="Path"></path>
                <path d="M81.3626863,0.155333333 L68.9405882,0.155333333 L68.7121569,0.776666667 C69.9548235,1.55333333 72.6708725,7.22071569 72.6708725,8.77176471 L72.6708725,46.2710588 L71.8942059,60.7878725 L83.6949706,60.7878725 C82.6076373,57.9941569 81.3672549,50.4627745 81.3672549,46.2710588 L81.3626863,0.155333333 Z" id="Path"></path>
                <path d="M54.4214902,54.3438235 L54.1930588,54.1153922 L63.6661078,28.9628137 L51.2394412,28.9628137 L50.9401961,29.5795784 C51.7945294,30.5892451 53.5031961,33.1499608 52.9595294,34.5479608 L45.3390588,54.3438235 C43.9410588,57.9164902 45.6497255,61.1762059 49.2977745,61.1762059 C52.8704412,61.1762059 55.6641569,58.7708235 58.3824902,56.2854902 L64.0498725,51.2394412 L62.7295392,49.4531078 C62.7295392,49.4531078 56.0524902,53.4917745 54.4214902,54.3438235 Z" id="Path"></path>
                <path d="M52.6374412,0.155333333 L40.2153431,0.155333333 L39.9046765,0.776666667 C41.3803431,3.18204902 44.7177255,10.7134314 44.2448725,12.1114314 L31.3704804,48.2835392 L18.8661471,16.2186275 C18.0118137,14.1307647 16.0701471,4.11176471 15.5333333,0.155333333 L0.310666667,0.155333333 L0,0.776666667 L7.53823529,16.2186275 L26.0914314,60.7810196 L30.363098,60.7810196 L48.1350588,11.5677647 L52.6374412,0.155333333 Z" id="Path"></path>
                <path d="M61.9528725,13.0434314 C58.3824902,13.0434314 55.5864902,15.8371471 55.5864902,19.2544804 C55.5864902,22.2811961 57.1398235,24.3005294 60.6325392,24.3005294 C64.2052059,24.3005294 66.8435882,21.1938627 66.8435882,17.9341471 C66.8435882,14.8274804 64.8265392,13.0434314 61.9528725,13.0434314 Z" id="Path"></path>
                <path d="M231.12001,38.8950098 C228.869961,38.8950098 225.840961,40.9920098 224.675961,42.3214804 L224.598294,42.9405294 C226.306961,44.5715294 228.481627,47.6005294 229.025294,49.3845784 C226.695294,53.4232451 219.707578,57.1512451 211.867814,57.1512451 C199.441147,57.1512451 192.729833,51.2303039 191.994284,40.0417353 C197.677657,39.4432451 209.33451,38.2462647 213.039667,38.1297647 C213.039667,28.0376667 209.003284,21.981951 199.53252,21.981951 C189.751088,21.981951 182.996373,30.057 182.996373,41.314098 C182.996373,54.9765784 191.535137,64.3719608 206.981667,64.3719608 C219.545392,64.3719608 232.910912,56.0639118 232.910912,44.4984314 C232.906343,42.7760588 232.362676,39.9754902 231.12001,38.8950098 Z M198.05,25.0771961 C201.933333,25.0771961 203.872716,29.5795784 204.494049,34.7032941 L191.918902,37.6295 C191.964588,30.1529412 194.05702,25.0771961 198.05,25.0771961 Z" id="Shape"></path>
                <path d="M145.953941,14.053098 L145.254941,13.5094314 C144.480559,14.2084314 143.004892,14.9051471 141.762225,14.9051471 C139.541873,14.9051471 138.842873,13.3061275 138.746931,11.1200392 L145.177275,10.6357647 C145.099608,7.53138235 143.470892,5.51204902 140.837078,5.51204902 C137.655029,5.51204902 135.558029,7.68671569 135.558029,11.490098 C135.558029,14.9165686 137.499696,17.3128137 140.914745,17.3128137 C143.160225,17.3128137 144.713559,15.9901961 145.953941,14.053098 Z M140.597225,6.59938235 C141.762225,6.59938235 142.150559,7.68671569 142.305892,9.31543137 L138.737794,10.208598 C138.772059,8.13215686 139.126127,6.59938235 140.597225,6.59938235 Z" id="Shape"></path>
                <path d="M171.341804,56.1301569 L153.174657,56.1301569 C153.656647,54.6270784 154.51098,52.4752549 155.666843,50.7094804 C156.791958,50.9085537 157.932449,51.0079262 159.075039,51.0064412 C168.468137,51.0064412 174.912186,45.5720588 174.912186,35.3246275 C174.951137,32.9212715 174.361334,30.5494605 173.201235,28.4442745 L181.744569,29.5019118 L181.744569,22.5918627 C179.142735,23.7568627 173.767745,25.5843137 171.497137,26.1462549 C168.899873,23.4050784 164.927451,21.8060588 159.929373,21.8060588 C149.914941,21.8060588 144.325225,28.0947745 144.325225,36.8688235 C144.325225,43.7628824 147.916167,48.2355686 153.190647,50.0607353 C150.063422,53.0828824 146.2075,57.6126765 144.402892,61.7107353 C145.069912,64.0110392 147.3725,64.7488725 151.509392,64.810549 C147.728853,67.3575588 144.788941,69.8680196 144.788941,73.3561667 C144.788941,78.1692157 150.225608,81.4312157 159.929373,81.4312157 C168.778804,79.5763529 182.288235,70.2609216 182.288235,63.2754902 C182.288235,58.5378235 178.176471,56.1301569 171.341804,56.1301569 Z M159.152706,24.8350588 C163.655088,24.8350588 165.596755,31.3544902 165.596755,38.1092059 C165.596755,43.6212549 164.121088,48.2035882 160.473039,48.2035882 C155.582324,48.2035882 154.02899,41.0605392 154.02899,34.5388235 C154.02899,29.2689118 155.504657,24.8441961 159.152706,24.8441961 L159.152706,24.8350588 Z M164.587088,76.0745 C158.453706,76.0745 151.46599,74.8318333 151.46599,70.096451 C151.46599,68.312402 152.756627,66.2542353 154.09752,64.817402 L168.778804,64.817402 C173.514186,64.817402 175.222853,65.902451 175.222853,67.9217843 C175.222853,70.6492549 170.487471,74.3749706 164.587088,76.0836373 L164.587088,76.0745 Z" id="Shape"></path>
                <path d="M112.10498,1.398 L114.357314,1.398 L114.357314,12.0337647 C114.32788,13.7246499 114.175188,15.4111381 113.900451,17.0798137 L118.327451,17.0798137 C117.939118,15.9148137 117.870588,13.5094314 117.870588,11.956098 L117.870588,1.398 L120.045255,1.398 C120.906441,1.398 122.361549,2.19294118 123.314108,2.86452941 C123.340474,3.1271559 123.353435,3.39095574 123.352941,3.65490196 L123.352941,13.6647647 L123.042275,17.0798137 L127.154039,17.0798137 C126.822087,15.9440853 126.63933,14.7699899 126.610373,13.587098 L126.610373,8.66211765 C127.403029,8.05677451 128.003804,7.68671569 128.705088,7.68671569 C130.569088,7.68671569 130.569088,9.08243137 130.569088,10.9464314 L130.569088,17.0798137 L134.386176,17.0798137 C134.07551,16.3808137 133.84251,14.6721471 133.84251,13.6647647 L133.84251,9.39309804 C133.84251,7.06538235 132.602127,5.43438235 130.349794,5.43438235 C128.60001,5.43438235 127.553794,6.40978431 126.624078,7.49026471 L126.624078,0 L107.990931,0 L107.990931,3.72571569 L108.301598,3.72571569 C109.544265,2.71833333 111.47451,1.398 112.10498,1.398 Z" id="Path"></path>
                <path d="M136.327843,31.9072941 C136.327843,25.1548627 130.505127,21.8151961 123.750412,21.8151961 C116.995696,21.8151961 108.845265,26.9389118 108.845265,33.6936275 C108.835116,34.8289308 109.018983,35.9576251 109.388931,37.0310098 C111.949647,37.0310098 116.607363,35.2469608 117.927696,33.9266275 C117.772363,29.2689118 118.238363,26.7835784 118.626696,25.9315294 C119.325696,25.4746667 120.257696,25.0794804 121.888696,25.0794804 C125.381412,25.0794804 127.478412,28.8828627 127.478412,33.5314412 L127.478412,36.6381078 C126.158078,38.1114902 124.371745,39.1988235 121.966363,40.3638235 C113.891314,44.2471569 108.301598,46.5748725 108.301598,53.1742549 C108.301598,57.6766373 110.631598,61.4800196 116.995696,61.4800196 C121.500363,61.4800196 125.381412,58.2203039 127.478412,55.5796373 L127.478412,60.7810196 L138.20098,60.7810196 C137.113647,58.6863039 136.33698,53.4072549 136.33698,49.8345882 L136.327843,31.9072941 Z M127.478412,52.4044412 C126.158078,54.1884902 124.216412,55.6641569 122.352412,55.6641569 C119.325696,55.6641569 117.783784,53.3364412 117.783784,50.3074412 C117.783784,46.8923922 119.647784,45.0283922 122.596833,43.4750588 C124.616167,42.3900098 126.708598,40.9920098 127.489833,40.2153431 L127.478412,52.4044412 Z" id="Shape"></path>
            </g>
        </g>
    </g>
</svg>