<svg xmlns="http://www.w3.org/2000/svg" viewBox="0 0 234.28 234.28"><defs><style>.cls-1{fill:#fff;}</style></defs><g id="Layer_2" data-name="Layer 2"><g id="Layer_1-2" data-name="Layer 1"><path class="cls-1" d="M129,6.25h0a14.34,14.34,0,0,0,19.68,3.91h0a14.32,14.32,0,0,1,21.86,9.06h0a14.32,14.32,0,0,0,16.68,11.14h0A14.33,14.33,0,0,1,203.92,47.1h0a14.32,14.32,0,0,0,11.14,16.67h0a14.33,14.33,0,0,1,9.06,21.87h0A14.32,14.32,0,0,0,228,105.31h0A14.31,14.31,0,0,1,228,129h0a14.34,14.34,0,0,0-3.91,19.68h0a14.32,14.32,0,0,1-9.06,21.86h0a14.33,14.33,0,0,0-11.14,16.68h0a14.32,14.32,0,0,1-16.73,16.73h0a14.33,14.33,0,0,0-16.68,11.14h0a14.32,14.32,0,0,1-21.86,9.06h0A14.34,14.34,0,0,0,129,228h0a14.31,14.31,0,0,1-23.66,0h0a14.32,14.32,0,0,0-19.67-3.91h0a14.33,14.33,0,0,1-21.87-9.06h0A14.32,14.32,0,0,0,47.1,203.92h0a14.33,14.33,0,0,1-16.74-16.73h0a14.32,14.32,0,0,0-11.14-16.68h0a14.32,14.32,0,0,1-9.06-21.86h0A14.34,14.34,0,0,0,6.25,129h0a14.32,14.32,0,0,1,0-23.66h0a14.32,14.32,0,0,0,3.91-19.67h0a14.33,14.33,0,0,1,9.06-21.87h0A14.31,14.31,0,0,0,30.36,47.1h0A14.33,14.33,0,0,1,47.1,30.36h0A14.31,14.31,0,0,0,63.77,19.22h0a14.33,14.33,0,0,1,21.87-9.06h0a14.32,14.32,0,0,0,19.67-3.91h0A14.32,14.32,0,0,1,129,6.25Z"/><path d="M29.49,97.37H44.16v3.51H32v18.36H29.49Z"/><path d="M64.14,114.38a10,10,0,0,1-3.73,4,11.14,11.14,0,0,1-10.92,0,10,10,0,0,1-3.77-4,12.56,12.56,0,0,1-1.34-5.91,13,13,0,0,1,1.33-5.94,10.23,10.23,0,0,1,3.72-4.14,10,10,0,0,1,5.45-1.5,10.15,10.15,0,0,1,5.5,1.52,10.33,10.33,0,0,1,3.76,4.17,13,13,0,0,1,1.35,6A12.38,12.38,0,0,1,64.14,114.38ZM62,104a6.65,6.65,0,0,0-2.85-2.78,9.27,9.27,0,0,0-4.25-.93,9,9,0,0,0-4.3,1,6.51,6.51,0,0,0-2.76,2.81,9.25,9.25,0,0,0-1,4.33,8.76,8.76,0,0,0,1,4.38,6.26,6.26,0,0,0,2.84,2.64,10.86,10.86,0,0,0,8.47,0A6.25,6.25,0,0,0,62,112.84a8.69,8.69,0,0,0,1-4.37A9.06,9.06,0,0,0,62,104Z"/><path d="M82.8,107a5.7,5.7,0,0,1-2.28,2.21,6.79,6.79,0,0,1-3.24.76H70.35v9.27H67.86V97.37h8.85a8.59,8.59,0,0,1,3.75.75,5.34,5.34,0,0,1,2.37,2.15,6.47,6.47,0,0,1,.81,3.31A6.67,6.67,0,0,1,82.8,107Zm-2.1-5.13a2.18,2.18,0,0,0-1.18-.81,8.45,8.45,0,0,0-2-.24l-.6,0H70.35v5.64h6.54l.6,0a8.45,8.45,0,0,0,2-.24,2.18,2.18,0,0,0,1.18-.81,3.82,3.82,0,0,0,0-3.6Z"/><path d="M104.85,114.38a10,10,0,0,1-3.73,4,11.14,11.14,0,0,1-10.92,0,10,10,0,0,1-3.77-4,12.56,12.56,0,0,1-1.35-5.91,13,13,0,0,1,1.34-5.94,10.41,10.41,0,0,1,14.67-4.12,10.33,10.33,0,0,1,3.76,4.17,13,13,0,0,1,1.35,6A12.38,12.38,0,0,1,104.85,114.38ZM102.69,104a6.65,6.65,0,0,0-2.85-2.78,9.28,9.28,0,0,0-4.26-.93,9,9,0,0,0-4.29,1,6.51,6.51,0,0,0-2.76,2.81,9.25,9.25,0,0,0-1,4.33,8.76,8.76,0,0,0,1,4.38,6.29,6.29,0,0,0,2.83,2.64,10.88,10.88,0,0,0,8.48,0,6.25,6.25,0,0,0,2.82-2.61,8.69,8.69,0,0,0,1-4.37A9.06,9.06,0,0,0,102.69,104Z"/><path d="M111.64,113.33a14,14,0,0,0,.94-4.27q.21-2.53.21-6.74V97.37h13.65v18.36h2.49v7.56h-2.49v-4.05H109.1v4.05h-2.49v-7.56h2.85A4.36,4.36,0,0,0,111.64,113.33ZM124,100.88h-8.67q0,4.89-.15,7.5a22.24,22.24,0,0,1-.58,4.26,10.69,10.69,0,0,1-1.37,3.09H124Z"/><path d="M148.72,115.72a9.23,9.23,0,0,1-3.52,3,10.7,10.7,0,0,1-4.8,1.06,10.56,10.56,0,0,1-5.49-1.44,10.11,10.11,0,0,1-3.81-4,12.21,12.21,0,0,1-1.38-5.85,12.54,12.54,0,0,1,1.41-6A10.57,10.57,0,0,1,135,98.33a10.87,10.87,0,0,1,9.84-.6,9,9,0,0,1,5.1,6.42h-2.49a3.73,3.73,0,0,0-1.26-2.16,5.93,5.93,0,0,0-2.42-1.2,12.36,12.36,0,0,0-3-.36,10.66,10.66,0,0,0-4.58.9,6.43,6.43,0,0,0-2.92,2.7,8.69,8.69,0,0,0-1,4.35,8.46,8.46,0,0,0,1,4.38,6.32,6.32,0,0,0,2.92,2.61,10.3,10.3,0,0,0,4.37.81,11.19,11.19,0,0,0,3.45-.49,5.93,5.93,0,0,0,2.56-1.61,5.4,5.4,0,0,0,1.34-2.82h2.49A9.58,9.58,0,0,1,148.72,115.72Z"/><path d="M152.56,119.24V97.37h2.49v21.87ZM163.3,97.37h4.23l-10.05,10.68-4.35.18Zm5.22,21.87h-4.35l-10.8-11.7,4.08-.15Z"/><path d="M171,119.24V97.37h2.49v18h.84l8.16-18h5v21.87H185v-18h-.84l-8.16,18Z"/><path d="M206.51,115.76v3.48H191.36V97.37h15.15v3.48H193.85v14.91Zm0-9.63v3.48H193.37v-3.48Z"/><path d="M50.51,149.24V127.37H53v21.87Zm2-9.63v-3.48H65.33v3.48Zm14.82-12.24v21.87H64.85V127.37Z"/><path d="M89.71,149.24H87.08l-6.84-18H79.4l-6.87,18H69.2l8.34-21.87h3.87Zm-15-10H85l.9,3.48H73.82Z"/><path d="M93.62,149.24H91.13V127.37H108v21.87h-2.49V130.88H93.62Z"/><path d="M111.85,149.24V127.37h2.49v18h.84l8.16-18h5v21.87h-2.49v-18H125l-8.16,18Z"/><path d="M140.54,149.24h-2.49V130.85H130.7v-3.48h17.16v3.48h-7.32Z"/><path d="M150,149.24V127.37h2.49v21.87Zm10.74-21.87H165l-10,10.68-4.35.18Zm5.22,21.87h-4.35l-10.8-11.7,4.08-.15Z"/><path d="M168.39,149.24V127.37h2.49v18h.84l8.16-18h5v21.87H182.4v-18h-.84l-8.16,18Z"/></g></g></svg>