<?xml version="1.0" encoding="UTF-8"?>
<svg width="1200px" height="800px" viewBox="0 0 1200 800" version="1.1" xmlns="http://www.w3.org/2000/svg" xmlns:xlink="http://www.w3.org/1999/xlink">
    <title>WRS Copy 6</title>
    <defs>
        <filter x="-13.6%" y="-21.3%" width="127.2%" height="142.6%" filterUnits="objectBoundingBox" id="filter-1">
            <feGaussianBlur stdDeviation="50" in="SourceGraphic"></feGaussianBlur>
        </filter>
    </defs>
    <g id="WRS-Copy-6" stroke="none" stroke-width="1" fill="none" fill-rule="evenodd">
        <rect fill="#000000" x="0" y="0" width="1200" height="800"></rect>
        <ellipse id="Oval" fill="#EF1146" filter="url(#filter-1)" cx="600" cy="400" rx="552" ry="352"></ellipse>
        <rect id="Rectangle" fill="#000000" x="702.71489" y="135" width="73.2932985" height="39.9030471"></rect>
        <rect id="Rectangle-Copy-2" fill="#000000" x="702.71489" y="179.542936" width="73.2932985" height="39.9030471"></rect>
        <rect id="Rectangle-Copy-24" fill="#000000" x="459.640912" y="179.542936" width="73.2932985" height="39.9030471"></rect>
        <rect id="Rectangle" fill="#000000" x="195.22838" y="519.182825" width="22.2663185" height="12.0637119"></rect>
        <rect id="Rectangle-Copy-61" fill="#000000" x="224.916804" y="519.182825" width="22.2663185" height="12.0637119"></rect>
        <rect id="Rectangle-Copy-40" fill="#000000" x="195.22838" y="502.479224" width="22.2663185" height="12.0637119"></rect>
        <rect id="Rectangle-Copy-62" fill="#000000" x="224.916804" y="502.479224" width="22.2663185" height="12.0637119"></rect>
        <rect id="Rectangle-Copy-41" fill="#000000" x="195.22838" y="485.775623" width="22.2663185" height="12.0637119"></rect>
        <rect id="Rectangle-Copy-63" fill="#000000" x="224.916804" y="485.775623" width="22.2663185" height="12.0637119"></rect>
        <rect id="Rectangle-Copy-47" fill="#000000" x="195.22838" y="469.072022" width="22.2663185" height="12.0637119"></rect>
        <rect id="Rectangle-Copy-64" fill="#000000" x="224.916804" y="469.072022" width="22.2663185" height="12.0637119"></rect>
        <rect id="Rectangle-Copy-48" fill="#000000" x="195.22838" y="452.368421" width="22.2663185" height="12.0637119"></rect>
        <rect id="Rectangle-Copy-65" fill="#000000" x="224.916804" y="452.368421" width="22.2663185" height="12.0637119"></rect>
        <rect id="Rectangle-Copy-49" fill="#000000" x="195.22838" y="435.66482" width="22.2663185" height="12.0637119"></rect>
        <rect id="Rectangle-Copy-66" fill="#000000" x="224.916804" y="435.66482" width="22.2663185" height="12.0637119"></rect>
        <rect id="Rectangle-Copy-50" fill="#000000" x="195.22838" y="418.961219" width="22.2663185" height="12.0637119"></rect>
        <rect id="Rectangle-Copy-67" fill="#000000" x="224.916804" y="418.961219" width="22.2663185" height="12.0637119"></rect>
        <rect id="Rectangle-Copy-51" fill="#000000" x="195.22838" y="402.257618" width="22.2663185" height="12.0637119"></rect>
        <rect id="Rectangle-Copy-68" fill="#000000" x="224.916804" y="402.257618" width="22.2663185" height="12.0637119"></rect>
        <rect id="Rectangle-Copy-52" fill="#000000" x="195.22838" y="385.554017" width="22.2663185" height="12.0637119"></rect>
        <rect id="Rectangle-Copy-69" fill="#000000" x="224.916804" y="385.554017" width="22.2663185" height="12.0637119"></rect>
        <rect id="Rectangle-Copy-53" fill="#000000" x="195.22838" y="368.850416" width="22.2663185" height="12.0637119"></rect>
        <rect id="Rectangle-Copy-70" fill="#000000" x="224.916804" y="368.850416" width="22.2663185" height="12.0637119"></rect>
        <rect id="Rectangle-Copy-54" fill="#000000" x="195.22838" y="352.146814" width="22.2663185" height="12.0637119"></rect>
        <rect id="Rectangle-Copy-71" fill="#000000" x="224.916804" y="352.146814" width="22.2663185" height="12.0637119"></rect>
        <rect id="Rectangle-Copy-55" fill="#000000" x="195.22838" y="335.443213" width="22.2663185" height="12.0637119"></rect>
        <rect id="Rectangle-Copy-72" fill="#000000" x="224.916804" y="335.443213" width="22.2663185" height="12.0637119"></rect>
        <rect id="Rectangle-Copy-56" fill="#000000" x="195.22838" y="318.739612" width="22.2663185" height="12.0637119"></rect>
        <rect id="Rectangle-Copy-73" fill="#000000" x="224.916804" y="318.739612" width="22.2663185" height="12.0637119"></rect>
        <rect id="Rectangle-Copy-57" fill="#000000" x="195.22838" y="302.036011" width="22.2663185" height="12.0637119"></rect>
        <rect id="Rectangle-Copy-74" fill="#000000" x="224.916804" y="302.036011" width="22.2663185" height="12.0637119"></rect>
        <rect id="Rectangle-Copy-58" fill="#000000" x="195.22838" y="285.33241" width="22.2663185" height="12.0637119"></rect>
        <rect id="Rectangle-Copy-75" fill="#000000" x="224.916804" y="285.33241" width="22.2663185" height="12.0637119"></rect>
        <rect id="Rectangle-Copy-59" fill="#000000" x="195.22838" y="268.628809" width="22.2663185" height="12.0637119"></rect>
        <rect id="Rectangle-Copy-76" fill="#000000" x="224.916804" y="268.628809" width="22.2663185" height="12.0637119"></rect>
        <rect id="Rectangle-Copy-92" fill="#000000" x="254.605229" y="519.182825" width="22.2663185" height="12.0637119"></rect>
        <rect id="Rectangle-Copy-91" fill="#000000" x="254.605229" y="502.479224" width="22.2663185" height="12.0637119"></rect>
        <rect id="Rectangle-Copy-90" fill="#000000" x="254.605229" y="485.775623" width="22.2663185" height="12.0637119"></rect>
        <rect id="Rectangle-Copy-89" fill="#000000" x="254.605229" y="469.072022" width="22.2663185" height="12.0637119"></rect>
        <rect id="Rectangle-Copy-88" fill="#000000" x="254.605229" y="452.368421" width="22.2663185" height="12.0637119"></rect>
        <rect id="Rectangle-Copy-87" fill="#000000" x="254.605229" y="435.66482" width="22.2663185" height="12.0637119"></rect>
        <rect id="Rectangle-Copy-86" fill="#000000" x="254.605229" y="418.961219" width="22.2663185" height="12.0637119"></rect>
        <rect id="Rectangle-Copy-85" fill="#000000" x="254.605229" y="402.257618" width="22.2663185" height="12.0637119"></rect>
        <rect id="Rectangle-Copy-84" fill="#000000" x="254.605229" y="385.554017" width="22.2663185" height="12.0637119"></rect>
        <rect id="Rectangle-Copy-83" fill="#000000" x="254.605229" y="368.850416" width="22.2663185" height="12.0637119"></rect>
        <rect id="Rectangle-Copy-82" fill="#000000" x="254.605229" y="352.146814" width="22.2663185" height="12.0637119"></rect>
        <rect id="Rectangle-Copy-81" fill="#000000" x="254.605229" y="335.443213" width="22.2663185" height="12.0637119"></rect>
        <rect id="Rectangle-Copy-80" fill="#000000" x="254.605229" y="318.739612" width="22.2663185" height="12.0637119"></rect>
        <rect id="Rectangle-Copy-79" fill="#000000" x="254.605229" y="302.036011" width="22.2663185" height="12.0637119"></rect>
        <rect id="Rectangle-Copy-78" fill="#000000" x="254.605229" y="285.33241" width="22.2663185" height="12.0637119"></rect>
        <rect id="Rectangle-Copy-77" fill="#000000" x="254.605229" y="268.628809" width="22.2663185" height="12.0637119"></rect>
        <rect id="Rectangle-Copy-99" fill="#000000" x="1058.04822" y="335.443213" width="22.2663185" height="12.0637119"></rect>
        <rect id="Rectangle-Copy-125" fill="#000000" x="303.776683" y="787.936288" width="22.2663185" height="12.0637119"></rect>
        <rect id="Rectangle-Copy-100" fill="#000000" x="1087.73665" y="335.443213" width="22.2663185" height="12.0637119"></rect>
        <rect id="Rectangle-Copy-126" fill="#000000" x="333.465107" y="787.936288" width="22.2663185" height="12.0637119"></rect>
        <rect id="Rectangle-Copy-101" fill="#000000" x="1058.04822" y="318.739612" width="22.2663185" height="12.0637119"></rect>
        <rect id="Rectangle-Copy-127" fill="#000000" x="303.776683" y="771.232687" width="22.2663185" height="12.0637119"></rect>
        <rect id="Rectangle-Copy-102" fill="#000000" x="1087.73665" y="318.739612" width="22.2663185" height="12.0637119"></rect>
        <rect id="Rectangle-Copy-141" fill="#000000" x="333.465107" y="771.232687" width="22.2663185" height="12.0637119"></rect>
        <rect id="Rectangle-Copy-103" fill="#000000" x="1058.04822" y="302.036011" width="22.2663185" height="12.0637119"></rect>
        <rect id="Rectangle-Copy-142" fill="#000000" x="303.776683" y="754.529086" width="22.2663185" height="12.0637119"></rect>
        <rect id="Rectangle-Copy-104" fill="#000000" x="1087.73665" y="302.036011" width="22.2663185" height="12.0637119"></rect>
        <rect id="Rectangle-Copy-143" fill="#000000" x="333.465107" y="754.529086" width="22.2663185" height="12.0637119"></rect>
        <rect id="Rectangle-Copy-105" fill="#000000" x="1058.04822" y="285.33241" width="22.2663185" height="12.0637119"></rect>
        <rect id="Rectangle-Copy-144" fill="#000000" x="303.776683" y="737.825485" width="22.2663185" height="12.0637119"></rect>
        <rect id="Rectangle-Copy-106" fill="#000000" x="1087.73665" y="285.33241" width="22.2663185" height="12.0637119"></rect>
        <rect id="Rectangle-Copy-145" fill="#000000" x="333.465107" y="737.825485" width="22.2663185" height="12.0637119"></rect>
        <rect id="Rectangle-Copy-107" fill="#000000" x="1058.04822" y="268.628809" width="22.2663185" height="12.0637119"></rect>
        <rect id="Rectangle-Copy-146" fill="#000000" x="303.776683" y="721.121884" width="22.2663185" height="12.0637119"></rect>
        <rect id="Rectangle-Copy-108" fill="#000000" x="1087.73665" y="268.628809" width="22.2663185" height="12.0637119"></rect>
        <rect id="Rectangle-Copy-147" fill="#000000" x="333.465107" y="721.121884" width="22.2663185" height="12.0637119"></rect>
        <rect id="Rectangle-Copy-109" fill="#000000" x="1058.04822" y="251.925208" width="22.2663185" height="12.0637119"></rect>
        <rect id="Rectangle-Copy-148" fill="#000000" x="303.776683" y="704.418283" width="22.2663185" height="12.0637119"></rect>
        <rect id="Rectangle-Copy-110" fill="#000000" x="1087.73665" y="251.925208" width="22.2663185" height="12.0637119"></rect>
        <rect id="Rectangle-Copy-149" fill="#000000" x="333.465107" y="704.418283" width="22.2663185" height="12.0637119"></rect>
        <rect id="Rectangle-Copy-111" fill="#000000" x="1058.04822" y="235.221607" width="22.2663185" height="12.0637119"></rect>
        <rect id="Rectangle-Copy-150" fill="#000000" x="303.776683" y="687.714681" width="22.2663185" height="12.0637119"></rect>
        <rect id="Rectangle-Copy-112" fill="#000000" x="1087.73665" y="235.221607" width="22.2663185" height="12.0637119"></rect>
        <rect id="Rectangle-Copy-151" fill="#000000" x="333.465107" y="687.714681" width="22.2663185" height="12.0637119"></rect>
        <rect id="Rectangle-Copy-113" fill="#000000" x="1058.04822" y="218.518006" width="22.2663185" height="12.0637119"></rect>
        <rect id="Rectangle-Copy-114" fill="#000000" x="1087.73665" y="218.518006" width="22.2663185" height="12.0637119"></rect>
        <rect id="Rectangle-Copy-115" fill="#000000" x="1058.04822" y="201.814404" width="22.2663185" height="12.0637119"></rect>
        <rect id="Rectangle-Copy-116" fill="#000000" x="1087.73665" y="201.814404" width="22.2663185" height="12.0637119"></rect>
        <rect id="Rectangle-Copy-117" fill="#000000" x="1058.04822" y="185.110803" width="22.2663185" height="12.0637119"></rect>
        <rect id="Rectangle-Copy-118" fill="#000000" x="1087.73665" y="185.110803" width="22.2663185" height="12.0637119"></rect>
        <rect id="Rectangle-Copy-119" fill="#000000" x="1058.04822" y="168.407202" width="22.2663185" height="12.0637119"></rect>
        <rect id="Rectangle-Copy-120" fill="#000000" x="1087.73665" y="168.407202" width="22.2663185" height="12.0637119"></rect>
        <rect id="Rectangle-Copy-121" fill="#000000" x="1058.04822" y="151.703601" width="22.2663185" height="12.0637119"></rect>
        <rect id="Rectangle-Copy-122" fill="#000000" x="1087.73665" y="151.703601" width="22.2663185" height="12.0637119"></rect>
        <rect id="Rectangle-Copy-123" fill="#000000" x="1058.04822" y="135" width="22.2663185" height="12.0637119"></rect>
        <rect id="Rectangle-Copy-124" fill="#000000" x="1087.73665" y="135" width="22.2663185" height="12.0637119"></rect>
        <rect id="Rectangle-Copy-128" fill="#000000" x="1117.42507" y="335.443213" width="22.2663185" height="12.0637119"></rect>
        <rect id="Rectangle-Copy-164" fill="#000000" x="363.153532" y="787.936288" width="22.2663185" height="12.0637119"></rect>
        <rect id="Rectangle-Copy-171" fill="#000000" x="392.841957" y="787.936288" width="22.2663185" height="12.0637119"></rect>
        <rect id="Rectangle-Copy-129" fill="#000000" x="1117.42507" y="318.739612" width="22.2663185" height="12.0637119"></rect>
        <rect id="Rectangle-Copy-165" fill="#000000" x="363.153532" y="771.232687" width="22.2663185" height="12.0637119"></rect>
        <rect id="Rectangle-Copy-172" fill="#000000" x="392.841957" y="771.232687" width="22.2663185" height="12.0637119"></rect>
        <rect id="Rectangle-Copy-130" fill="#000000" x="1117.42507" y="302.036011" width="22.2663185" height="12.0637119"></rect>
        <rect id="Rectangle-Copy-166" fill="#000000" x="363.153532" y="754.529086" width="22.2663185" height="12.0637119"></rect>
        <rect id="Rectangle-Copy-173" fill="#000000" x="392.841957" y="754.529086" width="22.2663185" height="12.0637119"></rect>
        <rect id="Rectangle-Copy-131" fill="#000000" x="1117.42507" y="285.33241" width="22.2663185" height="12.0637119"></rect>
        <rect id="Rectangle-Copy-167" fill="#000000" x="363.153532" y="737.825485" width="22.2663185" height="12.0637119"></rect>
        <rect id="Rectangle-Copy-174" fill="#000000" x="392.841957" y="737.825485" width="22.2663185" height="12.0637119"></rect>
        <rect id="Rectangle-Copy-132" fill="#000000" x="1117.42507" y="268.628809" width="22.2663185" height="12.0637119"></rect>
        <rect id="Rectangle-Copy-168" fill="#000000" x="363.153532" y="721.121884" width="22.2663185" height="12.0637119"></rect>
        <rect id="Rectangle-Copy-175" fill="#000000" x="392.841957" y="721.121884" width="22.2663185" height="12.0637119"></rect>
        <rect id="Rectangle-Copy-133" fill="#000000" x="1117.42507" y="251.925208" width="22.2663185" height="12.0637119"></rect>
        <rect id="Rectangle-Copy-169" fill="#000000" x="363.153532" y="704.418283" width="22.2663185" height="12.0637119"></rect>
        <rect id="Rectangle-Copy-176" fill="#000000" x="392.841957" y="704.418283" width="22.2663185" height="12.0637119"></rect>
        <rect id="Rectangle-Copy-134" fill="#000000" x="1117.42507" y="235.221607" width="22.2663185" height="12.0637119"></rect>
        <rect id="Rectangle-Copy-170" fill="#000000" x="363.153532" y="687.714681" width="22.2663185" height="12.0637119"></rect>
        <rect id="Rectangle-Copy-177" fill="#000000" x="392.841957" y="687.714681" width="22.2663185" height="12.0637119"></rect>
        <rect id="Rectangle-Copy-135" fill="#000000" x="1117.42507" y="218.518006" width="22.2663185" height="12.0637119"></rect>
        <rect id="Rectangle-Copy-136" fill="#000000" x="1117.42507" y="201.814404" width="22.2663185" height="12.0637119"></rect>
        <rect id="Rectangle-Copy-137" fill="#000000" x="1117.42507" y="185.110803" width="22.2663185" height="12.0637119"></rect>
        <rect id="Rectangle-Copy-138" fill="#000000" x="1117.42507" y="168.407202" width="22.2663185" height="12.0637119"></rect>
        <rect id="Rectangle-Copy-139" fill="#000000" x="1117.42507" y="151.703601" width="22.2663185" height="12.0637119"></rect>
        <rect id="Rectangle-Copy-140" fill="#000000" x="1117.42507" y="135" width="22.2663185" height="12.0637119"></rect>
        <rect id="Rectangle-Copy" fill="#000000" x="790.852401" y="135" width="73.2932985" height="39.9030471"></rect>
        <rect id="Rectangle-Copy-25" fill="#000000" x="547.778423" y="135" width="73.2932985" height="39.9030471"></rect>
        <rect id="Rectangle-Copy-39" fill="#000000" x="459.640912" y="135" width="73.2932985" height="39.9030471"></rect>
        <rect id="Rectangle-Copy-16" fill="#000000" x="951.355447" y="135" width="73.2932985" height="39.9030471"></rect>
        <rect id="Rectangle-Copy-3" fill="#000000" x="790.852401" y="179.542936" width="73.2932985" height="39.9030471"></rect>
        <rect id="Rectangle-Copy-26" fill="#000000" x="547.778423" y="179.542936" width="73.2932985" height="39.9030471"></rect>
        <rect id="Rectangle-Copy-17" fill="#000000" x="951.355447" y="179.542936" width="73.2932985" height="39.9030471"></rect>
        <rect id="Rectangle-Copy-5" fill="#000000" x="702.71489" y="224.085873" width="73.2932985" height="39.9030471"></rect>
        <rect id="Rectangle-Copy-27" fill="#000000" x="459.640912" y="224.085873" width="73.2932985" height="39.9030471"></rect>
        <rect id="Rectangle-Copy-4" fill="#000000" x="790.852401" y="224.085873" width="73.2932985" height="39.9030471"></rect>
        <rect id="Rectangle-Copy-28" fill="#000000" x="547.778423" y="224.085873" width="73.2932985" height="39.9030471"></rect>
        <rect id="Rectangle-Copy-18" fill="#000000" x="951.355447" y="224.085873" width="73.2932985" height="39.9030471"></rect>
        <rect id="Rectangle-Copy-7" fill="#000000" x="702.71489" y="268.628809" width="73.2932985" height="39.9030471"></rect>
        <rect id="Rectangle-Copy-29" fill="#000000" x="459.640912" y="268.628809" width="73.2932985" height="39.9030471"></rect>
        <rect id="Rectangle-Copy-6" fill="#000000" x="790.852401" y="268.628809" width="73.2932985" height="39.9030471"></rect>
        <rect id="Rectangle-Copy-30" fill="#000000" x="547.778423" y="268.628809" width="73.2932985" height="39.9030471"></rect>
        <rect id="Rectangle-Copy-19" fill="#000000" x="951.355447" y="268.628809" width="73.2932985" height="39.9030471"></rect>
        <rect id="Rectangle-Copy-42" fill="#000000" x="304.704446" y="268.628809" width="73.2932985" height="39.9030471"></rect>
        <rect id="Rectangle-Copy-9" fill="#000000" x="702.71489" y="313.171745" width="73.2932985" height="39.9030471"></rect>
        <rect id="Rectangle-Copy-31" fill="#000000" x="459.640912" y="313.171745" width="73.2932985" height="39.9030471"></rect>
        <rect id="Rectangle-Copy-8" fill="#000000" x="790.852401" y="313.171745" width="73.2932985" height="39.9030471"></rect>
        <rect id="Rectangle-Copy-32" fill="#000000" x="547.778423" y="313.171745" width="73.2932985" height="39.9030471"></rect>
        <rect id="Rectangle-Copy-20" fill="#000000" x="951.355447" y="313.171745" width="73.2932985" height="39.9030471"></rect>
        <rect id="Rectangle-Copy-43" fill="#000000" x="304.704446" y="313.171745" width="73.2932985" height="39.9030471"></rect>
        <rect id="Rectangle-Copy-11" fill="#000000" x="702.71489" y="357.714681" width="73.2932985" height="39.9030471"></rect>
        <rect id="Rectangle-Copy-33" fill="#000000" x="459.640912" y="357.714681" width="73.2932985" height="39.9030471"></rect>
        <rect id="Rectangle-Copy-10" fill="#000000" x="790.852401" y="357.714681" width="73.2932985" height="39.9030471"></rect>
        <rect id="Rectangle-Copy-34" fill="#000000" x="547.778423" y="357.714681" width="73.2932985" height="39.9030471"></rect>
        <rect id="Rectangle-Copy-21" fill="#000000" x="951.355447" y="357.714681" width="73.2932985" height="39.9030471"></rect>
        <rect id="Rectangle-Copy-44" fill="#000000" x="304.704446" y="357.714681" width="73.2932985" height="39.9030471"></rect>
        <rect id="Rectangle-Copy-13" fill="#000000" x="702.71489" y="402.257618" width="73.2932985" height="39.9030471"></rect>
        <rect id="Rectangle-Copy-35" fill="#000000" x="459.640912" y="402.257618" width="73.2932985" height="39.9030471"></rect>
        <rect id="Rectangle-Copy-12" fill="#000000" x="790.852401" y="402.257618" width="73.2932985" height="39.9030471"></rect>
        <rect id="Rectangle-Copy-36" fill="#000000" x="547.778423" y="402.257618" width="73.2932985" height="39.9030471"></rect>
        <rect id="Rectangle-Copy-22" fill="#000000" x="951.355447" y="402.257618" width="73.2932985" height="39.9030471"></rect>
        <rect id="Rectangle-Copy-45" fill="#000000" x="304.704446" y="402.257618" width="73.2932985" height="39.9030471"></rect>
        <rect id="Rectangle-Copy-15" fill="#000000" x="702.71489" y="446.800554" width="73.2932985" height="39.9030471"></rect>
        <rect id="Rectangle-Copy-37" fill="#000000" x="459.640912" y="446.800554" width="73.2932985" height="39.9030471"></rect>
        <rect id="Rectangle-Copy-14" fill="#000000" x="790.852401" y="446.800554" width="73.2932985" height="39.9030471"></rect>
        <rect id="Rectangle-Copy-38" fill="#000000" x="547.778423" y="446.800554" width="73.2932985" height="39.9030471"></rect>
        <rect id="Rectangle-Copy-23" fill="#000000" x="951.355447" y="446.800554" width="73.2932985" height="39.9030471"></rect>
        <rect id="Rectangle-Copy-46" fill="#000000" x="304.704446" y="446.800554" width="73.2932985" height="39.9030471"></rect>
        <rect id="Rectangle-Copy-60" fill="#000000" x="304.704446" y="491.34349" width="73.2932985" height="39.9030471"></rect>
        <rect id="Rectangle" fill="#000000" x="80" y="269" width="33.3994778" height="262.617729" rx="16.6997389"></rect>
        <path d="M68.6704102,407.42041 C69.449707,407.42041 70.2033691,407.304199 70.9313965,407.071777 C71.6594238,406.839355 72.3190918,406.518066 72.9104004,406.10791 C73.501709,405.697754 74.052002,405.214111 74.5612793,404.656982 C75.0705566,404.099854 75.5131836,403.496582 75.8891602,402.847168 C76.2651367,402.197754 76.5881348,401.520996 76.8581543,400.816895 C77.1281738,400.112793 77.329834,399.401855 77.4631348,398.684082 C77.5964355,397.966309 77.6630859,397.265625 77.6630859,396.582031 C77.6630859,395.132812 77.2717285,393.986084 76.4890137,393.141846 C75.7062988,392.297607 74.5834961,391.875488 73.1206055,391.875488 C71.3842773,391.875488 69.8530273,392.379639 68.5268555,393.387939 C67.2006836,394.39624 66.1787109,395.782227 65.4609375,397.545898 L65.4609375,397.545898 L67.050293,397.545898 C68.4243164,394.606445 70.3144531,393.136719 72.7207031,393.136719 C73.8486328,393.136719 74.6843262,393.461426 75.2277832,394.11084 C75.7712402,394.760254 76.0429688,395.648926 76.0429688,396.776855 C76.0429688,397.412598 75.9438477,398.161133 75.7456055,399.022461 L75.7456055,399.022461 L68.793457,399.022461 L68.3935547,400.283691 L75.3867188,400.283691 C75.0996094,401.117676 74.7509766,401.881592 74.3408203,402.575439 C73.9306641,403.269287 73.4572754,403.887939 72.9206543,404.431396 C72.3840332,404.974854 71.7687988,405.398682 71.0749512,405.702881 C70.3811035,406.00708 69.6411133,406.15918 68.8549805,406.15918 C67.7338867,406.15918 66.8981934,405.875488 66.3479004,405.308105 C65.7976074,404.740723 65.5224609,403.940918 65.5224609,402.908691 C65.5224609,402.580566 65.5566406,402.194336 65.625,401.75 L65.625,401.75 L64.0664062,401.75 C63.984375,402.214844 63.9433594,402.655762 63.9433594,403.072754 C63.9433594,404.42627 64.3671875,405.489258 65.2148438,406.261719 C66.0625,407.03418 67.2143555,407.42041 68.6704102,407.42041 Z M79.3344727,407 L80.8725586,401.98584 L84.5229492,399.104492 L86.0507812,407 L87.7119141,407 L85.7841797,398.120117 L93.1772461,392.295898 L91.1777344,392.295898 L81.4365234,400.088867 L83.8256836,392.295898 L82.2568359,392.295898 L77.7553711,407 L79.3344727,407 Z M92.644043,407 L94.8691406,399.750488 L99.0527344,399.750488 C99.8867188,399.750488 100.638672,399.64624 101.308594,399.437744 C101.978516,399.229248 102.523682,398.960938 102.944092,398.632812 C103.364502,398.304688 103.716553,397.923584 104.000244,397.489502 C104.283936,397.05542 104.482178,396.628174 104.594971,396.207764 C104.707764,395.787354 104.76416,395.365234 104.76416,394.941406 C104.76416,394.175781 104.485596,393.543457 103.928467,393.044434 C103.371338,392.54541 102.508301,392.295898 101.339355,392.295898 L101.339355,392.295898 L95.5664062,392.295898 L91.0649414,407 L92.644043,407 Z M99.2783203,398.499512 L95.2485352,398.499512 L96.7353516,393.557129 L101.000977,393.557129 C101.780273,393.557129 102.352783,393.700684 102.718506,393.987793 C103.084229,394.274902 103.26709,394.671387 103.26709,395.177246 C103.26709,396.147949 102.927002,396.944336 102.246826,397.566406 C101.56665,398.188477 100.577148,398.499512 99.2783203,398.499512 L99.2783203,398.499512 Z M103.441406,407 L106.209961,402.908691 L112.885254,402.908691 L113.141602,407 L114.669434,407 L113.705566,392.295898 L112.003418,392.295898 L101.821289,407 L103.441406,407 Z M112.803223,401.647461 L107.071289,401.647461 L112.321289,393.977539 L112.803223,401.647461 Z M118.555664,407 L120.69873,399.96582 L127.650879,399.96582 L125.507812,407 L127.086914,407 L131.578125,392.295898 L129.999023,392.295898 L128.030273,398.70459 L121.078125,398.70459 L123.046875,392.295898 L121.478027,392.295898 L116.976562,407 L118.555664,407 Z" id="ЭКРАН" fill="#FFFFFF" fill-rule="nonzero" transform="translate(97.760742, 399.647949) rotate(-90.000000) translate(-97.760742, -399.647949) "></path>
        <path d="M195.150391,561 L199.672363,546.295898 L198.093262,546.295898 L193.981445,559.73877 L189.356934,559.73877 L193.479004,546.295898 L191.899902,546.295898 L187.788086,559.73877 L183.163574,559.73877 L187.275391,546.295898 L185.706543,546.295898 L181.205078,561 L195.150391,561 Z M208.470215,561 L208.870117,559.73877 L200.677246,559.73877 L202.440918,553.96582 L208.634277,553.96582 L209.013672,552.70459 L202.820312,552.70459 L204.38916,547.557129 L212.582031,547.557129 L212.981934,546.295898 L203.220215,546.295898 L198.71875,561 L208.470215,561 Z M215.894043,561.42041 C217.008301,561.42041 218.026855,561.266602 218.949707,560.958984 C219.872559,560.651367 220.636475,560.236084 221.241455,559.713135 C221.846436,559.190186 222.314697,558.586914 222.64624,557.90332 C222.977783,557.219727 223.143555,556.495117 223.143555,555.729492 C223.143555,555.34668 223.064941,555.004883 222.907715,554.704102 C222.750488,554.40332 222.577881,554.179443 222.389893,554.032471 C222.201904,553.885498 221.983154,553.760742 221.733643,553.658203 C221.484131,553.555664 221.311523,553.49585 221.21582,553.47876 C221.120117,553.46167 221.041504,553.449707 220.97998,553.442871 L220.97998,553.442871 L221.041504,553.227539 C222.053223,552.974609 222.914551,552.460205 223.625488,551.684326 C224.336426,550.908447 224.691895,550.072754 224.691895,549.177246 C224.691895,548.158691 224.321045,547.35376 223.579346,546.762451 C222.837646,546.171143 221.831055,545.875488 220.55957,545.875488 C218.932617,545.875488 217.509033,546.328369 216.288818,547.234131 C215.068604,548.139893 214.243164,549.296875 213.8125,550.705078 L213.8125,550.705078 L215.391602,550.705078 C215.52832,550.267578 215.735107,549.84375 216.011963,549.433594 C216.288818,549.023438 216.623779,548.644043 217.016846,548.29541 C217.409912,547.946777 217.881592,547.666504 218.431885,547.45459 C218.982178,547.242676 219.558105,547.136719 220.159668,547.136719 C221.205566,547.136719 221.964355,547.343506 222.436035,547.75708 C222.907715,548.170654 223.143555,548.705566 223.143555,549.361816 C223.143555,549.956543 223.003418,550.48291 222.723145,550.940918 C222.442871,551.398926 222.072021,551.759521 221.610596,552.022705 C221.14917,552.285889 220.650146,552.482422 220.113525,552.612305 C219.576904,552.742188 219.018066,552.807129 218.437012,552.807129 L218.437012,552.807129 L216.550293,552.807129 L216.150391,554.068359 L218.139648,554.068359 C218.761719,554.068359 219.31543,554.126465 219.800781,554.242676 C220.286133,554.358887 220.697998,554.570801 221.036377,554.878418 C221.374756,555.186035 221.543945,555.575684 221.543945,556.047363 C221.543945,557.216309 221.058594,558.193848 220.087891,558.97998 C219.117188,559.766113 217.852539,560.15918 216.293945,560.15918 C215.15918,560.15918 214.347412,559.92334 213.858643,559.45166 C213.369873,558.97998 213.125488,558.368164 213.125488,557.616211 C213.125488,557.294922 213.180176,556.953125 213.289551,556.59082 L213.289551,556.59082 L211.720703,556.59082 C211.577148,557.055664 211.505371,557.489746 211.505371,557.893066 C211.505371,558.938965 211.901855,559.78833 212.694824,560.441162 C213.487793,561.093994 214.554199,561.42041 215.894043,561.42041 Z M223.635742,561.102539 C223.881836,561.102539 224.104004,561.092285 224.302246,561.071777 C224.500488,561.05127 224.75,561 225.050781,560.917969 C225.351562,560.835938 225.631836,560.721436 225.891602,560.574463 C226.151367,560.42749 226.44873,560.217285 226.783691,559.943848 C227.118652,559.67041 227.439941,559.343994 227.747559,558.9646 C228.055176,558.585205 228.390137,558.110107 228.752441,557.539307 C229.114746,556.968506 229.463379,556.325928 229.79834,555.611572 C230.133301,554.897217 230.487061,554.05127 230.859619,553.07373 C231.232178,552.096191 231.596191,551.029785 231.95166,549.874512 L231.95166,549.874512 L232.669434,547.557129 L236.976074,547.557129 L232.854004,561 L234.433105,561 L238.924316,546.295898 L231.674805,546.295898 L230.710938,549.454102 C230.293945,550.814453 229.870117,552.039795 229.439453,553.130127 C229.008789,554.220459 228.608887,555.121094 228.239746,555.832031 C227.870605,556.542969 227.487793,557.159912 227.091309,557.682861 C226.694824,558.205811 226.346191,558.600586 226.04541,558.867188 C225.744629,559.133789 225.426758,559.345703 225.091797,559.50293 C224.756836,559.660156 224.483398,559.755859 224.271484,559.790039 C224.05957,559.824219 223.827148,559.841309 223.574219,559.841309 C223.4375,559.841309 223.304199,559.820801 223.174316,559.779785 L223.174316,559.779785 L222.794922,561 L222.907715,561.020508 C222.98291,561.041016 223.090576,561.059814 223.230713,561.076904 C223.37085,561.093994 223.505859,561.102539 223.635742,561.102539 Z M243.077148,561.42041 C244.088867,561.42041 245.071533,561.199951 246.025146,560.759033 C246.97876,560.318115 247.81958,559.730225 248.547607,558.995361 C249.275635,558.260498 249.914795,557.43335 250.465088,556.513916 C251.015381,555.594482 251.434082,554.635742 251.721191,553.637695 C252.008301,552.639648 252.151855,551.679199 252.151855,550.756348 C252.151855,549.279785 251.763916,548.097168 250.988037,547.208496 C250.212158,546.319824 249.164551,545.875488 247.845215,545.875488 C246.990723,545.875488 246.158447,546.032715 245.348389,546.347168 C244.53833,546.661621 243.808594,547.085449 243.15918,547.618652 C242.509766,548.151855 241.909912,548.773926 241.359619,549.484863 C240.809326,550.195801 240.349609,550.946045 239.980469,551.735596 C239.611328,552.525146 239.324219,553.335205 239.119141,554.165771 C238.914062,554.996338 238.811523,555.797852 238.811523,556.570312 C238.811523,558.040039 239.194336,559.21582 239.959961,560.097656 C240.725586,560.979492 241.764648,561.42041 243.077148,561.42041 Z M243.477051,560.15918 C242.472168,560.15918 241.706543,559.82251 241.180176,559.14917 C240.653809,558.47583 240.390625,557.575195 240.390625,556.447266 C240.390625,555.326172 240.597412,554.196533 241.010986,553.05835 C241.424561,551.920166 241.959473,550.92041 242.615723,550.059082 C243.271973,549.197754 244.029053,548.495361 244.886963,547.951904 C245.744873,547.408447 246.597656,547.136719 247.445312,547.136719 C248.443359,547.136719 249.207275,547.478516 249.737061,548.162109 C250.266846,548.845703 250.531738,549.758301 250.531738,550.899902 C250.531738,552.01416 250.323242,553.136963 249.90625,554.268311 C249.489258,555.399658 248.954346,556.394287 248.301514,557.252197 C247.648682,558.110107 246.891602,558.809082 246.030273,559.349121 C245.168945,559.88916 244.317871,560.15918 243.477051,560.15918 Z M253.823242,561 L255.966309,553.96582 L262.918457,553.96582 L260.775391,561 L262.354492,561 L266.845703,546.295898 L265.266602,546.295898 L263.297852,552.70459 L256.345703,552.70459 L258.314453,546.295898 L256.745605,546.295898 L252.244141,561 L253.823242,561 Z M267.471191,561 L271.5625,547.557129 L278.709473,547.557129 L279.109375,546.295898 L270.393555,546.295898 L265.89209,561 L267.471191,561 Z M278.873535,561 L289.732422,548.920898 L286.010254,561 L287.476562,561 L291.998535,546.295898 L290.521973,546.295898 L279.693848,558.375 L283.385254,546.295898 L281.918945,546.295898 L277.41748,561 L278.873535,561 Z" id="ШЕЗЛОНГИ" fill="#FFFFFF" fill-rule="nonzero"></path>
        <path d="M326.388184,672 C327.242676,672 328.013428,671.885498 328.700439,671.656494 C329.387451,671.42749 329.941162,671.136963 330.361572,670.784912 C330.781982,670.432861 331.132324,670.027832 331.412598,669.569824 C331.692871,669.111816 331.887695,668.672607 331.99707,668.252197 C332.106445,667.831787 332.161133,667.42334 332.161133,667.026855 C332.161133,666.213379 331.884277,665.560547 331.330566,665.068359 C330.776855,664.576172 329.912109,664.330078 328.736328,664.330078 L328.736328,664.330078 L324.111816,664.330078 L325.875488,658.557129 L334.283691,658.557129 L334.683594,657.295898 L324.706543,657.295898 L320.205078,672 L326.388184,672 Z M326.634277,670.73877 L322.163574,670.73877 L323.742676,665.591309 L328.418457,665.591309 C329.245605,665.591309 329.823242,665.734863 330.151367,666.021973 C330.479492,666.309082 330.643555,666.719238 330.643555,667.252441 C330.643555,667.710449 330.563232,668.144531 330.402588,668.554688 C330.241943,668.964844 330.002686,669.333984 329.684814,669.662109 C329.366943,669.990234 328.946533,670.251709 328.423584,670.446533 C327.900635,670.641357 327.304199,670.73877 326.634277,670.73877 L326.634277,670.73877 Z M333.986328,672 L336.754883,667.908691 L343.430176,667.908691 L343.686523,672 L345.214355,672 L344.250488,657.295898 L342.54834,657.295898 L332.366211,672 L333.986328,672 Z M343.348145,666.647461 L337.616211,666.647461 L342.866211,658.977539 L343.348145,666.647461 Z M346.895996,672.102539 C347.14209,672.102539 347.364258,672.092285 347.5625,672.071777 C347.760742,672.05127 348.010254,672 348.311035,671.917969 C348.611816,671.835938 348.89209,671.721436 349.151855,671.574463 C349.411621,671.42749 349.708984,671.217285 350.043945,670.943848 C350.378906,670.67041 350.700195,670.343994 351.007812,669.9646 C351.31543,669.585205 351.650391,669.110107 352.012695,668.539307 C352.375,667.968506 352.723633,667.325928 353.058594,666.611572 C353.393555,665.897217 353.747314,665.05127 354.119873,664.07373 C354.492432,663.096191 354.856445,662.029785 355.211914,660.874512 L355.211914,660.874512 L355.929688,658.557129 L360.236328,658.557129 L356.114258,672 L357.693359,672 L362.18457,657.295898 L354.935059,657.295898 L353.971191,660.454102 C353.554199,661.814453 353.130371,663.039795 352.699707,664.130127 C352.269043,665.220459 351.869141,666.121094 351.5,666.832031 C351.130859,667.542969 350.748047,668.159912 350.351562,668.682861 C349.955078,669.205811 349.606445,669.600586 349.305664,669.867188 C349.004883,670.133789 348.687012,670.345703 348.352051,670.50293 C348.01709,670.660156 347.743652,670.755859 347.531738,670.790039 C347.319824,670.824219 347.087402,670.841309 346.834473,670.841309 C346.697754,670.841309 346.564453,670.820801 346.43457,670.779785 L346.43457,670.779785 L346.055176,672 L346.167969,672.020508 C346.243164,672.041016 346.35083,672.059814 346.490967,672.076904 C346.631104,672.093994 346.766113,672.102539 346.895996,672.102539 Z M362.810059,672 L364.348145,666.98584 L367.998535,664.104492 L369.526367,672 L371.1875,672 L369.259766,663.120117 L376.652832,657.295898 L374.65332,657.295898 L364.912109,665.088867 L367.30127,657.295898 L365.732422,657.295898 L361.230957,672 L362.810059,672 Z M378.488281,672.42041 C379.5,672.42041 380.482666,672.199951 381.436279,671.759033 C382.389893,671.318115 383.230713,670.730225 383.95874,669.995361 C384.686768,669.260498 385.325928,668.43335 385.876221,667.513916 C386.426514,666.594482 386.845215,665.635742 387.132324,664.637695 C387.419434,663.639648 387.562988,662.679199 387.562988,661.756348 C387.562988,660.279785 387.175049,659.097168 386.39917,658.208496 C385.623291,657.319824 384.575684,656.875488 383.256348,656.875488 C382.401855,656.875488 381.56958,657.032715 380.759521,657.347168 C379.949463,657.661621 379.219727,658.085449 378.570312,658.618652 C377.920898,659.151855 377.321045,659.773926 376.770752,660.484863 C376.220459,661.195801 375.760742,661.946045 375.391602,662.735596 C375.022461,663.525146 374.735352,664.335205 374.530273,665.165771 C374.325195,665.996338 374.222656,666.797852 374.222656,667.570312 C374.222656,669.040039 374.605469,670.21582 375.371094,671.097656 C376.136719,671.979492 377.175781,672.42041 378.488281,672.42041 Z M378.888184,671.15918 C377.883301,671.15918 377.117676,670.82251 376.591309,670.14917 C376.064941,669.47583 375.801758,668.575195 375.801758,667.447266 C375.801758,666.326172 376.008545,665.196533 376.422119,664.05835 C376.835693,662.920166 377.370605,661.92041 378.026855,661.059082 C378.683105,660.197754 379.440186,659.495361 380.298096,658.951904 C381.156006,658.408447 382.008789,658.136719 382.856445,658.136719 C383.854492,658.136719 384.618408,658.478516 385.148193,659.162109 C385.677979,659.845703 385.942871,660.758301 385.942871,661.899902 C385.942871,663.01416 385.734375,664.136963 385.317383,665.268311 C384.900391,666.399658 384.365479,667.394287 383.712646,668.252197 C383.059814,669.110107 382.302734,669.809082 381.441406,670.349121 C380.580078,670.88916 379.729004,671.15918 378.888184,671.15918 Z M389.234375,672 L391.377441,664.96582 L398.32959,664.96582 L396.186523,672 L397.765625,672 L402.256836,657.295898 L400.677734,657.295898 L398.708984,663.70459 L391.756836,663.70459 L393.725586,657.295898 L392.156738,657.295898 L387.655273,672 L389.234375,672 Z" id="БАЛКОН" fill="#FFFFFF" fill-rule="nonzero"></path>
        <path d="M568.228516,324 L575.668945,299.674805 L588.249023,299.674805 L580.808594,324 L583.666016,324 L591.792969,297.392578 L573.516602,297.392578 L565.371094,324 L568.228516,324 Z M590.345703,324 L595.355469,316.59668 L607.43457,316.59668 L607.898438,324 L610.663086,324 L608.918945,297.392578 L605.838867,297.392578 L587.414062,324 L590.345703,324 Z M607.286133,314.314453 L596.914062,314.314453 L606.414062,300.435547 L607.286133,314.314453 Z M617.695312,324 L621.72168,310.881836 L629.291992,310.881836 C630.801107,310.881836 632.161784,310.693197 633.374023,310.315918 C634.586263,309.938639 635.572754,309.453125 636.333496,308.859375 C637.094238,308.265625 637.731283,307.576009 638.244629,306.790527 C638.757975,306.005046 639.116699,305.231934 639.320801,304.471191 C639.524902,303.710449 639.626953,302.946615 639.626953,302.179688 C639.626953,300.794271 639.122884,299.650065 638.114746,298.74707 C637.106608,297.844076 635.544922,297.392578 633.429688,297.392578 L633.429688,297.392578 L622.983398,297.392578 L614.837891,324 L617.695312,324 Z M629.700195,308.618164 L622.408203,308.618164 L625.098633,299.674805 L632.817383,299.674805 C634.227539,299.674805 635.263509,299.93457 635.925293,300.454102 C636.587077,300.973633 636.917969,301.691081 636.917969,302.606445 C636.917969,304.362956 636.302572,305.804036 635.071777,306.929688 C633.840983,308.055339 632.050456,308.618164 629.700195,308.618164 L629.700195,308.618164 Z M641.705078,324 L644.488281,314.926758 L651.09375,309.712891 L653.858398,324 L656.864258,324 L653.375977,307.931641 L666.753906,297.392578 L663.135742,297.392578 L645.508789,311.494141 L649.832031,297.392578 L646.993164,297.392578 L638.847656,324 L641.705078,324 Z M670.075195,324.760742 C671.905924,324.760742 673.684082,324.361816 675.409668,323.563965 C677.135254,322.766113 678.656738,321.702311 679.974121,320.372559 C681.291504,319.042806 682.448079,317.546061 683.443848,315.882324 C684.439616,314.218587 685.197266,312.483724 685.716797,310.677734 C686.236328,308.871745 686.496094,307.133789 686.496094,305.463867 C686.496094,302.791992 685.794108,300.652018 684.390137,299.043945 C682.986165,297.435872 681.090495,296.631836 678.703125,296.631836 C677.156901,296.631836 675.650879,296.916341 674.185059,297.485352 C672.719238,298.054362 671.398763,298.821289 670.223633,299.786133 C669.048503,300.750977 667.963053,301.876628 666.967285,303.163086 C665.971517,304.449544 665.139648,305.807129 664.47168,307.23584 C663.803711,308.664551 663.28418,310.130371 662.913086,311.633301 C662.541992,313.13623 662.356445,314.586589 662.356445,315.984375 C662.356445,318.64388 663.049154,320.771484 664.43457,322.367188 C665.819987,323.962891 667.700195,324.760742 670.075195,324.760742 Z M670.798828,322.478516 C668.980469,322.478516 667.595052,321.869303 666.642578,320.650879 C665.690104,319.432454 665.213867,317.802734 665.213867,315.761719 C665.213867,313.733073 665.588053,311.688965 666.336426,309.629395 C667.084798,307.569824 668.052734,305.760742 669.240234,304.202148 C670.427734,302.643555 671.797689,301.372559 673.350098,300.38916 C674.902507,299.405762 676.445638,298.914062 677.979492,298.914062 C679.785482,298.914062 681.167806,299.532552 682.126465,300.769531 C683.085124,302.00651 683.564453,303.657878 683.564453,305.723633 C683.564453,307.739909 683.187174,309.771647 682.432617,311.818848 C681.67806,313.866048 680.710124,315.665853 679.528809,317.218262 C678.347493,318.770671 676.977539,320.035482 675.418945,321.012695 C673.860352,321.989909 672.320312,322.478516 670.798828,322.478516 Z M696.552734,324 C700.325521,324 703.300456,323.155762 705.477539,321.467285 C707.654622,319.778809 708.743164,317.505859 708.743164,314.648438 C708.743164,314.067057 708.659668,313.532064 708.492676,313.043457 C708.325684,312.55485 708.124674,312.152832 707.889648,311.837402 C707.654622,311.521973 707.370117,311.24056 707.036133,310.993164 C706.702148,310.745768 706.399089,310.560221 706.126953,310.436523 C705.854818,310.312826 705.570312,310.207682 705.273438,310.121094 C704.976562,310.034505 704.775553,309.981934 704.67041,309.963379 C704.565267,309.944824 704.481771,309.935547 704.419922,309.935547 L704.419922,309.935547 L704.53125,309.564453 C706.572266,309.16862 708.254557,308.324382 709.578125,307.031738 C710.901693,305.739095 711.563477,304.177409 711.563477,302.34668 C711.563477,300.676758 710.907878,299.433594 709.59668,298.617188 C708.285482,297.800781 706.460938,297.392578 704.123047,297.392578 L704.123047,297.392578 L694.808594,297.392578 L686.663086,324 L696.552734,324 Z M700.541992,308.989258 L694.084961,308.989258 L696.923828,299.674805 L703.399414,299.674805 C705.155924,299.674805 706.498047,299.912923 707.425781,300.38916 C708.353516,300.865397 708.817383,301.703451 708.817383,302.90332 C708.817383,303.744466 708.653483,304.514486 708.325684,305.213379 C707.997884,305.912272 707.564941,306.49056 707.026855,306.948242 C706.48877,307.405924 705.85791,307.79248 705.134277,308.10791 C704.410645,308.42334 703.665365,308.649089 702.898438,308.785156 C702.13151,308.921224 701.346029,308.989258 700.541992,308.989258 L700.541992,308.989258 Z M697.424805,321.717773 L690.207031,321.717773 L693.398438,311.271484 L700.616211,311.271484 C702.496419,311.271484 703.866374,311.571452 704.726074,312.171387 C705.585775,312.771322 706.015625,313.714518 706.015625,315.000977 C706.015625,317.004883 705.254883,318.625326 703.733398,319.862305 C702.211914,321.099284 700.109049,321.717773 697.424805,321.717773 L697.424805,321.717773 Z M714.402344,324 L717.185547,314.926758 L723.791016,309.712891 L726.555664,324 L729.561523,324 L726.073242,307.931641 L739.451172,297.392578 L735.833008,297.392578 L718.206055,311.494141 L722.529297,297.392578 L719.69043,297.392578 L711.544922,324 L714.402344,324 Z M735.146484,324 L740.15625,316.59668 L752.235352,316.59668 L752.699219,324 L755.463867,324 L753.719727,297.392578 L750.639648,297.392578 L732.214844,324 L735.146484,324 Z M752.086914,314.314453 L741.714844,314.314453 L751.214844,300.435547 L752.086914,314.314453 Z" id="ПАРКОВКА" fill="#FFFFFF" fill-rule="nonzero" transform="translate(660.417480, 310.696289) rotate(-90.000000) translate(-660.417480, -310.696289) "></path>
        <path d="M1085.38818,377 C1086.24268,377 1087.01343,376.885498 1087.70044,376.656494 C1088.38745,376.42749 1088.94116,376.136963 1089.36157,375.784912 C1089.78198,375.432861 1090.13232,375.027832 1090.4126,374.569824 C1090.69287,374.111816 1090.8877,373.672607 1090.99707,373.252197 C1091.10645,372.831787 1091.16113,372.42334 1091.16113,372.026855 C1091.16113,371.213379 1090.88428,370.560547 1090.33057,370.068359 C1089.77686,369.576172 1088.91211,369.330078 1087.73633,369.330078 L1087.73633,369.330078 L1083.11182,369.330078 L1084.87549,363.557129 L1093.28369,363.557129 L1093.68359,362.295898 L1083.70654,362.295898 L1079.20508,377 L1085.38818,377 Z M1085.63428,375.73877 L1081.16357,375.73877 L1082.74268,370.591309 L1087.41846,370.591309 C1088.24561,370.591309 1088.82324,370.734863 1089.15137,371.021973 C1089.47949,371.309082 1089.64355,371.719238 1089.64355,372.252441 C1089.64355,372.710449 1089.56323,373.144531 1089.40259,373.554688 C1089.24194,373.964844 1089.00269,374.333984 1088.68481,374.662109 C1088.36694,374.990234 1087.94653,375.251709 1087.42358,375.446533 C1086.90063,375.641357 1086.3042,375.73877 1085.63428,375.73877 L1085.63428,375.73877 Z M1092.98633,377 L1095.75488,372.908691 L1102.43018,372.908691 L1102.68652,377 L1104.21436,377 L1103.25049,362.295898 L1101.54834,362.295898 L1091.36621,377 L1092.98633,377 Z M1102.34814,371.647461 L1096.61621,371.647461 L1101.86621,363.977539 L1102.34814,371.647461 Z M1108.10059,377 L1110.32568,369.750488 L1114.50928,369.750488 C1115.34326,369.750488 1116.09521,369.64624 1116.76514,369.437744 C1117.43506,369.229248 1117.98022,368.960938 1118.40063,368.632812 C1118.82104,368.304688 1119.1731,367.923584 1119.45679,367.489502 C1119.74048,367.05542 1119.93872,366.628174 1120.05151,366.207764 C1120.16431,365.787354 1120.2207,365.365234 1120.2207,364.941406 C1120.2207,364.175781 1119.94214,363.543457 1119.38501,363.044434 C1118.82788,362.54541 1117.96484,362.295898 1116.7959,362.295898 L1116.7959,362.295898 L1111.02295,362.295898 L1106.52148,377 L1108.10059,377 Z M1114.73486,368.499512 L1110.70508,368.499512 L1112.19189,363.557129 L1116.45752,363.557129 C1117.23682,363.557129 1117.80933,363.700684 1118.17505,363.987793 C1118.54077,364.274902 1118.72363,364.671387 1118.72363,365.177246 C1118.72363,366.147949 1118.38354,366.944336 1117.70337,367.566406 C1117.02319,368.188477 1116.03369,368.499512 1114.73486,368.499512 L1114.73486,368.499512 Z" id="БАР" fill="#FFFFFF" fill-rule="nonzero"></path>
    </g>
</svg>