<?xml version="1.0" encoding="UTF-8"?>
<svg width="1200px" height="800px" viewBox="0 0 1200 800" version="1.1" xmlns="http://www.w3.org/2000/svg" xmlns:xlink="http://www.w3.org/1999/xlink">
    <title>WRS Copy 7</title>
    <g id="WRS-Copy-7" stroke="none" stroke-width="1" fill="none" fill-rule="evenodd">
        <rect fill="#000000" x="0" y="0" width="1200" height="800"></rect>
        <rect id="Rectangle" stroke="#FFFFFF" x="703.21489" y="135.5" width="72.2932985" height="38.9030471"></rect>
        <rect id="Rectangle-Copy-2" stroke="#FFFFFF" x="703.21489" y="180.042936" width="72.2932985" height="38.9030471"></rect>
        <rect id="Rectangle-Copy-24" stroke="#FFFFFF" x="460.140912" y="180.042936" width="72.2932985" height="38.9030471"></rect>
        <rect id="Rectangle" stroke="#FFFFFF" x="195.72838" y="519.682825" width="21.2663185" height="11.0637119"></rect>
        <rect id="Rectangle-Copy-61" stroke="#FFFFFF" x="225.416804" y="519.682825" width="21.2663185" height="11.0637119"></rect>
        <rect id="Rectangle-Copy-40" stroke="#FFFFFF" x="195.72838" y="502.979224" width="21.2663185" height="11.0637119"></rect>
        <rect id="Rectangle-Copy-62" stroke="#FFFFFF" x="225.416804" y="502.979224" width="21.2663185" height="11.0637119"></rect>
        <rect id="Rectangle-Copy-41" stroke="#FFFFFF" x="195.72838" y="486.275623" width="21.2663185" height="11.0637119"></rect>
        <rect id="Rectangle-Copy-63" stroke="#FFFFFF" x="225.416804" y="486.275623" width="21.2663185" height="11.0637119"></rect>
        <rect id="Rectangle-Copy-47" stroke="#FFFFFF" x="195.72838" y="469.572022" width="21.2663185" height="11.0637119"></rect>
        <rect id="Rectangle-Copy-64" stroke="#FFFFFF" x="225.416804" y="469.572022" width="21.2663185" height="11.0637119"></rect>
        <rect id="Rectangle-Copy-48" stroke="#FFFFFF" x="195.72838" y="452.868421" width="21.2663185" height="11.0637119"></rect>
        <rect id="Rectangle-Copy-65" stroke="#FFFFFF" x="225.416804" y="452.868421" width="21.2663185" height="11.0637119"></rect>
        <rect id="Rectangle-Copy-49" stroke="#FFFFFF" x="195.72838" y="436.16482" width="21.2663185" height="11.0637119"></rect>
        <rect id="Rectangle-Copy-66" stroke="#FFFFFF" x="225.416804" y="436.16482" width="21.2663185" height="11.0637119"></rect>
        <rect id="Rectangle-Copy-50" stroke="#FFFFFF" x="195.72838" y="419.461219" width="21.2663185" height="11.0637119"></rect>
        <rect id="Rectangle-Copy-67" stroke="#FFFFFF" x="225.416804" y="419.461219" width="21.2663185" height="11.0637119"></rect>
        <rect id="Rectangle-Copy-51" stroke="#FFFFFF" x="195.72838" y="402.757618" width="21.2663185" height="11.0637119"></rect>
        <rect id="Rectangle-Copy-68" stroke="#FFFFFF" x="225.416804" y="402.757618" width="21.2663185" height="11.0637119"></rect>
        <rect id="Rectangle-Copy-52" stroke="#FFFFFF" x="195.72838" y="386.054017" width="21.2663185" height="11.0637119"></rect>
        <rect id="Rectangle-Copy-69" stroke="#FFFFFF" x="225.416804" y="386.054017" width="21.2663185" height="11.0637119"></rect>
        <rect id="Rectangle-Copy-53" stroke="#FFFFFF" x="195.72838" y="369.350416" width="21.2663185" height="11.0637119"></rect>
        <rect id="Rectangle-Copy-70" stroke="#FFFFFF" x="225.416804" y="369.350416" width="21.2663185" height="11.0637119"></rect>
        <rect id="Rectangle-Copy-54" stroke="#FFFFFF" x="195.72838" y="352.646814" width="21.2663185" height="11.0637119"></rect>
        <rect id="Rectangle-Copy-71" stroke="#FFFFFF" x="225.416804" y="352.646814" width="21.2663185" height="11.0637119"></rect>
        <rect id="Rectangle-Copy-55" stroke="#FFFFFF" x="195.72838" y="335.943213" width="21.2663185" height="11.0637119"></rect>
        <rect id="Rectangle-Copy-72" stroke="#FFFFFF" x="225.416804" y="335.943213" width="21.2663185" height="11.0637119"></rect>
        <rect id="Rectangle-Copy-56" stroke="#FFFFFF" x="195.72838" y="319.239612" width="21.2663185" height="11.0637119"></rect>
        <rect id="Rectangle-Copy-73" stroke="#FFFFFF" x="225.416804" y="319.239612" width="21.2663185" height="11.0637119"></rect>
        <rect id="Rectangle-Copy-57" stroke="#FFFFFF" x="195.72838" y="302.536011" width="21.2663185" height="11.0637119"></rect>
        <rect id="Rectangle-Copy-74" stroke="#FFFFFF" x="225.416804" y="302.536011" width="21.2663185" height="11.0637119"></rect>
        <rect id="Rectangle-Copy-58" stroke="#FFFFFF" x="195.72838" y="285.83241" width="21.2663185" height="11.0637119"></rect>
        <rect id="Rectangle-Copy-75" stroke="#FFFFFF" x="225.416804" y="285.83241" width="21.2663185" height="11.0637119"></rect>
        <rect id="Rectangle-Copy-59" stroke="#FFFFFF" x="195.72838" y="269.128809" width="21.2663185" height="11.0637119"></rect>
        <rect id="Rectangle-Copy-76" stroke="#FFFFFF" x="225.416804" y="269.128809" width="21.2663185" height="11.0637119"></rect>
        <rect id="Rectangle-Copy-92" stroke="#FFFFFF" x="255.105229" y="519.682825" width="21.2663185" height="11.0637119"></rect>
        <rect id="Rectangle-Copy-91" stroke="#FFFFFF" x="255.105229" y="502.979224" width="21.2663185" height="11.0637119"></rect>
        <rect id="Rectangle-Copy-90" stroke="#FFFFFF" x="255.105229" y="486.275623" width="21.2663185" height="11.0637119"></rect>
        <rect id="Rectangle-Copy-89" stroke="#FFFFFF" x="255.105229" y="469.572022" width="21.2663185" height="11.0637119"></rect>
        <rect id="Rectangle-Copy-88" stroke="#FFFFFF" x="255.105229" y="452.868421" width="21.2663185" height="11.0637119"></rect>
        <rect id="Rectangle-Copy-87" stroke="#FFFFFF" x="255.105229" y="436.16482" width="21.2663185" height="11.0637119"></rect>
        <rect id="Rectangle-Copy-86" stroke="#FFFFFF" x="255.105229" y="419.461219" width="21.2663185" height="11.0637119"></rect>
        <rect id="Rectangle-Copy-85" stroke="#FFFFFF" x="255.105229" y="402.757618" width="21.2663185" height="11.0637119"></rect>
        <rect id="Rectangle-Copy-84" stroke="#FFFFFF" x="255.105229" y="386.054017" width="21.2663185" height="11.0637119"></rect>
        <rect id="Rectangle-Copy-83" stroke="#FFFFFF" x="255.105229" y="369.350416" width="21.2663185" height="11.0637119"></rect>
        <rect id="Rectangle-Copy-82" stroke="#FFFFFF" x="255.105229" y="352.646814" width="21.2663185" height="11.0637119"></rect>
        <rect id="Rectangle-Copy-81" stroke="#FFFFFF" x="255.105229" y="335.943213" width="21.2663185" height="11.0637119"></rect>
        <rect id="Rectangle-Copy-80" stroke="#FFFFFF" x="255.105229" y="319.239612" width="21.2663185" height="11.0637119"></rect>
        <rect id="Rectangle-Copy-79" stroke="#FFFFFF" x="255.105229" y="302.536011" width="21.2663185" height="11.0637119"></rect>
        <rect id="Rectangle-Copy-78" stroke="#FFFFFF" x="255.105229" y="285.83241" width="21.2663185" height="11.0637119"></rect>
        <rect id="Rectangle-Copy-77" stroke="#FFFFFF" x="255.105229" y="269.128809" width="21.2663185" height="11.0637119"></rect>
        <rect id="Rectangle-Copy-99" stroke="#FFFFFF" x="1058.54822" y="335.943213" width="21.2663185" height="11.0637119"></rect>
        <rect id="Rectangle-Copy-125" stroke="#FFFFFF" x="304.276683" y="793.436288" width="21.2663185" height="11.0637119"></rect>
        <rect id="Rectangle-Copy-100" stroke="#FFFFFF" x="1088.23665" y="335.943213" width="21.2663185" height="11.0637119"></rect>
        <rect id="Rectangle-Copy-126" stroke="#FFFFFF" x="333.965107" y="793.436288" width="21.2663185" height="11.0637119"></rect>
        <rect id="Rectangle-Copy-101" stroke="#FFFFFF" x="1058.54822" y="319.239612" width="21.2663185" height="11.0637119"></rect>
        <rect id="Rectangle-Copy-127" stroke="#FFFFFF" x="304.276683" y="776.732687" width="21.2663185" height="11.0637119"></rect>
        <rect id="Rectangle-Copy-102" stroke="#FFFFFF" x="1088.23665" y="319.239612" width="21.2663185" height="11.0637119"></rect>
        <rect id="Rectangle-Copy-141" stroke="#FFFFFF" x="333.965107" y="776.732687" width="21.2663185" height="11.0637119"></rect>
        <rect id="Rectangle-Copy-103" stroke="#FFFFFF" x="1058.54822" y="302.536011" width="21.2663185" height="11.0637119"></rect>
        <rect id="Rectangle-Copy-142" stroke="#FFFFFF" x="304.276683" y="760.029086" width="21.2663185" height="11.0637119"></rect>
        <rect id="Rectangle-Copy-104" stroke="#FFFFFF" x="1088.23665" y="302.536011" width="21.2663185" height="11.0637119"></rect>
        <rect id="Rectangle-Copy-143" stroke="#FFFFFF" x="333.965107" y="760.029086" width="21.2663185" height="11.0637119"></rect>
        <rect id="Rectangle-Copy-105" stroke="#FFFFFF" x="1058.54822" y="285.83241" width="21.2663185" height="11.0637119"></rect>
        <rect id="Rectangle-Copy-144" stroke="#FFFFFF" x="304.276683" y="743.325485" width="21.2663185" height="11.0637119"></rect>
        <rect id="Rectangle-Copy-106" stroke="#FFFFFF" x="1088.23665" y="285.83241" width="21.2663185" height="11.0637119"></rect>
        <rect id="Rectangle-Copy-145" stroke="#FFFFFF" x="333.965107" y="743.325485" width="21.2663185" height="11.0637119"></rect>
        <rect id="Rectangle-Copy-107" stroke="#FFFFFF" x="1058.54822" y="269.128809" width="21.2663185" height="11.0637119"></rect>
        <rect id="Rectangle-Copy-146" stroke="#FFFFFF" x="304.276683" y="726.621884" width="21.2663185" height="11.0637119"></rect>
        <rect id="Rectangle-Copy-108" stroke="#FFFFFF" x="1088.23665" y="269.128809" width="21.2663185" height="11.0637119"></rect>
        <rect id="Rectangle-Copy-147" stroke="#FFFFFF" x="333.965107" y="726.621884" width="21.2663185" height="11.0637119"></rect>
        <rect id="Rectangle-Copy-109" stroke="#FFFFFF" x="1058.54822" y="252.425208" width="21.2663185" height="11.0637119"></rect>
        <rect id="Rectangle-Copy-148" stroke="#FFFFFF" x="304.276683" y="709.918283" width="21.2663185" height="11.0637119"></rect>
        <rect id="Rectangle-Copy-110" stroke="#FFFFFF" x="1088.23665" y="252.425208" width="21.2663185" height="11.0637119"></rect>
        <rect id="Rectangle-Copy-149" stroke="#FFFFFF" x="333.965107" y="709.918283" width="21.2663185" height="11.0637119"></rect>
        <rect id="Rectangle-Copy-111" stroke="#FFFFFF" x="1058.54822" y="235.721607" width="21.2663185" height="11.0637119"></rect>
        <rect id="Rectangle-Copy-150" stroke="#FFFFFF" x="304.276683" y="693.214681" width="21.2663185" height="11.0637119"></rect>
        <rect id="Rectangle-Copy-112" stroke="#FFFFFF" x="1088.23665" y="235.721607" width="21.2663185" height="11.0637119"></rect>
        <rect id="Rectangle-Copy-151" stroke="#FFFFFF" x="333.965107" y="693.214681" width="21.2663185" height="11.0637119"></rect>
        <rect id="Rectangle-Copy-113" stroke="#FFFFFF" x="1058.54822" y="219.018006" width="21.2663185" height="11.0637119"></rect>
        <rect id="Rectangle-Copy-114" stroke="#FFFFFF" x="1088.23665" y="219.018006" width="21.2663185" height="11.0637119"></rect>
        <rect id="Rectangle-Copy-115" stroke="#FFFFFF" x="1058.54822" y="202.314404" width="21.2663185" height="11.0637119"></rect>
        <rect id="Rectangle-Copy-116" stroke="#FFFFFF" x="1088.23665" y="202.314404" width="21.2663185" height="11.0637119"></rect>
        <rect id="Rectangle-Copy-117" stroke="#FFFFFF" x="1058.54822" y="185.610803" width="21.2663185" height="11.0637119"></rect>
        <rect id="Rectangle-Copy-118" stroke="#FFFFFF" x="1088.23665" y="185.610803" width="21.2663185" height="11.0637119"></rect>
        <rect id="Rectangle-Copy-119" stroke="#FFFFFF" x="1058.54822" y="168.907202" width="21.2663185" height="11.0637119"></rect>
        <rect id="Rectangle-Copy-120" stroke="#FFFFFF" x="1088.23665" y="168.907202" width="21.2663185" height="11.0637119"></rect>
        <rect id="Rectangle-Copy-121" stroke="#FFFFFF" x="1058.54822" y="152.203601" width="21.2663185" height="11.0637119"></rect>
        <rect id="Rectangle-Copy-122" stroke="#FFFFFF" x="1088.23665" y="152.203601" width="21.2663185" height="11.0637119"></rect>
        <rect id="Rectangle-Copy-123" stroke="#FFFFFF" x="1058.54822" y="135.5" width="21.2663185" height="11.0637119"></rect>
        <rect id="Rectangle-Copy-124" stroke="#FFFFFF" x="1088.23665" y="135.5" width="21.2663185" height="11.0637119"></rect>
        <rect id="Rectangle-Copy-128" stroke="#FFFFFF" x="1117.92507" y="335.943213" width="21.2663185" height="11.0637119"></rect>
        <rect id="Rectangle-Copy-164" stroke="#FFFFFF" x="363.653532" y="793.436288" width="21.2663185" height="11.0637119"></rect>
        <rect id="Rectangle-Copy-171" stroke="#FFFFFF" x="393.341957" y="793.436288" width="21.2663185" height="11.0637119"></rect>
        <rect id="Rectangle-Copy-129" stroke="#FFFFFF" x="1117.92507" y="319.239612" width="21.2663185" height="11.0637119"></rect>
        <rect id="Rectangle-Copy-165" stroke="#FFFFFF" x="363.653532" y="776.732687" width="21.2663185" height="11.0637119"></rect>
        <rect id="Rectangle-Copy-172" stroke="#FFFFFF" x="393.341957" y="776.732687" width="21.2663185" height="11.0637119"></rect>
        <rect id="Rectangle-Copy-130" stroke="#FFFFFF" x="1117.92507" y="302.536011" width="21.2663185" height="11.0637119"></rect>
        <rect id="Rectangle-Copy-166" stroke="#FFFFFF" x="363.653532" y="760.029086" width="21.2663185" height="11.0637119"></rect>
        <rect id="Rectangle-Copy-173" stroke="#FFFFFF" x="393.341957" y="760.029086" width="21.2663185" height="11.0637119"></rect>
        <rect id="Rectangle-Copy-131" stroke="#FFFFFF" x="1117.92507" y="285.83241" width="21.2663185" height="11.0637119"></rect>
        <rect id="Rectangle-Copy-167" stroke="#FFFFFF" x="363.653532" y="743.325485" width="21.2663185" height="11.0637119"></rect>
        <rect id="Rectangle-Copy-174" stroke="#FFFFFF" x="393.341957" y="743.325485" width="21.2663185" height="11.0637119"></rect>
        <rect id="Rectangle-Copy-132" stroke="#FFFFFF" x="1117.92507" y="269.128809" width="21.2663185" height="11.0637119"></rect>
        <rect id="Rectangle-Copy-168" stroke="#FFFFFF" x="363.653532" y="726.621884" width="21.2663185" height="11.0637119"></rect>
        <rect id="Rectangle-Copy-175" stroke="#FFFFFF" x="393.341957" y="726.621884" width="21.2663185" height="11.0637119"></rect>
        <rect id="Rectangle-Copy-133" stroke="#FFFFFF" x="1117.92507" y="252.425208" width="21.2663185" height="11.0637119"></rect>
        <rect id="Rectangle-Copy-169" stroke="#FFFFFF" x="363.653532" y="709.918283" width="21.2663185" height="11.0637119"></rect>
        <rect id="Rectangle-Copy-176" stroke="#FFFFFF" x="393.341957" y="709.918283" width="21.2663185" height="11.0637119"></rect>
        <rect id="Rectangle-Copy-134" stroke="#FFFFFF" x="1117.92507" y="235.721607" width="21.2663185" height="11.0637119"></rect>
        <rect id="Rectangle-Copy-170" stroke="#FFFFFF" x="363.653532" y="693.214681" width="21.2663185" height="11.0637119"></rect>
        <rect id="Rectangle-Copy-177" stroke="#FFFFFF" x="393.341957" y="693.214681" width="21.2663185" height="11.0637119"></rect>
        <rect id="Rectangle-Copy-135" stroke="#FFFFFF" x="1117.92507" y="219.018006" width="21.2663185" height="11.0637119"></rect>
        <rect id="Rectangle-Copy-136" stroke="#FFFFFF" x="1117.92507" y="202.314404" width="21.2663185" height="11.0637119"></rect>
        <rect id="Rectangle-Copy-137" stroke="#FFFFFF" x="1117.92507" y="185.610803" width="21.2663185" height="11.0637119"></rect>
        <rect id="Rectangle-Copy-138" stroke="#FFFFFF" x="1117.92507" y="168.907202" width="21.2663185" height="11.0637119"></rect>
        <rect id="Rectangle-Copy-139" stroke="#FFFFFF" x="1117.92507" y="152.203601" width="21.2663185" height="11.0637119"></rect>
        <rect id="Rectangle-Copy-140" stroke="#FFFFFF" x="1117.92507" y="135.5" width="21.2663185" height="11.0637119"></rect>
        <rect id="Rectangle-Copy" stroke="#FFFFFF" x="791.352401" y="135.5" width="72.2932985" height="38.9030471"></rect>
        <rect id="Rectangle-Copy-25" stroke="#FFFFFF" x="548.278423" y="135.5" width="72.2932985" height="38.9030471"></rect>
        <rect id="Rectangle-Copy-39" stroke="#FFFFFF" x="460.140912" y="135.5" width="72.2932985" height="38.9030471"></rect>
        <rect id="Rectangle-Copy-16" stroke="#FFFFFF" x="951.855447" y="135.5" width="72.2932985" height="38.9030471"></rect>
        <rect id="Rectangle-Copy-3" stroke="#FFFFFF" x="791.352401" y="180.042936" width="72.2932985" height="38.9030471"></rect>
        <rect id="Rectangle-Copy-26" stroke="#FFFFFF" x="548.278423" y="180.042936" width="72.2932985" height="38.9030471"></rect>
        <rect id="Rectangle-Copy-17" stroke="#FFFFFF" x="951.855447" y="180.042936" width="72.2932985" height="38.9030471"></rect>
        <rect id="Rectangle-Copy-5" stroke="#FFFFFF" x="703.21489" y="224.585873" width="72.2932985" height="38.9030471"></rect>
        <rect id="Rectangle-Copy-27" stroke="#FFFFFF" x="460.140912" y="224.585873" width="72.2932985" height="38.9030471"></rect>
        <rect id="Rectangle-Copy-4" stroke="#FFFFFF" x="791.352401" y="224.585873" width="72.2932985" height="38.9030471"></rect>
        <rect id="Rectangle-Copy-28" stroke="#FFFFFF" x="548.278423" y="224.585873" width="72.2932985" height="38.9030471"></rect>
        <rect id="Rectangle-Copy-18" stroke="#FFFFFF" x="951.855447" y="224.585873" width="72.2932985" height="38.9030471"></rect>
        <rect id="Rectangle-Copy-7" stroke="#FFFFFF" x="703.21489" y="269.128809" width="72.2932985" height="38.9030471"></rect>
        <rect id="Rectangle-Copy-29" stroke="#FFFFFF" x="460.140912" y="269.128809" width="72.2932985" height="38.9030471"></rect>
        <rect id="Rectangle-Copy-6" stroke="#FFFFFF" x="791.352401" y="269.128809" width="72.2932985" height="38.9030471"></rect>
        <rect id="Rectangle-Copy-30" stroke="#FFFFFF" x="548.278423" y="269.128809" width="72.2932985" height="38.9030471"></rect>
        <rect id="Rectangle-Copy-19" stroke="#FFFFFF" x="951.855447" y="269.128809" width="72.2932985" height="38.9030471"></rect>
        <rect id="Rectangle-Copy-42" stroke="#FFFFFF" x="305.204446" y="269.128809" width="72.2932985" height="38.9030471"></rect>
        <rect id="Rectangle-Copy-9" stroke="#FFFFFF" x="703.21489" y="313.671745" width="72.2932985" height="38.9030471"></rect>
        <rect id="Rectangle-Copy-31" stroke="#FFFFFF" x="460.140912" y="313.671745" width="72.2932985" height="38.9030471"></rect>
        <rect id="Rectangle-Copy-8" stroke="#FFFFFF" x="791.352401" y="313.671745" width="72.2932985" height="38.9030471"></rect>
        <rect id="Rectangle-Copy-32" stroke="#FFFFFF" x="548.278423" y="313.671745" width="72.2932985" height="38.9030471"></rect>
        <rect id="Rectangle-Copy-20" stroke="#FFFFFF" x="951.855447" y="313.671745" width="72.2932985" height="38.9030471"></rect>
        <rect id="Rectangle-Copy-43" stroke="#FFFFFF" x="305.204446" y="313.671745" width="72.2932985" height="38.9030471"></rect>
        <rect id="Rectangle-Copy-11" stroke="#FFFFFF" x="703.21489" y="358.214681" width="72.2932985" height="38.9030471"></rect>
        <rect id="Rectangle-Copy-33" stroke="#FFFFFF" x="460.140912" y="358.214681" width="72.2932985" height="38.9030471"></rect>
        <rect id="Rectangle-Copy-10" stroke="#FFFFFF" x="791.352401" y="358.214681" width="72.2932985" height="38.9030471"></rect>
        <rect id="Rectangle-Copy-34" stroke="#FFFFFF" x="548.278423" y="358.214681" width="72.2932985" height="38.9030471"></rect>
        <rect id="Rectangle-Copy-21" stroke="#FFFFFF" x="951.855447" y="358.214681" width="72.2932985" height="38.9030471"></rect>
        <rect id="Rectangle-Copy-44" stroke="#FFFFFF" x="305.204446" y="358.214681" width="72.2932985" height="38.9030471"></rect>
        <rect id="Rectangle-Copy-13" stroke="#FFFFFF" x="703.21489" y="402.757618" width="72.2932985" height="38.9030471"></rect>
        <rect id="Rectangle-Copy-35" stroke="#FFFFFF" x="460.140912" y="402.757618" width="72.2932985" height="38.9030471"></rect>
        <rect id="Rectangle-Copy-12" stroke="#FFFFFF" x="791.352401" y="402.757618" width="72.2932985" height="38.9030471"></rect>
        <rect id="Rectangle-Copy-36" stroke="#FFFFFF" x="548.278423" y="402.757618" width="72.2932985" height="38.9030471"></rect>
        <rect id="Rectangle-Copy-22" stroke="#FFFFFF" x="951.855447" y="402.757618" width="72.2932985" height="38.9030471"></rect>
        <rect id="Rectangle-Copy-45" stroke="#FFFFFF" x="305.204446" y="402.757618" width="72.2932985" height="38.9030471"></rect>
        <rect id="Rectangle-Copy-15" stroke="#FFFFFF" x="703.21489" y="447.300554" width="72.2932985" height="38.9030471"></rect>
        <rect id="Rectangle-Copy-37" stroke="#FFFFFF" x="460.140912" y="447.300554" width="72.2932985" height="38.9030471"></rect>
        <rect id="Rectangle-Copy-14" stroke="#FFFFFF" x="791.352401" y="447.300554" width="72.2932985" height="38.9030471"></rect>
        <rect id="Rectangle-Copy-38" stroke="#FFFFFF" x="548.278423" y="447.300554" width="72.2932985" height="38.9030471"></rect>
        <rect id="Rectangle-Copy-23" stroke="#FFFFFF" x="951.855447" y="447.300554" width="72.2932985" height="38.9030471"></rect>
        <rect id="Rectangle-Copy-46" stroke="#FFFFFF" x="305.204446" y="447.300554" width="72.2932985" height="38.9030471"></rect>
        <rect id="Rectangle-Copy-60" stroke="#FFFFFF" x="305.204446" y="491.84349" width="72.2932985" height="38.9030471"></rect>
        <rect id="Rectangle" stroke="#FFFFFF" x="80.6857339" y="269.128809" width="32.3994778" height="261.617729"></rect>
        <path d="M326.355125,678.795014 C328.923688,678.82356 330.502879,676.92048 330.483852,674.5226 C330.483852,672.315028 329.180544,670.57371 326.164861,670.57371 L322.321529,670.57371 L322.321529,666.910282 L329.589612,666.910282 L329.589612,665.149933 L320.371323,665.149933 L320.371323,678.795014 L326.355125,678.795014 Z M326.041189,677.044181 L322.321529,677.044181 L322.321529,672.286482 L326.060215,672.286482 C327.572814,672.286482 328.533647,673.133352 328.533647,674.62727 C328.533647,676.102156 327.525248,677.044181 326.041189,677.044181 Z M333.233166,678.795014 L334.603067,675.283832 L341.100581,675.283832 L342.470481,678.795014 L344.496792,678.795014 L339.140862,665.149933 L336.648404,665.149933 L331.244908,678.795014 L333.233166,678.795014 Z M340.415631,673.532999 L335.278504,673.532999 L337.847067,666.948344 L340.415631,673.532999 Z M346.047444,678.795014 C348.264019,678.795014 349.272418,677.662682 349.462682,675.692994 C349.519761,675.093524 349.567327,674.0278 349.614893,672.505336 C349.662459,670.982872 349.690998,669.717324 349.690998,668.718208 L349.690998,666.910282 L355.208653,666.910282 L355.208653,678.795014 L357.158858,678.795014 L357.158858,665.149933 L347.807385,665.149933 L347.807385,668.737238 C347.807385,669.936179 347.788359,671.17318 347.750306,672.448244 C347.712253,673.713791 347.664687,674.6463 347.607608,675.24577 C347.49345,676.463741 347.01779,676.939511 345.952312,677.006119 L344.943913,677.006119 L344.943913,678.795014 L346.047444,678.795014 Z M362.609921,678.795014 L362.609921,674.579693 L364.98822,672.162782 L369.526015,678.795014 L371.961394,678.795014 L366.396173,670.716441 L371.866262,665.149933 L369.335751,665.149933 L362.609921,671.915381 L362.609921,665.149933 L360.659715,665.149933 L360.659715,678.795014 L362.609921,678.795014 Z M378.753817,678.985322 C382.435424,679.023383 385.232305,676.263918 385.184739,671.972474 C385.232305,667.681029 382.435424,664.921564 378.753817,664.959625 C375.145842,664.922325 372.387559,667.57177 372.323439,671.716835 L372.322895,671.972474 C372.275329,676.263918 375.07221,679.023383 378.753817,678.985322 Z M378.848949,677.234489 L378.658685,677.234489 C376.137688,677.263035 374.235048,675.207709 374.273101,671.972474 C374.235048,668.737238 376.137688,666.681912 378.658685,666.710459 L378.848949,666.710459 C381.37946,666.672397 383.263073,668.737238 383.234533,671.972474 C383.263073,675.207709 381.37946,677.27255 378.848949,677.234489 Z M389.836692,678.795014 L389.836692,672.84789 L396.752787,672.84789 L396.752787,678.795014 L398.702992,678.795014 L398.702992,665.149933 L396.752787,665.149933 L396.752787,671.097057 L389.836692,671.097057 L389.836692,665.149933 L387.886487,665.149933 L387.886487,678.795014 L389.836692,678.795014 Z" id="БАЛКОН" fill="#FFFFFF" fill-rule="nonzero"></path>
        <path d="M198.416207,560.01385 L198.416207,546.36877 L196.466001,546.36877 L196.466001,558.263017 L190.796136,558.263017 L190.796136,546.36877 L188.84593,546.36877 L188.84593,558.263017 L183.157038,558.263017 L183.157038,546.36877 L181.206832,546.36877 L181.206832,560.01385 L198.416207,560.01385 Z M212.048619,560.01385 L212.048619,558.263017 L203.867269,558.263017 L203.867269,553.876419 L210.688232,553.876419 L210.688232,552.125586 L203.867269,552.125586 L203.867269,548.129119 L211.858355,548.129119 L211.858355,546.36877 L201.917064,546.36877 L201.917064,560.01385 L212.048619,560.01385 Z M219.240596,560.204158 C222.598755,560.232705 224.510908,558.481871 224.482368,556.312361 C224.482368,554.523466 223.597641,553.495803 221.856726,553.124702 C223.41689,552.620386 224.244538,551.411931 224.244538,549.956075 C224.273078,547.615287 222.208714,546.159431 219.392808,546.178462 C215.987083,546.1404 214.093957,548.300396 213.8371,550.717307 L215.844385,550.717307 C216.110754,548.861804 217.157206,547.910264 219.392808,547.910264 C221.162262,547.910264 222.294333,548.738104 222.294333,550.098806 C222.294333,551.402415 221.257394,552.23977 219.573558,552.23977 L217.680432,552.23977 L217.680432,553.990604 L219.506966,553.990604 C221.476198,553.990604 222.532163,554.761351 222.532163,556.131568 C222.532163,557.692093 221.447658,558.453325 219.240596,558.453325 C217.13818,558.453325 215.987083,557.549362 215.730227,555.684344 L213.741968,555.684344 C214.084443,558.662664 215.825358,560.204158 219.240596,560.204158 Z M226.594298,560.01385 C228.810873,560.01385 229.819272,558.881518 230.009536,556.911831 C230.066615,556.312361 230.114181,555.246636 230.161747,553.724172 C230.209313,552.201709 230.237853,550.936161 230.237853,549.937044 L230.237853,548.129119 L235.755508,548.129119 L235.755508,560.01385 L237.705713,560.01385 L237.705713,546.36877 L228.35424,546.36877 L228.35424,549.956075 C228.35424,551.155015 228.335213,552.392017 228.297161,553.66708 C228.259108,554.932628 228.211542,555.865137 228.154463,556.464607 C228.040304,557.682578 227.564644,558.158348 226.499166,558.224956 L225.490767,558.224956 L225.490767,560.01385 L226.594298,560.01385 Z M246.838383,560.204158 C250.51999,560.24222 253.31687,557.482755 253.269304,553.19131 C253.31687,548.899866 250.51999,546.1404 246.838383,546.178462 C243.156775,546.1404 240.359895,548.899866 240.407461,553.19131 C240.359895,557.482755 243.156775,560.24222 246.838383,560.204158 Z M246.933515,558.453325 L246.743251,558.453325 C244.222253,558.481871 242.319614,556.426545 242.357667,553.19131 C242.319614,549.956075 244.222253,547.900749 246.743251,547.929295 L246.933515,547.929295 C249.464025,547.891234 251.347638,549.956075 251.319099,553.19131 C251.347638,556.426545 249.464025,558.491387 246.933515,558.453325 Z M257.921258,560.01385 L257.921258,554.066727 L264.837353,554.066727 L264.837353,560.01385 L266.787558,560.01385 L266.787558,546.36877 L264.837353,546.36877 L264.837353,552.315894 L257.921258,552.315894 L257.921258,546.36877 L255.971052,546.36877 L255.971052,560.01385 L257.921258,560.01385 Z M272.23862,560.01385 L272.23862,548.129119 L278.298527,548.129119 L278.298527,546.36877 L270.307441,546.36877 L270.288415,560.01385 L272.23862,560.01385 Z M282.826809,560.01385 L289.5241,548.700042 L289.5241,560.01385 L291.474306,560.01385 L291.474306,546.36877 L288.905743,546.36877 L282.217965,557.596939 L282.217965,546.36877 L280.267759,546.36877 L280.267759,560.01385 L282.826809,560.01385 Z" id="ШЕЗЛОНГИ" fill="#FFFFFF" fill-rule="nonzero"></path>
        <path d="M69.8978901,408.015793 C73.8934331,408.06337 76.100495,405.008927 76.0719554,400.850698 C76.0909818,396.7115 73.9790519,393.96155 69.9549693,393.990096 C68.6897141,393.990096 67.6432623,394.208951 66.8251273,394.646659 C66.0165055,395.084367 65.4076609,395.645776 65.0176198,396.321369 C64.6275787,396.996962 64.3802355,397.720132 64.2851036,398.50991 L66.2543355,398.50991 C66.425573,396.844716 67.8240131,395.74093 69.8598374,395.74093 L70.0501013,395.74093 C71.2677906,395.74093 72.2095972,396.121546 72.8850342,396.873262 C73.5604712,397.624978 73.9600255,398.671672 74.0836971,399.994312 L68.0237902,399.994312 L68.0237902,401.745146 L74.0836971,401.745146 C73.836354,404.399942 72.4949931,406.26496 70.0310749,406.26496 L69.840811,406.26496 C67.9762242,406.26496 66.425573,405.284874 66.1972563,403.495979 L64.2280244,403.495979 C64.4087751,406.207867 66.7204821,408.044339 69.8978901,408.015793 Z M80.7429354,407.825485 L80.7429354,403.610164 L83.1212348,401.193253 L87.6590301,407.825485 L90.0944087,407.825485 L84.5291881,399.746912 L89.9992767,394.180404 L87.4687661,394.180404 L80.7429354,400.945852 L80.7429354,394.180404 L78.7927299,394.180404 L78.7927299,407.825485 L80.7429354,407.825485 Z M93.9092009,407.825485 L93.9092009,402.449285 L97.7049668,402.449285 C100.235477,402.468316 102.11909,400.88876 102.090551,398.319602 C102.11909,395.750445 100.235477,394.151858 97.7049668,394.180404 L91.9589954,394.180404 L91.9589954,407.825485 L93.9092009,407.825485 Z M97.4195709,400.688936 L93.9092009,400.688936 L93.9092009,395.940753 L97.4195709,395.940753 C99.1795124,395.940753 100.140345,396.768593 100.140345,398.319602 C100.140345,399.870612 99.1795124,400.688936 97.4195709,400.688936 Z M103.926598,407.825485 L105.296498,404.314303 L111.794012,404.314303 L113.163913,407.825485 L115.190224,407.825485 L109.834294,394.180404 L107.341836,394.180404 L101.93834,407.825485 L103.926598,407.825485 Z M111.109062,402.56347 L105.971936,402.56347 L108.540499,395.978815 L111.109062,402.56347 Z M119.043069,407.825485 L119.043069,401.878361 L125.959164,401.878361 L125.959164,407.825485 L127.909369,407.825485 L127.909369,394.180404 L125.959164,394.180404 L125.959164,400.127528 L119.043069,400.127528 L119.043069,394.180404 L117.092864,394.180404 L117.092864,407.825485 L119.043069,407.825485 Z" id="ЭКРАН" fill="#FFFFFF" fill-rule="nonzero" transform="translate(96.068697, 401.003109) rotate(-90.000000) translate(-96.068697, -401.003109) "></path>
        <path d="M1060.36808,375.634349 C1062.50855,375.662895 1064.40168,374.111885 1064.36363,371.932859 C1064.36363,371.057443 1064.13531,370.334272 1063.68819,369.763349 C1063.24107,369.192425 1062.62271,368.840355 1061.85214,368.716655 C1063.1935,368.212339 1064.07823,367.089522 1064.07823,365.595604 C1064.11628,363.426094 1062.30878,361.960722 1060.17782,361.989269 L1054.23207,361.989269 L1054.23207,375.634349 L1060.36808,375.634349 Z M1059.88291,367.841238 L1056.18228,367.841238 L1056.18228,363.749617 L1059.88291,363.749617 C1061.25281,363.749617 1062.12803,364.539395 1062.12803,365.795428 C1062.12803,367.05146 1061.25281,367.841238 1059.88291,367.841238 Z M1059.97804,373.883516 L1056.18228,373.883516 L1056.18228,369.592071 L1059.97804,369.592071 C1061.4621,369.592071 1062.41342,370.391365 1062.41342,371.733036 C1062.41342,373.093738 1061.4621,373.883516 1059.97804,373.883516 Z M1077.28255,375.634349 L1077.28255,373.883516 L1069.1012,373.883516 L1069.1012,369.496917 L1075.92216,369.496917 L1075.92216,367.746084 L1069.1012,367.746084 L1069.1012,363.749617 L1077.09229,363.749617 L1077.09229,361.989269 L1067.15099,361.989269 L1067.15099,375.634349 L1077.28255,375.634349 Z M1081.80132,375.634349 L1081.80132,370.258149 L1085.59708,370.258149 C1088.12759,370.27718 1090.01121,368.697624 1089.98267,366.128467 C1090.01121,363.559309 1088.12759,361.960722 1085.59708,361.989269 L1079.85111,361.989269 L1079.85111,375.634349 L1081.80132,375.634349 Z M1085.31169,368.497801 L1081.80132,368.497801 L1081.80132,363.749617 L1085.31169,363.749617 C1087.07163,363.749617 1088.03246,364.577457 1088.03246,366.128467 C1088.03246,367.679476 1087.07163,368.497801 1085.31169,368.497801 Z M1091.81872,375.634349 L1093.18862,372.123167 L1099.68613,372.123167 L1101.05603,375.634349 L1103.08234,375.634349 L1097.72641,361.989269 L1095.23395,361.989269 L1089.83046,375.634349 L1091.81872,375.634349 Z M1099.00118,370.372334 L1093.86405,370.372334 L1096.43262,363.787679 L1099.00118,370.372334 Z M1106.93519,375.634349 L1106.93519,369.687225 L1113.85128,369.687225 L1113.85128,375.634349 L1115.80149,375.634349 L1115.80149,361.989269 L1113.85128,361.989269 L1113.85128,367.936392 L1106.93519,367.936392 L1106.93519,361.989269 L1104.98498,361.989269 L1104.98498,375.634349 L1106.93519,375.634349 Z M1119.73044,378.517515 L1119.73044,375.634349 L1130.23301,375.634349 L1130.23301,378.517515 L1132.12613,378.517515 L1132.12613,373.883516 L1130.06177,373.883516 L1130.06177,361.989269 L1120.65322,361.989269 L1120.65322,365.424327 C1120.62468,368.878417 1120.54857,371.143081 1120.41539,372.208806 C1120.29172,373.303077 1119.86362,373.864485 1118.87425,373.864485 L1117.84682,373.883516 L1117.84682,378.517515 L1119.73044,378.517515 Z M1128.11156,373.883516 L1121.7187,373.883516 C1122.06117,373.559992 1122.26095,373.02713 1122.32754,372.284929 C1122.39413,371.723521 1122.4417,370.743435 1122.47024,369.344671 C1122.49878,367.945908 1122.5178,366.632783 1122.5178,365.424327 L1122.5178,363.749617 L1128.11156,363.749617 L1128.11156,373.883516 Z M1134.6947,375.634349 L1136.0646,372.123167 L1142.56211,372.123167 L1143.93201,375.634349 L1145.95832,375.634349 L1140.60239,361.989269 L1138.10994,361.989269 L1132.70644,375.634349 L1134.6947,375.634349 Z M1141.87716,370.372334 L1136.74003,370.372334 L1139.3086,363.787679 L1141.87716,370.372334 Z" id="ВЕРАНДА" fill="#FFFFFF" fill-rule="nonzero"></path>
        <path d="M542.673007,303.891967 L542.673007,275.594986 L558.777492,275.594986 L558.777492,303.891967 L563.420838,303.891967 L563.420838,271.40368 L538.029661,271.40368 L538.029661,303.891967 L542.673007,303.891967 Z M572.63958,303.891967 L575.901247,295.53201 L591.371519,295.53201 L594.633186,303.891967 L599.457737,303.891967 L586.705522,271.40368 L580.771099,271.40368 L567.905631,303.891967 L572.63958,303.891967 Z M589.740685,291.36336 L577.509431,291.36336 L583.625058,275.685609 L589.740685,291.36336 Z M608.631177,303.891967 L608.631177,291.091491 L617.668715,291.091491 C623.598105,291.136083 628.035771,287.494388 628.110388,281.548414 L628.110582,281.258913 C628.178533,275.141872 623.69374,271.335713 617.668715,271.40368 L603.987831,271.40368 L603.987831,303.891967 L608.631177,303.891967 Z M616.989201,286.900185 L608.631177,286.900185 L608.631177,275.594986 L616.989201,275.594986 C621.179538,275.594986 623.467235,277.566033 623.467235,281.258913 C623.467235,284.951794 621.179538,286.900185 616.989201,286.900185 Z M638.507148,303.891967 L638.507148,293.855488 L644.169765,288.100938 L654.97404,303.891967 L660.77256,303.891967 L647.522035,284.65727 L660.546056,271.40368 L654.521031,271.40368 L638.507148,287.511889 L638.507148,271.40368 L633.863801,271.40368 L633.863801,303.891967 L638.507148,303.891967 Z M692.256714,287.647823 C692.368694,277.544905 685.859519,271.008048 677.239666,270.95003 L676.944996,270.950566 C668.179264,270.859943 661.520026,277.430099 661.633278,287.647823 C661.521298,297.750742 668.030473,304.287599 676.650327,304.345617 L676.944996,304.345081 C685.710728,304.435704 692.369967,297.865548 692.256714,287.647823 Z M677.436302,300.177187 L676.718492,300.17643 C670.716117,300.244398 666.186023,295.350764 666.276625,287.647823 C666.187355,280.058161 670.583878,275.195787 676.454646,275.11943 L677.171501,275.119216 C683.107923,275.029926 687.549081,279.801368 687.613422,287.309803 L687.613368,287.647823 C687.68032,295.237486 683.327447,300.121854 677.436302,300.177187 L677.436302,300.177187 Z M722.812199,295.078896 C722.812199,292.994571 722.268588,291.272737 721.204016,289.913394 C720.139444,288.554052 718.667163,287.715791 716.832475,287.421266 C720.026191,286.220514 722.132685,283.54714 722.132685,279.990194 C722.223287,274.824692 717.919697,271.335713 712.845992,271.40368 L698.689448,271.40368 L698.689448,303.891967 L713.299002,303.891967 C718.395357,303.959934 722.902801,300.267053 722.812199,295.078896 Z M712.143828,285.336941 L703.332794,285.336941 L703.332794,275.594986 L712.143828,275.594986 C715.405495,275.594986 717.489339,277.47541 717.489339,280.465964 C717.489339,283.456517 715.405495,285.336941 712.143828,285.336941 Z M712.370332,299.723316 L703.332794,299.723316 L703.332794,289.505592 L712.370332,289.505592 C715.903806,289.505592 718.168853,291.408671 718.168853,294.603126 C718.168853,297.842892 715.903806,299.723316 712.370332,299.723316 Z M734.092133,303.891967 L734.092133,293.855488 L739.754751,288.100938 L750.559026,303.891967 L756.357546,303.891967 L743.107021,284.65727 L756.131041,271.40368 L750.106016,271.40368 L734.092133,287.511889 L734.092133,271.40368 L729.448787,271.40368 L729.448787,303.891967 L734.092133,303.891967 Z M761.680407,303.891967 L764.942074,295.53201 L780.412346,295.53201 L783.674013,303.891967 L788.498564,303.891967 L775.746349,271.40368 L769.811925,271.40368 L756.946458,303.891967 L761.680407,303.891967 Z M778.781512,291.36336 L766.550258,291.36336 L772.665885,275.685609 L778.781512,291.36336 Z" id="ПАРКОВКА" fill="#FFFFFF" fill-rule="nonzero" transform="translate(663.264112, 287.647823) rotate(-90.000000) translate(-663.264112, -287.647823) "></path>
    </g>
</svg>