<?xml version="1.0" encoding="UTF-8"?>
<svg width="1327px" height="720px" viewBox="0 0 1327 720" version="1.1" xmlns="http://www.w3.org/2000/svg" xmlns:xlink="http://www.w3.org/1999/xlink">
    <title>WRS Copy</title>
    <g id="WRS-Copy" stroke="none" stroke-width="1" fill="none" fill-rule="evenodd">
        <rect fill="#4C4C4C" x="0" y="0" width="1327" height="720"></rect>
        <rect id="Rectangle" stroke="#FFFFFF" fill="#4C4C4C" x="813.5" y="33.5" width="78" height="42"></rect>
        <rect id="Rectangle-Copy-2" stroke="#FFFFFF" fill="#4C4C4C" x="813.5" y="81.5" width="78" height="42"></rect>
        <rect id="Rectangle-Copy-24" stroke="#FFFFFF" fill="#4C4C4C" x="534.5" y="81.5" width="78" height="42"></rect>
        <rect id="Rectangle" stroke="#FFFFFF" fill="#4C4C4C" x="228.5" y="447.5" width="23" height="12"></rect>
        <rect id="Rectangle-Copy-61" stroke="#FFFFFF" fill="#4C4C4C" x="260.5" y="447.5" width="23" height="12"></rect>
        <rect id="Rectangle-Copy-40" stroke="#FFFFFF" fill="#4C4C4C" x="228.5" y="429.5" width="23" height="12"></rect>
        <rect id="Rectangle-Copy-62" stroke="#FFFFFF" fill="#4C4C4C" x="260.5" y="429.5" width="23" height="12"></rect>
        <rect id="Rectangle-Copy-41" stroke="#FFFFFF" fill="#4C4C4C" x="228.5" y="411.5" width="23" height="12"></rect>
        <rect id="Rectangle-Copy-63" stroke="#FFFFFF" fill="#4C4C4C" x="260.5" y="411.5" width="23" height="12"></rect>
        <rect id="Rectangle-Copy-47" stroke="#FFFFFF" fill="#4C4C4C" x="228.5" y="393.5" width="23" height="12"></rect>
        <rect id="Rectangle-Copy-64" stroke="#FFFFFF" fill="#4C4C4C" x="260.5" y="393.5" width="23" height="12"></rect>
        <rect id="Rectangle-Copy-48" stroke="#FFFFFF" fill="#4C4C4C" x="228.5" y="375.5" width="23" height="12"></rect>
        <rect id="Rectangle-Copy-65" stroke="#FFFFFF" fill="#4C4C4C" x="260.5" y="375.5" width="23" height="12"></rect>
        <rect id="Rectangle-Copy-49" stroke="#FFFFFF" fill="#4C4C4C" x="228.5" y="357.5" width="23" height="12"></rect>
        <rect id="Rectangle-Copy-66" stroke="#FFFFFF" fill="#4C4C4C" x="260.5" y="357.5" width="23" height="12"></rect>
        <rect id="Rectangle-Copy-50" stroke="#FFFFFF" fill="#4C4C4C" x="228.5" y="339.5" width="23" height="12"></rect>
        <rect id="Rectangle-Copy-67" stroke="#FFFFFF" fill="#4C4C4C" x="260.5" y="339.5" width="23" height="12"></rect>
        <rect id="Rectangle-Copy-51" stroke="#FFFFFF" fill="#4C4C4C" x="228.5" y="321.5" width="23" height="12"></rect>
        <rect id="Rectangle-Copy-68" stroke="#FFFFFF" fill="#4C4C4C" x="260.5" y="321.5" width="23" height="12"></rect>
        <rect id="Rectangle-Copy-52" stroke="#FFFFFF" fill="#4C4C4C" x="228.5" y="303.5" width="23" height="12"></rect>
        <rect id="Rectangle-Copy-69" stroke="#FFFFFF" fill="#4C4C4C" x="260.5" y="303.5" width="23" height="12"></rect>
        <rect id="Rectangle-Copy-53" stroke="#FFFFFF" fill="#4C4C4C" x="228.5" y="285.5" width="23" height="12"></rect>
        <rect id="Rectangle-Copy-70" stroke="#FFFFFF" fill="#4C4C4C" x="260.5" y="285.5" width="23" height="12"></rect>
        <rect id="Rectangle-Copy-54" stroke="#FFFFFF" fill="#4C4C4C" x="228.5" y="267.5" width="23" height="12"></rect>
        <rect id="Rectangle-Copy-71" stroke="#FFFFFF" fill="#4C4C4C" x="260.5" y="267.5" width="23" height="12"></rect>
        <rect id="Rectangle-Copy-55" stroke="#FFFFFF" fill="#4C4C4C" x="228.5" y="249.5" width="23" height="12"></rect>
        <rect id="Rectangle-Copy-72" stroke="#FFFFFF" fill="#4C4C4C" x="260.5" y="249.5" width="23" height="12"></rect>
        <rect id="Rectangle-Copy-56" stroke="#FFFFFF" fill="#4C4C4C" x="228.5" y="231.5" width="23" height="12"></rect>
        <rect id="Rectangle-Copy-73" stroke="#FFFFFF" fill="#4C4C4C" x="260.5" y="231.5" width="23" height="12"></rect>
        <rect id="Rectangle-Copy-57" stroke="#FFFFFF" fill="#4C4C4C" x="228.5" y="213.5" width="23" height="12"></rect>
        <rect id="Rectangle-Copy-74" stroke="#FFFFFF" fill="#4C4C4C" x="260.5" y="213.5" width="23" height="12"></rect>
        <rect id="Rectangle-Copy-58" stroke="#FFFFFF" fill="#4C4C4C" x="228.5" y="195.5" width="23" height="12"></rect>
        <rect id="Rectangle-Copy-75" stroke="#FFFFFF" fill="#4C4C4C" x="260.5" y="195.5" width="23" height="12"></rect>
        <rect id="Rectangle-Copy-59" stroke="#FFFFFF" fill="#4C4C4C" x="228.5" y="177.5" width="23" height="12"></rect>
        <rect id="Rectangle-Copy-76" stroke="#FFFFFF" fill="#4C4C4C" x="260.5" y="177.5" width="23" height="12"></rect>
        <rect id="Rectangle-Copy-92" stroke="#FFFFFF" fill="#4C4C4C" x="292.5" y="447.5" width="23" height="12"></rect>
        <rect id="Rectangle-Copy-91" stroke="#FFFFFF" fill="#4C4C4C" x="292.5" y="429.5" width="23" height="12"></rect>
        <rect id="Rectangle-Copy-90" stroke="#FFFFFF" fill="#4C4C4C" x="292.5" y="411.5" width="23" height="12"></rect>
        <rect id="Rectangle-Copy-89" stroke="#FFFFFF" fill="#4C4C4C" x="292.5" y="393.5" width="23" height="12"></rect>
        <rect id="Rectangle-Copy-88" stroke="#FFFFFF" fill="#4C4C4C" x="292.5" y="375.5" width="23" height="12"></rect>
        <rect id="Rectangle-Copy-87" stroke="#FFFFFF" fill="#4C4C4C" x="292.5" y="357.5" width="23" height="12"></rect>
        <rect id="Rectangle-Copy-86" stroke="#FFFFFF" fill="#4C4C4C" x="292.5" y="339.5" width="23" height="12"></rect>
        <rect id="Rectangle-Copy-85" stroke="#FFFFFF" fill="#4C4C4C" x="292.5" y="321.5" width="23" height="12"></rect>
        <rect id="Rectangle-Copy-84" stroke="#FFFFFF" fill="#4C4C4C" x="292.5" y="303.5" width="23" height="12"></rect>
        <rect id="Rectangle-Copy-83" stroke="#FFFFFF" fill="#4C4C4C" x="292.5" y="285.5" width="23" height="12"></rect>
        <rect id="Rectangle-Copy-82" stroke="#FFFFFF" fill="#4C4C4C" x="292.5" y="267.5" width="23" height="12"></rect>
        <rect id="Rectangle-Copy-81" stroke="#FFFFFF" fill="#4C4C4C" x="292.5" y="249.5" width="23" height="12"></rect>
        <rect id="Rectangle-Copy-80" stroke="#FFFFFF" fill="#4C4C4C" x="292.5" y="231.5" width="23" height="12"></rect>
        <rect id="Rectangle-Copy-79" stroke="#FFFFFF" fill="#4C4C4C" x="292.5" y="213.5" width="23" height="12"></rect>
        <rect id="Rectangle-Copy-78" stroke="#FFFFFF" fill="#4C4C4C" x="292.5" y="195.5" width="23" height="12"></rect>
        <rect id="Rectangle-Copy-77" stroke="#FFFFFF" fill="#4C4C4C" x="292.5" y="177.5" width="23" height="12"></rect>
        <rect id="Rectangle-Copy-99" stroke="#FFFFFF" fill="#4C4C4C" x="1205.5" y="249.5" width="23" height="12"></rect>
        <rect id="Rectangle-Copy-125" stroke="#FFFFFF" fill="#4C4C4C" x="350.5" y="673.5" width="23" height="12"></rect>
        <rect id="Rectangle-Copy-100" stroke="#FFFFFF" fill="#4C4C4C" x="1237.5" y="249.5" width="23" height="12"></rect>
        <rect id="Rectangle-Copy-126" stroke="#FFFFFF" fill="#4C4C4C" x="382.5" y="673.5" width="23" height="12"></rect>
        <rect id="Rectangle-Copy-101" stroke="#FFFFFF" fill="#4C4C4C" x="1205.5" y="231.5" width="23" height="12"></rect>
        <rect id="Rectangle-Copy-127" stroke="#FFFFFF" fill="#4C4C4C" x="350.5" y="655.5" width="23" height="12"></rect>
        <rect id="Rectangle-Copy-102" stroke="#FFFFFF" fill="#4C4C4C" x="1237.5" y="231.5" width="23" height="12"></rect>
        <rect id="Rectangle-Copy-141" stroke="#FFFFFF" fill="#4C4C4C" x="382.5" y="655.5" width="23" height="12"></rect>
        <rect id="Rectangle-Copy-103" stroke="#FFFFFF" fill="#4C4C4C" x="1205.5" y="213.5" width="23" height="12"></rect>
        <rect id="Rectangle-Copy-142" stroke="#FFFFFF" fill="#4C4C4C" x="350.5" y="637.5" width="23" height="12"></rect>
        <rect id="Rectangle-Copy-104" stroke="#FFFFFF" fill="#4C4C4C" x="1237.5" y="213.5" width="23" height="12"></rect>
        <rect id="Rectangle-Copy-143" stroke="#FFFFFF" fill="#4C4C4C" x="382.5" y="637.5" width="23" height="12"></rect>
        <rect id="Rectangle-Copy-105" stroke="#FFFFFF" fill="#4C4C4C" x="1205.5" y="195.5" width="23" height="12"></rect>
        <rect id="Rectangle-Copy-144" stroke="#FFFFFF" fill="#4C4C4C" x="350.5" y="619.5" width="23" height="12"></rect>
        <rect id="Rectangle-Copy-106" stroke="#FFFFFF" fill="#4C4C4C" x="1237.5" y="195.5" width="23" height="12"></rect>
        <rect id="Rectangle-Copy-145" stroke="#FFFFFF" fill="#4C4C4C" x="382.5" y="619.5" width="23" height="12"></rect>
        <rect id="Rectangle-Copy-107" stroke="#FFFFFF" fill="#4C4C4C" x="1205.5" y="177.5" width="23" height="12"></rect>
        <rect id="Rectangle-Copy-146" stroke="#FFFFFF" fill="#4C4C4C" x="350.5" y="601.5" width="23" height="12"></rect>
        <rect id="Rectangle-Copy-108" stroke="#FFFFFF" fill="#4C4C4C" x="1237.5" y="177.5" width="23" height="12"></rect>
        <rect id="Rectangle-Copy-147" stroke="#FFFFFF" fill="#4C4C4C" x="382.5" y="601.5" width="23" height="12"></rect>
        <rect id="Rectangle-Copy-109" stroke="#FFFFFF" fill="#4C4C4C" x="1205.5" y="159.5" width="23" height="12"></rect>
        <rect id="Rectangle-Copy-148" stroke="#FFFFFF" fill="#4C4C4C" x="350.5" y="583.5" width="23" height="12"></rect>
        <rect id="Rectangle-Copy-110" stroke="#FFFFFF" fill="#4C4C4C" x="1237.5" y="159.5" width="23" height="12"></rect>
        <rect id="Rectangle-Copy-149" stroke="#FFFFFF" fill="#4C4C4C" x="382.5" y="583.5" width="23" height="12"></rect>
        <rect id="Rectangle-Copy-111" stroke="#FFFFFF" fill="#4C4C4C" x="1205.5" y="141.5" width="23" height="12"></rect>
        <rect id="Rectangle-Copy-150" stroke="#FFFFFF" fill="#4C4C4C" x="350.5" y="565.5" width="23" height="12"></rect>
        <rect id="Rectangle-Copy-112" stroke="#FFFFFF" fill="#4C4C4C" x="1237.5" y="141.5" width="23" height="12"></rect>
        <rect id="Rectangle-Copy-151" stroke="#FFFFFF" fill="#4C4C4C" x="382.5" y="565.5" width="23" height="12"></rect>
        <rect id="Rectangle-Copy-113" stroke="#FFFFFF" fill="#4C4C4C" x="1205.5" y="123.5" width="23" height="12"></rect>
        <rect id="Rectangle-Copy-114" stroke="#FFFFFF" fill="#4C4C4C" x="1237.5" y="123.5" width="23" height="12"></rect>
        <rect id="Rectangle-Copy-115" stroke="#FFFFFF" fill="#4C4C4C" x="1205.5" y="105.5" width="23" height="12"></rect>
        <rect id="Rectangle-Copy-116" stroke="#FFFFFF" fill="#4C4C4C" x="1237.5" y="105.5" width="23" height="12"></rect>
        <rect id="Rectangle-Copy-117" stroke="#FFFFFF" fill="#4C4C4C" x="1205.5" y="87.5" width="23" height="12"></rect>
        <rect id="Rectangle-Copy-118" stroke="#FFFFFF" fill="#4C4C4C" x="1237.5" y="87.5" width="23" height="12"></rect>
        <rect id="Rectangle-Copy-119" stroke="#FFFFFF" fill="#4C4C4C" x="1205.5" y="69.5" width="23" height="12"></rect>
        <rect id="Rectangle-Copy-120" stroke="#FFFFFF" fill="#4C4C4C" x="1237.5" y="69.5" width="23" height="12"></rect>
        <rect id="Rectangle-Copy-121" stroke="#FFFFFF" fill="#4C4C4C" x="1205.5" y="51.5" width="23" height="12"></rect>
        <rect id="Rectangle-Copy-122" stroke="#FFFFFF" fill="#4C4C4C" x="1237.5" y="51.5" width="23" height="12"></rect>
        <rect id="Rectangle-Copy-123" stroke="#FFFFFF" fill="#4C4C4C" x="1205.5" y="33.5" width="23" height="12"></rect>
        <rect id="Rectangle-Copy-124" stroke="#FFFFFF" fill="#4C4C4C" x="1237.5" y="33.5" width="23" height="12"></rect>
        <rect id="Rectangle-Copy-128" stroke="#FFFFFF" fill="#4C4C4C" x="1269.5" y="249.5" width="23" height="12"></rect>
        <rect id="Rectangle-Copy-164" stroke="#FFFFFF" fill="#4C4C4C" x="414.5" y="673.5" width="23" height="12"></rect>
        <rect id="Rectangle-Copy-171" stroke="#FFFFFF" fill="#4C4C4C" x="446.5" y="673.5" width="23" height="12"></rect>
        <rect id="Rectangle-Copy-129" stroke="#FFFFFF" fill="#4C4C4C" x="1269.5" y="231.5" width="23" height="12"></rect>
        <rect id="Rectangle-Copy-165" stroke="#FFFFFF" fill="#4C4C4C" x="414.5" y="655.5" width="23" height="12"></rect>
        <rect id="Rectangle-Copy-172" stroke="#FFFFFF" fill="#4C4C4C" x="446.5" y="655.5" width="23" height="12"></rect>
        <rect id="Rectangle-Copy-130" stroke="#FFFFFF" fill="#4C4C4C" x="1269.5" y="213.5" width="23" height="12"></rect>
        <rect id="Rectangle-Copy-166" stroke="#FFFFFF" fill="#4C4C4C" x="414.5" y="637.5" width="23" height="12"></rect>
        <rect id="Rectangle-Copy-173" stroke="#FFFFFF" fill="#4C4C4C" x="446.5" y="637.5" width="23" height="12"></rect>
        <rect id="Rectangle-Copy-131" stroke="#FFFFFF" fill="#4C4C4C" x="1269.5" y="195.5" width="23" height="12"></rect>
        <rect id="Rectangle-Copy-167" stroke="#FFFFFF" fill="#4C4C4C" x="414.5" y="619.5" width="23" height="12"></rect>
        <rect id="Rectangle-Copy-174" stroke="#FFFFFF" fill="#4C4C4C" x="446.5" y="619.5" width="23" height="12"></rect>
        <rect id="Rectangle-Copy-132" stroke="#FFFFFF" fill="#4C4C4C" x="1269.5" y="177.5" width="23" height="12"></rect>
        <rect id="Rectangle-Copy-168" stroke="#FFFFFF" fill="#4C4C4C" x="414.5" y="601.5" width="23" height="12"></rect>
        <rect id="Rectangle-Copy-175" stroke="#FFFFFF" fill="#4C4C4C" x="446.5" y="601.5" width="23" height="12"></rect>
        <rect id="Rectangle-Copy-133" stroke="#FFFFFF" fill="#4C4C4C" x="1269.5" y="159.5" width="23" height="12"></rect>
        <rect id="Rectangle-Copy-169" stroke="#FFFFFF" fill="#4C4C4C" x="414.5" y="583.5" width="23" height="12"></rect>
        <rect id="Rectangle-Copy-176" stroke="#FFFFFF" fill="#4C4C4C" x="446.5" y="583.5" width="23" height="12"></rect>
        <rect id="Rectangle-Copy-134" stroke="#FFFFFF" fill="#4C4C4C" x="1269.5" y="141.5" width="23" height="12"></rect>
        <rect id="Rectangle-Copy-170" stroke="#FFFFFF" fill="#4C4C4C" x="414.5" y="565.5" width="23" height="12"></rect>
        <rect id="Rectangle-Copy-177" stroke="#FFFFFF" fill="#4C4C4C" x="446.5" y="565.5" width="23" height="12"></rect>
        <rect id="Rectangle-Copy-135" stroke="#FFFFFF" fill="#4C4C4C" x="1269.5" y="123.5" width="23" height="12"></rect>
        <rect id="Rectangle-Copy-136" stroke="#FFFFFF" fill="#4C4C4C" x="1269.5" y="105.5" width="23" height="12"></rect>
        <rect id="Rectangle-Copy-137" stroke="#FFFFFF" fill="#4C4C4C" x="1269.5" y="87.5" width="23" height="12"></rect>
        <rect id="Rectangle-Copy-138" stroke="#FFFFFF" fill="#4C4C4C" x="1269.5" y="69.5" width="23" height="12"></rect>
        <rect id="Rectangle-Copy-139" stroke="#FFFFFF" fill="#4C4C4C" x="1269.5" y="51.5" width="23" height="12"></rect>
        <rect id="Rectangle-Copy-140" stroke="#FFFFFF" fill="#4C4C4C" x="1269.5" y="33.5" width="23" height="12"></rect>
        <rect id="Rectangle-Copy" stroke="#FFFFFF" fill="#4C4C4C" x="908.5" y="33.5" width="78" height="42"></rect>
        <rect id="Rectangle-Copy-25" stroke="#FFFFFF" fill="#4C4C4C" x="629.5" y="33.5" width="78" height="42"></rect>
        <rect id="Rectangle-Copy-39" stroke="#FFFFFF" fill="#4C4C4C" x="534.5" y="33.5" width="78" height="42"></rect>
        <rect id="Rectangle-Copy-16" stroke="#FFFFFF" fill="#4C4C4C" x="1092.5" y="33.5" width="78" height="42"></rect>
        <rect id="Rectangle-Copy-3" stroke="#FFFFFF" fill="#4C4C4C" x="908.5" y="81.5" width="78" height="42"></rect>
        <rect id="Rectangle-Copy-26" stroke="#FFFFFF" fill="#4C4C4C" x="629.5" y="81.5" width="78" height="42"></rect>
        <rect id="Rectangle-Copy-17" stroke="#FFFFFF" fill="#4C4C4C" x="1092.5" y="81.5" width="78" height="42"></rect>
        <rect id="Rectangle-Copy-5" stroke="#FFFFFF" fill="#4C4C4C" x="813.5" y="129.5" width="78" height="42"></rect>
        <rect id="Rectangle-Copy-27" stroke="#FFFFFF" fill="#4C4C4C" x="534.5" y="129.5" width="78" height="42"></rect>
        <rect id="Rectangle-Copy-4" stroke="#FFFFFF" fill="#4C4C4C" x="908.5" y="129.5" width="78" height="42"></rect>
        <rect id="Rectangle-Copy-28" stroke="#FFFFFF" fill="#4C4C4C" x="629.5" y="129.5" width="78" height="42"></rect>
        <rect id="Rectangle-Copy-18" stroke="#FFFFFF" fill="#4C4C4C" x="1092.5" y="129.5" width="78" height="42"></rect>
        <rect id="Rectangle-Copy-7" stroke="#FFFFFF" fill="#4C4C4C" x="813.5" y="177.5" width="78" height="42"></rect>
        <rect id="Rectangle-Copy-29" stroke="#FFFFFF" fill="#4C4C4C" x="534.5" y="177.5" width="78" height="42"></rect>
        <rect id="Rectangle-Copy-6" stroke="#FFFFFF" fill="#4C4C4C" x="908.5" y="177.5" width="78" height="42"></rect>
        <rect id="Rectangle-Copy-30" stroke="#FFFFFF" fill="#4C4C4C" x="629.5" y="177.5" width="78" height="42"></rect>
        <rect id="Rectangle-Copy-19" stroke="#FFFFFF" fill="#4C4C4C" x="1092.5" y="177.5" width="78" height="42"></rect>
        <rect id="Rectangle-Copy-42" stroke="#FFFFFF" fill="#4C4C4C" x="350.5" y="177.5" width="78" height="42"></rect>
        <rect id="Rectangle-Copy-9" stroke="#FFFFFF" fill="#4C4C4C" x="813.5" y="225.5" width="78" height="42"></rect>
        <rect id="Rectangle-Copy-31" stroke="#FFFFFF" fill="#4C4C4C" x="534.5" y="225.5" width="78" height="42"></rect>
        <rect id="Rectangle-Copy-8" stroke="#FFFFFF" fill="#4C4C4C" x="908.5" y="225.5" width="78" height="42"></rect>
        <rect id="Rectangle-Copy-32" stroke="#FFFFFF" fill="#4C4C4C" x="629.5" y="225.5" width="78" height="42"></rect>
        <rect id="Rectangle-Copy-20" stroke="#FFFFFF" fill="#4C4C4C" x="1092.5" y="225.5" width="78" height="42"></rect>
        <rect id="Rectangle-Copy-43" stroke="#FFFFFF" fill="#4C4C4C" x="350.5" y="225.5" width="78" height="42"></rect>
        <rect id="Rectangle-Copy-11" stroke="#FFFFFF" fill="#4C4C4C" x="813.5" y="273.5" width="78" height="42"></rect>
        <rect id="Rectangle-Copy-33" stroke="#FFFFFF" fill="#4C4C4C" x="534.5" y="273.5" width="78" height="42"></rect>
        <rect id="Rectangle-Copy-10" stroke="#FFFFFF" fill="#4C4C4C" x="908.5" y="273.5" width="78" height="42"></rect>
        <rect id="Rectangle-Copy-34" stroke="#FFFFFF" fill="#4C4C4C" x="629.5" y="273.5" width="78" height="42"></rect>
        <rect id="Rectangle-Copy-21" stroke="#FFFFFF" fill="#4C4C4C" x="1092.5" y="273.5" width="78" height="42"></rect>
        <rect id="Rectangle-Copy-44" stroke="#FFFFFF" fill="#4C4C4C" x="350.5" y="273.5" width="78" height="42"></rect>
        <rect id="Rectangle-Copy-13" stroke="#FFFFFF" fill="#4C4C4C" x="813.5" y="321.5" width="78" height="42"></rect>
        <rect id="Rectangle-Copy-35" stroke="#FFFFFF" fill="#4C4C4C" x="534.5" y="321.5" width="78" height="42"></rect>
        <rect id="Rectangle-Copy-12" stroke="#FFFFFF" fill="#4C4C4C" x="908.5" y="321.5" width="78" height="42"></rect>
        <rect id="Rectangle-Copy-36" stroke="#FFFFFF" fill="#4C4C4C" x="629.5" y="321.5" width="78" height="42"></rect>
        <rect id="Rectangle-Copy-22" stroke="#FFFFFF" fill="#4C4C4C" x="1092.5" y="321.5" width="78" height="42"></rect>
        <rect id="Rectangle-Copy-45" stroke="#FFFFFF" fill="#4C4C4C" x="350.5" y="321.5" width="78" height="42"></rect>
        <rect id="Rectangle-Copy-15" stroke="#FFFFFF" fill="#4C4C4C" x="813.5" y="369.5" width="78" height="42"></rect>
        <rect id="Rectangle-Copy-37" stroke="#FFFFFF" fill="#4C4C4C" x="534.5" y="369.5" width="78" height="42"></rect>
        <rect id="Rectangle-Copy-14" stroke="#FFFFFF" fill="#4C4C4C" x="908.5" y="369.5" width="78" height="42"></rect>
        <rect id="Rectangle-Copy-38" stroke="#FFFFFF" fill="#4C4C4C" x="629.5" y="369.5" width="78" height="42"></rect>
        <rect id="Rectangle-Copy-23" stroke="#FFFFFF" fill="#4C4C4C" x="1092.5" y="369.5" width="78" height="42"></rect>
        <rect id="Rectangle-Copy-46" stroke="#FFFFFF" fill="#4C4C4C" x="350.5" y="369.5" width="78" height="42"></rect>
        <rect id="Rectangle-Copy-60" stroke="#FFFFFF" fill="#4C4C4C" x="350.5" y="417.5" width="78" height="42"></rect>
        <rect id="Rectangle" stroke="#FFFFFF" fill="#4C4C4C" x="34.5" y="177.5" width="31" height="282"></rect>
        <path d="M374.315918,550 C376.633301,550.041016 378.581543,548.103027 378.540527,545.59082 C378.540527,543.170898 377.084473,541.325195 374.018555,541.325195 L369.506836,541.325195 L369.506836,536.669922 L377.586914,536.669922 L377.586914,535.295898 L368.040527,535.295898 L368.040527,550 L374.315918,550 Z M373.998047,548.63623 L369.506836,548.63623 L369.506836,542.688965 L374.018555,542.688965 C375.812988,542.688965 377.063965,543.837402 377.063965,545.652344 C377.063965,547.467285 375.79248,548.63623 373.998047,548.63623 Z M381.021973,550 L382.662598,545.949707 L390.178711,545.949707 L391.819336,550 L393.367676,550 L387.379395,535.295898 L385.533691,535.295898 L379.504395,550 L381.021973,550 Z M389.635254,544.585938 L383.206055,544.585938 L386.425781,536.649414 L389.635254,544.585938 Z M395.018555,550 C397.171875,550 397.838379,549.046387 398.022949,547.210938 C398.094727,546.441895 398.166504,545.17041 398.238281,543.375977 C398.304077,541.731079 398.335409,540.361898 398.340174,539.268433 L398.34082,536.669922 L405.036621,536.669922 L405.036621,550 L406.513184,550 L406.513184,535.295898 L396.956543,535.295898 L396.956543,539.038574 C396.956543,540.463867 396.936035,541.971191 396.884766,543.570801 C396.833496,545.17041 396.771973,546.288086 396.700195,546.934082 C396.577148,548.123535 396.249023,548.63623 395.018555,548.63623 L393.829102,548.63623 L393.829102,550 L395.018555,550 Z M412.050293,550 L412.050293,545.416504 L415.21875,542.278809 L420.509766,550 L422.345215,550 L416.274902,541.23291 L422.25293,535.295898 L420.304688,535.295898 L412.050293,543.48877 L412.050293,535.295898 L410.583984,535.295898 L410.583984,550 L412.050293,550 Z M429.728027,550.205078 C433.573242,550.246094 436.485352,547.272461 436.444336,542.647949 C436.485352,538.023438 433.573242,535.049805 429.728027,535.09082 C425.882812,535.049805 422.970703,538.023438 423.011719,542.647949 C422.970703,547.272461 425.882812,550.246094 429.728027,550.205078 Z M429.830566,548.841309 L429.625488,548.841309 C426.651855,548.87207 424.447266,546.411133 424.478027,542.647949 C424.447266,538.884766 426.651855,536.423828 429.625488,536.45459 L429.830566,536.45459 C432.804199,536.423828 435.008789,538.884766 434.978027,542.647949 C435.008789,546.411133 432.804199,548.87207 429.830566,548.841309 Z M441.089355,550 L441.089355,543.324707 L449.384766,543.324707 L449.384766,550 L450.851074,550 L450.851074,535.295898 L449.384766,535.295898 L449.384766,541.960938 L441.089355,541.960938 L441.089355,535.295898 L439.623047,535.295898 L439.623047,550 L441.089355,550 Z" id="БАЛКОН" fill="#FFFFFF" fill-rule="nonzero"></path>
        <path d="M231.436035,491 L231.436035,476.295898 L229.959473,476.295898 L229.959473,489.63623 L222.966309,489.63623 L222.966309,476.295898 L221.5,476.295898 L221.5,489.63623 L214.506836,489.63623 L214.506836,476.295898 L213.040527,476.295898 L213.040527,491 L231.436035,491 Z M245.986328,491 L245.986328,489.63623 L236.973145,489.63623 L236.973145,484.109375 L244.509766,484.109375 L244.509766,482.745605 L236.973145,482.745605 L236.973145,477.669922 L245.770996,477.669922 L245.770996,476.295898 L235.506836,476.295898 L235.506836,491 L245.986328,491 Z M253.666504,491.23584 C257.306641,491.266602 259.32666,489.349121 259.295898,486.990723 C259.295898,485.09375 258.424316,483.935059 256.506836,483.483887 C258.219238,482.837891 259.029297,481.597168 259.029297,480.120605 C259.029297,477.567383 256.9375,476.09068 253.963867,476.09068 C250.19043,476.070312 248.467773,478.305664 248.17041,480.817871 L249.616211,480.817871 C249.729004,479.84375 250.128906,479.033691 250.826172,478.408203 C251.533691,477.772461 252.57959,477.45459 253.963867,477.45459 C256.301758,477.45459 257.552734,478.623535 257.552734,480.161621 C257.552734,481.833008 256.188965,482.868652 254.107422,482.868652 L251.943848,482.868652 L251.943848,484.242676 L254.179199,484.242676 C256.588867,484.242676 257.788574,485.104004 257.788574,486.836914 C257.788574,488.518555 256.404297,489.861816 253.666504,489.861816 C251.185059,489.861816 249.698242,488.549316 249.53418,486.488281 L248.067871,486.488281 C248.313965,489.482422 250.251953,491.23584 253.666504,491.23584 Z M261.705566,491 C263.858887,491 264.525391,490.046387 264.709961,488.210937 C264.781738,487.441895 264.853516,486.17041 264.925293,484.375977 C264.991089,482.731079 265.02242,481.361898 265.027185,480.268433 L265.027832,477.669922 L271.723633,477.669922 L271.723633,491 L273.200195,491 L273.200195,476.295898 L263.643555,476.295898 L263.643555,480.038574 C263.643555,481.463867 263.623047,482.971191 263.571777,484.570801 C263.520508,486.17041 263.458984,487.288086 263.387207,487.934082 C263.26416,489.123535 262.936035,489.63623 261.705566,489.63623 L260.516113,489.63623 L260.516113,491 L261.705566,491 Z M283.084961,491.205078 C286.930176,491.246094 289.842285,488.272461 289.80127,483.647949 C289.842285,479.023437 286.930176,476.049805 283.084961,476.09082 C279.239746,476.049805 276.327637,479.023437 276.368652,483.647949 C276.327637,488.272461 279.239746,491.246094 283.084961,491.205078 Z M283.1875,489.841309 L282.982422,489.841309 C280.008789,489.87207 277.804199,487.411133 277.834961,483.647949 C277.804199,479.884766 280.008789,477.423828 282.982422,477.45459 L283.1875,477.45459 C286.161133,477.423828 288.365723,479.884766 288.334961,483.647949 C288.365723,487.411133 286.161133,489.87207 283.1875,489.841309 Z M294.446289,491 L294.446289,484.324707 L302.741699,484.324707 L302.741699,491 L304.208008,491 L304.208008,476.295898 L302.741699,476.295898 L302.741699,482.960937 L294.446289,482.960937 L294.446289,476.295898 L292.97998,476.295898 L292.97998,491 L294.446289,491 Z M309.755371,491 L309.755371,477.669922 L316.645996,477.669922 L316.645996,476.295898 L308.289062,476.295898 L308.289062,491 L309.755371,491 Z M321.034668,491 L329.094238,477.772461 L329.094238,491 L330.560547,491 L330.560547,476.295898 L328.396973,476.295898 L320.337402,489.533691 L320.337402,476.295898 L318.871094,476.295898 L318.871094,491 L321.034668,491 Z" id="ШЕЗЛОНГИ" fill="#FFFFFF" fill-rule="nonzero"></path>
        <path d="M21.8701172,328.205078 C26.0742188,328.256348 28.3198242,324.811035 28.2890625,320.36084 C28.2890625,315.900391 26.1357422,313.09082 21.8701172,313.09082 C18.3837891,313.09082 16.2919922,315.008301 15.984375,317.817871 L17.4609375,317.817871 C17.6967773,315.654297 19.6245117,314.434082 21.7573242,314.45459 L21.9726562,314.45459 C23.5415039,314.45459 24.7207031,314.92627 25.5,315.879883 C26.2895508,316.823242 26.7202148,318.115234 26.8022461,319.745605 L20.0449219,319.745605 L20.0449219,321.109375 L26.8022461,321.109375 C26.6074219,324.308594 25.2026367,326.851562 22.0546875,326.841309 L21.8496094,326.841309 C19.706543,326.861816 17.5737305,325.651855 17.3686523,323.488281 L15.9023438,323.488281 C16.1074219,326.441406 18.7426758,328.23584 21.8701172,328.205078 Z M32.9545898,328 L32.9545898,323.416504 L36.1230469,320.278809 L41.4140625,328 L43.2495117,328 L37.1791992,319.23291 L43.1572266,313.295898 L41.2089844,313.295898 L32.9545898,321.48877 L32.9545898,313.295898 L31.4882812,313.295898 L31.4882812,328 L32.9545898,328 Z M47.0024414,328 L47.0024414,321.950195 L51.4116211,321.950195 C53.9648438,321.980957 56.0668945,320.401855 56.0361328,317.643555 C56.0771484,314.895508 53.9545898,313.275391 51.4116211,313.295898 L45.5361328,313.295898 L45.5361328,328 L47.0024414,328 Z M51.09375,320.586426 L47.0024414,320.586426 L47.0024414,314.669922 L51.09375,314.669922 C52.1499023,314.669922 52.9907227,314.92627 53.6162109,315.428711 C54.2416992,315.931152 54.5595703,316.669434 54.5595703,317.643555 C54.5595703,319.581543 53.2265625,320.586426 51.09375,320.586426 Z M57.5229492,328 L59.1635742,323.949707 L66.6796875,323.949707 L68.3203125,328 L69.8686523,328 L63.8803711,313.295898 L62.034668,313.295898 L56.0053711,328 L57.5229492,328 Z M66.1362305,322.585938 L59.7070312,322.585938 L62.9267578,314.649414 L66.1362305,322.585938 Z M73.5600586,328 L73.5600586,321.324707 L81.8554688,321.324707 L81.8554688,328 L83.3217773,328 L83.3217773,313.295898 L81.8554688,313.295898 L81.8554688,319.960938 L73.5600586,319.960938 L73.5600586,313.295898 L72.09375,313.295898 L72.09375,328 L73.5600586,328 Z" id="ЭКРАН" fill="#FFFFFF" fill-rule="nonzero" transform="translate(49.612061, 320.648232) rotate(-90.000000) translate(-49.612061, -320.648232) "></path>
        <path d="M1207.31592,288 C1209.65381,288.030762 1211.58154,286.390137 1211.54053,283.949707 C1211.57129,281.85791 1210.10498,280.760742 1208.87451,280.54541 C1210.12549,280.17627 1211.22266,278.771484 1211.22266,277.141113 C1211.25342,274.782715 1209.47949,273.275391 1207.17236,273.295898 L1201.04053,273.295898 L1201.04053,288 L1207.31592,288 Z M1207.01855,279.868652 L1202.50684,279.868652 L1202.50684,274.669922 L1207.01855,274.669922 C1208.61816,274.669922 1209.75635,275.613281 1209.75635,277.26416 C1209.75635,278.925293 1208.61816,279.868652 1207.01855,279.868652 Z M1206.99805,286.63623 L1202.50684,286.63623 L1202.50684,281.242676 L1207.01855,281.242676 C1207.94141,281.242676 1208.67969,281.478516 1209.2334,281.939941 C1209.78711,282.401367 1210.06396,283.057617 1210.06396,283.929199 C1210.06396,285.692871 1208.80273,286.63623 1206.99805,286.63623 Z M1225.29102,288 L1225.29102,286.63623 L1216.27783,286.63623 L1216.27783,281.109375 L1223.81445,281.109375 L1223.81445,279.745605 L1216.27783,279.745605 L1216.27783,274.669922 L1225.07568,274.669922 L1225.07568,273.295898 L1214.81152,273.295898 L1214.81152,288 L1225.29102,288 Z M1229.76172,288 L1229.76172,281.950195 L1234.1709,281.950195 C1236.72412,281.980957 1238.82617,280.401855 1238.79541,277.643555 C1238.83643,274.895508 1236.71387,273.275391 1234.1709,273.295898 L1228.29541,273.295898 L1228.29541,288 L1229.76172,288 Z M1233.85303,280.586426 L1229.76172,280.586426 L1229.76172,274.669922 L1233.85303,274.669922 C1234.90918,274.669922 1235.75,274.92627 1236.37549,275.428711 C1237.00098,275.931152 1237.31885,276.669434 1237.31885,277.643555 C1237.31885,279.581543 1235.98584,280.586426 1233.85303,280.586426 Z M1240.28223,288 L1241.92285,283.949707 L1249.43896,283.949707 L1251.07959,288 L1252.62793,288 L1246.63965,273.295898 L1244.79395,273.295898 L1238.76465,288 L1240.28223,288 Z M1248.89551,282.585938 L1242.46631,282.585938 L1245.68604,274.649414 L1248.89551,282.585938 Z M1256.31934,288 L1256.31934,281.324707 L1264.61475,281.324707 L1264.61475,288 L1266.08105,288 L1266.08105,273.295898 L1264.61475,273.295898 L1264.61475,279.960938 L1256.31934,279.960938 L1256.31934,273.295898 L1254.85303,273.295898 L1254.85303,288 L1256.31934,288 Z M1269.84424,291.147949 L1269.84424,288 L1282.12842,288 L1282.12842,291.147949 L1283.55371,291.147949 L1283.55371,286.63623 L1281.24658,286.63623 L1281.24658,273.295898 L1271.50537,273.295898 L1271.50537,277.038574 C1271.50537,278.545898 1271.48486,280.032715 1271.43359,281.478516 C1271.39258,282.924316 1271.3208,284.021484 1271.20801,284.749512 C1271.03369,285.928711 1270.77734,286.605469 1269.62891,286.63623 L1268.41895,286.63623 L1268.41895,291.147949 L1269.84424,291.147949 Z M1279.78027,286.63623 L1272.1001,286.63623 C1272.39746,286.287598 1272.58203,285.692871 1272.65381,284.852051 C1272.72559,284.103516 1272.79736,282.924316 1272.84863,281.314453 C1272.8999,279.694336 1272.93066,278.248535 1272.93066,276.977051 L1272.93066,274.669922 L1279.78027,274.669922 L1279.78027,286.63623 Z M1285.65576,288 L1287.29639,283.949707 L1294.8125,283.949707 L1296.45312,288 L1298.00146,288 L1292.01318,273.295898 L1290.16748,273.295898 L1284.13818,288 L1285.65576,288 Z M1294.26904,282.585938 L1287.83984,282.585938 L1291.05957,274.649414 L1294.26904,282.585938 Z" id="ВЕРАНДА" fill="#FFFFFF" fill-rule="nonzero"></path>
        <path d="M632.349609,244 L632.349609,212.261719 L651.661133,212.261719 L651.661133,244 L655.152344,244 L655.152344,208.990234 L628.858398,208.990234 L628.858398,244 L632.349609,244 Z M664.014648,244 L667.920898,234.356445 L685.816406,234.356445 L689.722656,244 L693.40918,244 L679.151367,208.990234 L674.756836,208.990234 L660.401367,244 L664.014648,244 Z M684.522461,231.109375 L669.214844,231.109375 L676.880859,212.212891 L684.522461,231.109375 Z M702.198242,244 L702.198242,229.595703 L712.696289,229.595703 C718.775391,229.668945 723.780273,225.90918 723.707031,219.341797 C723.803112,212.90436 718.912659,209.066538 712.988459,208.990915 L698.707031,208.990234 L698.707031,244 L702.198242,244 Z M711.939453,226.348633 L702.198242,226.348633 L702.198242,212.261719 L711.939453,212.261719 C714.454102,212.261719 716.456055,212.87207 717.945312,214.068359 C719.43457,215.264648 720.191406,217.022461 720.191406,219.341797 C720.191406,223.956055 717.017578,226.348633 711.939453,226.348633 Z M733.887695,244 L733.887695,233.086914 L741.431641,225.616211 L754.029297,244 L758.399414,244 L743.946289,223.125977 L758.179688,208.990234 L753.541016,208.990234 L733.887695,228.49707 L733.887695,208.990234 L730.396484,208.990234 L730.396484,244 L733.887695,244 Z M791.96875,226.495117 C792.065297,215.609497 785.289486,208.565715 776.288783,208.5014 L775.977539,208.501953 C766.822266,208.404297 759.888672,215.484375 759.986328,226.495117 C759.889782,237.380737 766.665592,244.424519 775.666295,244.488835 L775.977539,244.488281 C785.132812,244.585938 792.066406,237.505859 791.96875,226.495117 Z M776.22168,241.241211 L775.733398,241.241211 C768.750308,241.31345 763.548449,235.614496 763.477516,226.861582 L763.477539,226.495117 C763.4053,217.657895 768.51051,211.836894 775.443476,211.749346 L776.22168,211.749023 C783.20477,211.676785 788.406629,217.375739 788.477562,226.128652 L788.477539,226.495117 C788.550781,235.455078 783.301758,241.314453 776.22168,241.241211 Z M824.537109,234.356445 C824.610352,229.375977 821.119141,226.763672 818.189453,226.250977 C821.167969,225.37207 823.780273,222.027344 823.780273,218.145508 C823.852253,212.627088 819.774248,209.065763 814.4197,208.990945 L799.537109,208.990234 L799.537109,244 L814.478516,244 C820.044922,244.073242 824.634766,240.166992 824.537109,234.356445 Z M813.770508,224.639648 L803.02832,224.639648 L803.02832,212.261719 L813.770508,212.261719 C817.579102,212.261719 820.289062,214.507813 820.289062,218.438477 C820.289062,222.393555 817.579102,224.639648 813.770508,224.639648 Z M813.72168,240.75293 L803.02832,240.75293 L803.02832,227.911133 L813.770508,227.911133 C815.967773,227.911133 817.725586,228.472656 819.043945,229.571289 C820.362305,230.669922 821.021484,232.232422 821.021484,234.307617 C821.021484,238.506836 818.018555,240.75293 813.72168,240.75293 Z M835.816406,244 L835.816406,233.086914 L843.360352,225.616211 L855.958008,244 L860.328125,244 L845.875,223.125977 L860.108398,208.990234 L855.469727,208.990234 L835.816406,228.49707 L835.816406,208.990234 L832.325195,208.990234 L832.325195,244 L835.816406,244 Z M864.917969,244 L868.824219,234.356445 L886.719727,234.356445 L890.625977,244 L894.3125,244 L880.054688,208.990234 L875.660156,208.990234 L861.304688,244 L864.917969,244 Z M885.425781,231.109375 L870.118164,231.109375 L877.78418,212.212891 L885.425781,231.109375 Z" id="ПАРКОВКА" fill="#FFFFFF" fill-rule="nonzero" transform="translate(761.585449, 226.495117) rotate(-90.000000) translate(-761.585449, -226.495117) "></path>
    </g>
</svg>