<?xml version="1.0" encoding="UTF-8"?>
<svg width="1367px" height="782px" viewBox="0 0 1367 782" version="1.1" xmlns="http://www.w3.org/2000/svg" xmlns:xlink="http://www.w3.org/1999/xlink">
    <title>WRS Copy 2</title>
    <g id="WRS-Copy-2" stroke="none" stroke-width="1" fill="none" fill-rule="evenodd">
        <rect fill="#FFFFFF" x="0" y="0" width="1367" height="782"></rect>
        <rect id="Rectangle-Copy-94" stroke="#000000" fill="#FFFFFF" x="326" y="621" width="146" height="147"></rect>
        <rect id="Rectangle" stroke="#000000" fill="#FFFFFF" x="769.5" y="33.5" width="78" height="42"></rect>
        <rect id="Rectangle-Copy-2" stroke="#000000" fill="#FFFFFF" x="769.5" y="81.5" width="78" height="42"></rect>
        <rect id="Rectangle-Copy-24" stroke="#000000" fill="#FFFFFF" x="507.5" y="81.5" width="78" height="42"></rect>
        <rect id="Rectangle" stroke="#000000" fill="#FFFFFF" x="222.5" y="447.5" width="23" height="12"></rect>
        <rect id="Rectangle-Copy-61" stroke="#000000" fill="#FFFFFF" x="254.5" y="447.5" width="23" height="12"></rect>
        <rect id="Rectangle-Copy-40" stroke="#000000" fill="#FFFFFF" x="222.5" y="429.5" width="23" height="12"></rect>
        <rect id="Rectangle-Copy-62" stroke="#000000" fill="#FFFFFF" x="254.5" y="429.5" width="23" height="12"></rect>
        <rect id="Rectangle-Copy-41" stroke="#000000" fill="#FFFFFF" x="222.5" y="411.5" width="23" height="12"></rect>
        <rect id="Rectangle-Copy-63" stroke="#000000" fill="#FFFFFF" x="254.5" y="411.5" width="23" height="12"></rect>
        <rect id="Rectangle-Copy-47" stroke="#000000" fill="#FFFFFF" x="222.5" y="393.5" width="23" height="12"></rect>
        <rect id="Rectangle-Copy-64" stroke="#000000" fill="#FFFFFF" x="254.5" y="393.5" width="23" height="12"></rect>
        <rect id="Rectangle-Copy-48" stroke="#000000" fill="#FFFFFF" x="222.5" y="375.5" width="23" height="12"></rect>
        <rect id="Rectangle-Copy-65" stroke="#000000" fill="#FFFFFF" x="254.5" y="375.5" width="23" height="12"></rect>
        <rect id="Rectangle-Copy-49" stroke="#000000" fill="#FFFFFF" x="222.5" y="357.5" width="23" height="12"></rect>
        <rect id="Rectangle-Copy-66" stroke="#000000" fill="#FFFFFF" x="254.5" y="357.5" width="23" height="12"></rect>
        <rect id="Rectangle-Copy-50" stroke="#000000" fill="#FFFFFF" x="222.5" y="339.5" width="23" height="12"></rect>
        <rect id="Rectangle-Copy-67" stroke="#000000" fill="#FFFFFF" x="254.5" y="339.5" width="23" height="12"></rect>
        <rect id="Rectangle-Copy-51" stroke="#000000" fill="#FFFFFF" x="222.5" y="321.5" width="23" height="12"></rect>
        <rect id="Rectangle-Copy-68" stroke="#000000" fill="#FFFFFF" x="254.5" y="321.5" width="23" height="12"></rect>
        <rect id="Rectangle-Copy-52" stroke="#000000" fill="#FFFFFF" x="222.5" y="303.5" width="23" height="12"></rect>
        <rect id="Rectangle-Copy-69" stroke="#000000" fill="#FFFFFF" x="254.5" y="303.5" width="23" height="12"></rect>
        <rect id="Rectangle-Copy-53" stroke="#000000" fill="#FFFFFF" x="222.5" y="285.5" width="23" height="12"></rect>
        <rect id="Rectangle-Copy-70" stroke="#000000" fill="#FFFFFF" x="254.5" y="285.5" width="23" height="12"></rect>
        <rect id="Rectangle-Copy-54" stroke="#000000" fill="#FFFFFF" x="222.5" y="267.5" width="23" height="12"></rect>
        <rect id="Rectangle-Copy-71" stroke="#000000" fill="#FFFFFF" x="254.5" y="267.5" width="23" height="12"></rect>
        <rect id="Rectangle-Copy-55" stroke="#000000" fill="#FFFFFF" x="222.5" y="249.5" width="23" height="12"></rect>
        <rect id="Rectangle-Copy-72" stroke="#000000" fill="#FFFFFF" x="254.5" y="249.5" width="23" height="12"></rect>
        <rect id="Rectangle-Copy-56" stroke="#000000" fill="#FFFFFF" x="222.5" y="231.5" width="23" height="12"></rect>
        <rect id="Rectangle-Copy-73" stroke="#000000" fill="#FFFFFF" x="254.5" y="231.5" width="23" height="12"></rect>
        <rect id="Rectangle-Copy-57" stroke="#000000" fill="#FFFFFF" x="222.5" y="213.5" width="23" height="12"></rect>
        <rect id="Rectangle-Copy-74" stroke="#000000" fill="#FFFFFF" x="254.5" y="213.5" width="23" height="12"></rect>
        <rect id="Rectangle-Copy-58" stroke="#000000" fill="#FFFFFF" x="222.5" y="195.5" width="23" height="12"></rect>
        <rect id="Rectangle-Copy-75" stroke="#000000" fill="#FFFFFF" x="254.5" y="195.5" width="23" height="12"></rect>
        <rect id="Rectangle-Copy-59" stroke="#000000" fill="#FFFFFF" x="222.5" y="177.5" width="23" height="12"></rect>
        <rect id="Rectangle-Copy-76" stroke="#000000" fill="#FFFFFF" x="254.5" y="177.5" width="23" height="12"></rect>
        <rect id="Rectangle-Copy-92" stroke="#000000" fill="#FFFFFF" x="286.5" y="447.5" width="23" height="12"></rect>
        <rect id="Rectangle-Copy-91" stroke="#000000" fill="#FFFFFF" x="286.5" y="429.5" width="23" height="12"></rect>
        <rect id="Rectangle-Copy-90" stroke="#000000" fill="#FFFFFF" x="286.5" y="411.5" width="23" height="12"></rect>
        <rect id="Rectangle-Copy-89" stroke="#000000" fill="#FFFFFF" x="286.5" y="393.5" width="23" height="12"></rect>
        <rect id="Rectangle-Copy-88" stroke="#000000" fill="#FFFFFF" x="286.5" y="375.5" width="23" height="12"></rect>
        <rect id="Rectangle-Copy-87" stroke="#000000" fill="#FFFFFF" x="286.5" y="357.5" width="23" height="12"></rect>
        <rect id="Rectangle-Copy-86" stroke="#000000" fill="#FFFFFF" x="286.5" y="339.5" width="23" height="12"></rect>
        <rect id="Rectangle-Copy-85" stroke="#000000" fill="#FFFFFF" x="286.5" y="321.5" width="23" height="12"></rect>
        <rect id="Rectangle-Copy-84" stroke="#000000" fill="#FFFFFF" x="286.5" y="303.5" width="23" height="12"></rect>
        <rect id="Rectangle-Copy-83" stroke="#000000" fill="#FFFFFF" x="286.5" y="285.5" width="23" height="12"></rect>
        <rect id="Rectangle-Copy-82" stroke="#000000" fill="#FFFFFF" x="286.5" y="267.5" width="23" height="12"></rect>
        <rect id="Rectangle-Copy-81" stroke="#000000" fill="#FFFFFF" x="286.5" y="249.5" width="23" height="12"></rect>
        <rect id="Rectangle-Copy-80" stroke="#000000" fill="#FFFFFF" x="286.5" y="231.5" width="23" height="12"></rect>
        <rect id="Rectangle-Copy-79" stroke="#000000" fill="#FFFFFF" x="286.5" y="213.5" width="23" height="12"></rect>
        <rect id="Rectangle-Copy-78" stroke="#000000" fill="#FFFFFF" x="286.5" y="195.5" width="23" height="12"></rect>
        <rect id="Rectangle-Copy-77" stroke="#000000" fill="#FFFFFF" x="286.5" y="177.5" width="23" height="12"></rect>
        <rect id="Rectangle-Copy-99" stroke="#000000" fill="#FFFFFF" x="1152.5" y="249.5" width="23" height="12"></rect>
        <rect id="Rectangle-Copy-125" stroke="#000000" fill="#FFFFFF" x="339.5" y="742.5" width="23" height="12"></rect>
        <rect id="Rectangle-Copy-100" stroke="#000000" fill="#FFFFFF" x="1184.5" y="249.5" width="23" height="12"></rect>
        <rect id="Rectangle-Copy-126" stroke="#000000" fill="#FFFFFF" x="371.5" y="742.5" width="23" height="12"></rect>
        <rect id="Rectangle-Copy-101" stroke="#000000" fill="#FFFFFF" x="1152.5" y="231.5" width="23" height="12"></rect>
        <rect id="Rectangle-Copy-127" stroke="#000000" fill="#FFFFFF" x="339.5" y="724.5" width="23" height="12"></rect>
        <rect id="Rectangle-Copy-102" stroke="#000000" fill="#FFFFFF" x="1184.5" y="231.5" width="23" height="12"></rect>
        <rect id="Rectangle-Copy-141" stroke="#000000" fill="#FFFFFF" x="371.5" y="724.5" width="23" height="12"></rect>
        <rect id="Rectangle-Copy-103" stroke="#000000" fill="#FFFFFF" x="1152.5" y="213.5" width="23" height="12"></rect>
        <rect id="Rectangle-Copy-142" stroke="#000000" fill="#FFFFFF" x="339.5" y="706.5" width="23" height="12"></rect>
        <rect id="Rectangle-Copy-104" stroke="#000000" fill="#FFFFFF" x="1184.5" y="213.5" width="23" height="12"></rect>
        <rect id="Rectangle-Copy-143" stroke="#000000" fill="#FFFFFF" x="371.5" y="706.5" width="23" height="12"></rect>
        <rect id="Rectangle-Copy-105" stroke="#000000" fill="#FFFFFF" x="1152.5" y="195.5" width="23" height="12"></rect>
        <rect id="Rectangle-Copy-144" stroke="#000000" fill="#FFFFFF" x="339.5" y="688.5" width="23" height="12"></rect>
        <rect id="Rectangle-Copy-106" stroke="#000000" fill="#FFFFFF" x="1184.5" y="195.5" width="23" height="12"></rect>
        <rect id="Rectangle-Copy-145" stroke="#000000" fill="#FFFFFF" x="371.5" y="688.5" width="23" height="12"></rect>
        <rect id="Rectangle-Copy-107" stroke="#000000" fill="#FFFFFF" x="1152.5" y="177.5" width="23" height="12"></rect>
        <rect id="Rectangle-Copy-146" stroke="#000000" fill="#FFFFFF" x="339.5" y="670.5" width="23" height="12"></rect>
        <rect id="Rectangle-Copy-108" stroke="#000000" fill="#FFFFFF" x="1184.5" y="177.5" width="23" height="12"></rect>
        <rect id="Rectangle-Copy-147" stroke="#000000" fill="#FFFFFF" x="371.5" y="670.5" width="23" height="12"></rect>
        <rect id="Rectangle-Copy-109" stroke="#000000" fill="#FFFFFF" x="1152.5" y="159.5" width="23" height="12"></rect>
        <rect id="Rectangle-Copy-148" stroke="#000000" fill="#FFFFFF" x="339.5" y="652.5" width="23" height="12"></rect>
        <rect id="Rectangle-Copy-110" stroke="#000000" fill="#FFFFFF" x="1184.5" y="159.5" width="23" height="12"></rect>
        <rect id="Rectangle-Copy-149" stroke="#000000" fill="#FFFFFF" x="371.5" y="652.5" width="23" height="12"></rect>
        <rect id="Rectangle-Copy-111" stroke="#000000" fill="#FFFFFF" x="1152.5" y="141.5" width="23" height="12"></rect>
        <rect id="Rectangle-Copy-150" stroke="#000000" fill="#FFFFFF" x="339.5" y="634.5" width="23" height="12"></rect>
        <rect id="Rectangle-Copy-112" stroke="#000000" fill="#FFFFFF" x="1184.5" y="141.5" width="23" height="12"></rect>
        <rect id="Rectangle-Copy-151" stroke="#000000" fill="#FFFFFF" x="371.5" y="634.5" width="23" height="12"></rect>
        <rect id="Rectangle-Copy-113" stroke="#000000" fill="#FFFFFF" x="1152.5" y="123.5" width="23" height="12"></rect>
        <rect id="Rectangle-Copy-114" stroke="#000000" fill="#FFFFFF" x="1184.5" y="123.5" width="23" height="12"></rect>
        <rect id="Rectangle-Copy-115" stroke="#000000" fill="#FFFFFF" x="1152.5" y="105.5" width="23" height="12"></rect>
        <rect id="Rectangle-Copy-116" stroke="#000000" fill="#FFFFFF" x="1184.5" y="105.5" width="23" height="12"></rect>
        <rect id="Rectangle-Copy-117" stroke="#000000" fill="#FFFFFF" x="1152.5" y="87.5" width="23" height="12"></rect>
        <rect id="Rectangle-Copy-118" stroke="#000000" fill="#FFFFFF" x="1184.5" y="87.5" width="23" height="12"></rect>
        <rect id="Rectangle-Copy-119" stroke="#000000" fill="#FFFFFF" x="1152.5" y="69.5" width="23" height="12"></rect>
        <rect id="Rectangle-Copy-120" stroke="#000000" fill="#FFFFFF" x="1184.5" y="69.5" width="23" height="12"></rect>
        <rect id="Rectangle-Copy-121" stroke="#000000" fill="#FFFFFF" x="1152.5" y="51.5" width="23" height="12"></rect>
        <rect id="Rectangle-Copy-122" stroke="#000000" fill="#FFFFFF" x="1184.5" y="51.5" width="23" height="12"></rect>
        <rect id="Rectangle-Copy-123" stroke="#000000" fill="#FFFFFF" x="1152.5" y="33.5" width="23" height="12"></rect>
        <rect id="Rectangle-Copy-124" stroke="#000000" fill="#FFFFFF" x="1184.5" y="33.5" width="23" height="12"></rect>
        <rect id="Rectangle-Copy-128" stroke="#000000" fill="#FFFFFF" x="1216.5" y="249.5" width="23" height="12"></rect>
        <rect id="Rectangle-Copy-164" stroke="#000000" fill="#FFFFFF" x="403.5" y="742.5" width="23" height="12"></rect>
        <rect id="Rectangle-Copy-171" stroke="#000000" fill="#FFFFFF" x="435.5" y="742.5" width="23" height="12"></rect>
        <rect id="Rectangle-Copy-129" stroke="#000000" fill="#FFFFFF" x="1216.5" y="231.5" width="23" height="12"></rect>
        <rect id="Rectangle-Copy-165" stroke="#000000" fill="#FFFFFF" x="403.5" y="724.5" width="23" height="12"></rect>
        <rect id="Rectangle-Copy-172" stroke="#000000" fill="#FFFFFF" x="435.5" y="724.5" width="23" height="12"></rect>
        <rect id="Rectangle-Copy-130" stroke="#000000" fill="#FFFFFF" x="1216.5" y="213.5" width="23" height="12"></rect>
        <rect id="Rectangle-Copy-166" stroke="#000000" fill="#FFFFFF" x="403.5" y="706.5" width="23" height="12"></rect>
        <rect id="Rectangle-Copy-173" stroke="#000000" fill="#FFFFFF" x="435.5" y="706.5" width="23" height="12"></rect>
        <rect id="Rectangle-Copy-131" stroke="#000000" fill="#FFFFFF" x="1216.5" y="195.5" width="23" height="12"></rect>
        <rect id="Rectangle-Copy-167" stroke="#000000" fill="#FFFFFF" x="403.5" y="688.5" width="23" height="12"></rect>
        <rect id="Rectangle-Copy-174" stroke="#000000" fill="#FFFFFF" x="435.5" y="688.5" width="23" height="12"></rect>
        <rect id="Rectangle-Copy-132" stroke="#000000" fill="#FFFFFF" x="1216.5" y="177.5" width="23" height="12"></rect>
        <rect id="Rectangle-Copy-168" stroke="#000000" fill="#FFFFFF" x="403.5" y="670.5" width="23" height="12"></rect>
        <rect id="Rectangle-Copy-175" stroke="#000000" fill="#FFFFFF" x="435.5" y="670.5" width="23" height="12"></rect>
        <rect id="Rectangle-Copy-133" stroke="#000000" fill="#FFFFFF" x="1216.5" y="159.5" width="23" height="12"></rect>
        <rect id="Rectangle-Copy-169" stroke="#000000" fill="#FFFFFF" x="403.5" y="652.5" width="23" height="12"></rect>
        <rect id="Rectangle-Copy-176" stroke="#000000" fill="#FFFFFF" x="435.5" y="652.5" width="23" height="12"></rect>
        <rect id="Rectangle-Copy-134" stroke="#000000" fill="#FFFFFF" x="1216.5" y="141.5" width="23" height="12"></rect>
        <rect id="Rectangle-Copy-170" stroke="#000000" fill="#FFFFFF" x="403.5" y="634.5" width="23" height="12"></rect>
        <rect id="Rectangle-Copy-177" stroke="#000000" fill="#FFFFFF" x="435.5" y="634.5" width="23" height="12"></rect>
        <rect id="Rectangle-Copy-135" stroke="#000000" fill="#FFFFFF" x="1216.5" y="123.5" width="23" height="12"></rect>
        <rect id="Rectangle-Copy-136" stroke="#000000" fill="#FFFFFF" x="1216.5" y="105.5" width="23" height="12"></rect>
        <rect id="Rectangle-Copy-137" stroke="#000000" fill="#FFFFFF" x="1216.5" y="87.5" width="23" height="12"></rect>
        <rect id="Rectangle-Copy-138" stroke="#000000" fill="#FFFFFF" x="1216.5" y="69.5" width="23" height="12"></rect>
        <rect id="Rectangle-Copy-139" stroke="#000000" fill="#FFFFFF" x="1216.5" y="51.5" width="23" height="12"></rect>
        <rect id="Rectangle-Copy-140" stroke="#000000" fill="#FFFFFF" x="1216.5" y="33.5" width="23" height="12"></rect>
        <rect id="Rectangle-Copy" stroke="#000000" fill="#FFFFFF" x="864.5" y="33.5" width="78" height="42"></rect>
        <rect id="Rectangle-Copy-25" stroke="#000000" fill="#FFFFFF" x="602.5" y="33.5" width="78" height="42"></rect>
        <rect id="Rectangle-Copy-39" stroke="#000000" fill="#FFFFFF" x="507.5" y="33.5" width="78" height="42"></rect>
        <rect id="Rectangle-Copy-16" stroke="#000000" fill="#FFFFFF" x="1037.5" y="33.5" width="78" height="42"></rect>
        <rect id="Rectangle-Copy-3" stroke="#000000" fill="#FFFFFF" x="864.5" y="81.5" width="78" height="42"></rect>
        <rect id="Rectangle-Copy-26" stroke="#000000" fill="#FFFFFF" x="602.5" y="81.5" width="78" height="42"></rect>
        <rect id="Rectangle-Copy-17" stroke="#000000" fill="#FFFFFF" x="1037.5" y="81.5" width="78" height="42"></rect>
        <rect id="Rectangle-Copy-5" stroke="#000000" fill="#FFFFFF" x="769.5" y="129.5" width="78" height="42"></rect>
        <rect id="Rectangle-Copy-27" stroke="#000000" fill="#FFFFFF" x="507.5" y="129.5" width="78" height="42"></rect>
        <rect id="Rectangle-Copy-4" stroke="#000000" fill="#FFFFFF" x="864.5" y="129.5" width="78" height="42"></rect>
        <rect id="Rectangle-Copy-28" stroke="#000000" fill="#FFFFFF" x="602.5" y="129.5" width="78" height="42"></rect>
        <rect id="Rectangle-Copy-18" stroke="#000000" fill="#FFFFFF" x="1037.5" y="129.5" width="78" height="42"></rect>
        <rect id="Rectangle-Copy-7" stroke="#000000" fill="#FFFFFF" x="769.5" y="177.5" width="78" height="42"></rect>
        <rect id="Rectangle-Copy-29" stroke="#000000" fill="#FFFFFF" x="507.5" y="177.5" width="78" height="42"></rect>
        <rect id="Rectangle-Copy-6" stroke="#000000" fill="#FFFFFF" x="864.5" y="177.5" width="78" height="42"></rect>
        <rect id="Rectangle-Copy-30" stroke="#000000" fill="#FFFFFF" x="602.5" y="177.5" width="78" height="42"></rect>
        <rect id="Rectangle-Copy-19" stroke="#000000" fill="#FFFFFF" x="1037.5" y="177.5" width="78" height="42"></rect>
        <rect id="Rectangle-Copy-42" stroke="#000000" fill="#FFFFFF" x="340.5" y="177.5" width="78" height="42"></rect>
        <rect id="Rectangle-Copy-9" stroke="#000000" fill="#FFFFFF" x="769.5" y="225.5" width="78" height="42"></rect>
        <rect id="Rectangle-Copy-31" stroke="#000000" fill="#FFFFFF" x="507.5" y="225.5" width="78" height="42"></rect>
        <rect id="Rectangle-Copy-8" stroke="#000000" fill="#FFFFFF" x="864.5" y="225.5" width="78" height="42"></rect>
        <rect id="Rectangle-Copy-32" stroke="#000000" fill="#FFFFFF" x="602.5" y="225.5" width="78" height="42"></rect>
        <rect id="Rectangle-Copy-20" stroke="#000000" fill="#FFFFFF" x="1037.5" y="225.5" width="78" height="42"></rect>
        <rect id="Rectangle-Copy-43" stroke="#000000" fill="#FFFFFF" x="340.5" y="225.5" width="78" height="42"></rect>
        <rect id="Rectangle-Copy-11" stroke="#000000" fill="#FFFFFF" x="769.5" y="273.5" width="78" height="42"></rect>
        <rect id="Rectangle-Copy-33" stroke="#000000" fill="#FFFFFF" x="507.5" y="273.5" width="78" height="42"></rect>
        <rect id="Rectangle-Copy-10" stroke="#000000" fill="#FFFFFF" x="864.5" y="273.5" width="78" height="42"></rect>
        <rect id="Rectangle-Copy-34" stroke="#000000" fill="#FFFFFF" x="602.5" y="273.5" width="78" height="42"></rect>
        <rect id="Rectangle-Copy-21" stroke="#000000" fill="#FFFFFF" x="1037.5" y="273.5" width="78" height="42"></rect>
        <rect id="Rectangle-Copy-44" stroke="#000000" fill="#FFFFFF" x="340.5" y="273.5" width="78" height="42"></rect>
        <rect id="Rectangle-Copy-13" stroke="#000000" fill="#FFFFFF" x="769.5" y="321.5" width="78" height="42"></rect>
        <rect id="Rectangle-Copy-35" stroke="#000000" fill="#FFFFFF" x="507.5" y="321.5" width="78" height="42"></rect>
        <rect id="Rectangle-Copy-12" stroke="#000000" fill="#FFFFFF" x="864.5" y="321.5" width="78" height="42"></rect>
        <rect id="Rectangle-Copy-36" stroke="#000000" fill="#FFFFFF" x="602.5" y="321.5" width="78" height="42"></rect>
        <rect id="Rectangle-Copy-22" stroke="#000000" fill="#FFFFFF" x="1037.5" y="321.5" width="78" height="42"></rect>
        <rect id="Rectangle-Copy-45" stroke="#000000" fill="#FFFFFF" x="340.5" y="321.5" width="78" height="42"></rect>
        <rect id="Rectangle-Copy-15" stroke="#000000" fill="#FFFFFF" x="769.5" y="369.5" width="78" height="42"></rect>
        <rect id="Rectangle-Copy-37" stroke="#000000" fill="#FFFFFF" x="507.5" y="369.5" width="78" height="42"></rect>
        <rect id="Rectangle-Copy-14" stroke="#000000" fill="#FFFFFF" x="864.5" y="369.5" width="78" height="42"></rect>
        <rect id="Rectangle-Copy-38" stroke="#000000" fill="#FFFFFF" x="602.5" y="369.5" width="78" height="42"></rect>
        <rect id="Rectangle-Copy-23" stroke="#000000" fill="#FFFFFF" x="1037.5" y="369.5" width="78" height="42"></rect>
        <rect id="Rectangle-Copy-46" stroke="#000000" fill="#FFFFFF" x="340.5" y="369.5" width="78" height="42"></rect>
        <rect id="Rectangle-Copy-60" stroke="#000000" fill="#FFFFFF" x="340.5" y="417.5" width="78" height="42"></rect>
        <rect id="Rectangle" stroke="#000000" fill="#FFFFFF" x="28.5" y="177.5" width="47" height="282"></rect>
        <text id="Балкон" font-family="FavoritPro-Light, Favorit Pro" font-size="21" font-weight="300" line-spacing="20" fill="#000000">
            <tspan x="355" y="620">БАЛКОН</tspan>
        </text>
        <text id="Шезлонги" font-family="FavoritPro-Light, Favorit Pro" font-size="21" font-weight="300" line-spacing="20" fill="#000000">
            <tspan x="205" y="492">ШЕЗЛОНГИ</tspan>
        </text>
        <text id="Экран" transform="translate(52.000000, 319.500000) rotate(-90.000000) translate(-52.000000, -319.500000) " font-family="FavoritPro-Light, Favorit Pro" font-size="21" font-weight="300" line-spacing="20" fill="#000000">
            <tspan x="16.5" y="328.5">ЭКРАН</tspan>
        </text>
        <text id="Веранда" font-family="FavoritPro-Light, Favorit Pro" font-size="21" font-weight="300" line-spacing="20" fill="#000000">
            <tspan x="1146" y="289">ВЕРАНДА</tspan>
        </text>
        <text id="Парковка" transform="translate(724.000000, 224.500000) rotate(-90.000000) translate(-724.000000, -224.500000) " font-family="FavoritPro-Light, Favorit Pro" font-size="50" font-weight="300" line-spacing="48" fill="#000000">
            <tspan x="588.5" y="246.5">ПАРКОВКА</tspan>
        </text>
    </g>
</svg>