<?xml version="1.0" encoding="UTF-8"?>
<svg width="1200px" height="800px" viewBox="0 0 1200 800" version="1.1" xmlns="http://www.w3.org/2000/svg" xmlns:xlink="http://www.w3.org/1999/xlink">
    <title>WRS Copy 8</title>
    <g id="WRS-Copy-8" stroke="none" stroke-width="1" fill="none" fill-rule="evenodd">
        <rect fill="#000000" x="0" y="0" width="1200" height="800"></rect>
        <g id="Group" transform="translate(80.000000, 130.000000)">
            <rect id="Rectangle" stroke="#FFFFFF" x="623.21489" y="0.5" width="72.2932985" height="38.9030471"></rect>
            <rect id="Rectangle-Copy-2" stroke="#FFFFFF" x="623.21489" y="45.0429363" width="72.2932985" height="38.9030471"></rect>
            <rect id="Rectangle-Copy-24" stroke="#FFFFFF" x="380.140912" y="45.0429363" width="72.2932985" height="38.9030471"></rect>
            <rect id="Rectangle" stroke="#FFFFFF" x="115.72838" y="384.682825" width="21.2663185" height="11.0637119"></rect>
            <rect id="Rectangle-Copy-61" stroke="#FFFFFF" x="145.416804" y="384.682825" width="21.2663185" height="11.0637119"></rect>
            <rect id="Rectangle-Copy-40" stroke="#FFFFFF" x="115.72838" y="367.979224" width="21.2663185" height="11.0637119"></rect>
            <rect id="Rectangle-Copy-62" stroke="#FFFFFF" x="145.416804" y="367.979224" width="21.2663185" height="11.0637119"></rect>
            <rect id="Rectangle-Copy-41" stroke="#FFFFFF" x="115.72838" y="351.275623" width="21.2663185" height="11.0637119"></rect>
            <rect id="Rectangle-Copy-63" stroke="#FFFFFF" x="145.416804" y="351.275623" width="21.2663185" height="11.0637119"></rect>
            <rect id="Rectangle-Copy-47" stroke="#FFFFFF" x="115.72838" y="334.572022" width="21.2663185" height="11.0637119"></rect>
            <rect id="Rectangle-Copy-64" stroke="#FFFFFF" x="145.416804" y="334.572022" width="21.2663185" height="11.0637119"></rect>
            <rect id="Rectangle-Copy-48" stroke="#FFFFFF" x="115.72838" y="317.868421" width="21.2663185" height="11.0637119"></rect>
            <rect id="Rectangle-Copy-65" stroke="#FFFFFF" x="145.416804" y="317.868421" width="21.2663185" height="11.0637119"></rect>
            <rect id="Rectangle-Copy-49" stroke="#FFFFFF" x="115.72838" y="301.16482" width="21.2663185" height="11.0637119"></rect>
            <rect id="Rectangle-Copy-66" stroke="#FFFFFF" x="145.416804" y="301.16482" width="21.2663185" height="11.0637119"></rect>
            <rect id="Rectangle-Copy-50" stroke="#FFFFFF" x="115.72838" y="284.461219" width="21.2663185" height="11.0637119"></rect>
            <rect id="Rectangle-Copy-67" stroke="#FFFFFF" x="145.416804" y="284.461219" width="21.2663185" height="11.0637119"></rect>
            <rect id="Rectangle-Copy-51" stroke="#FFFFFF" x="115.72838" y="267.757618" width="21.2663185" height="11.0637119"></rect>
            <rect id="Rectangle-Copy-68" stroke="#FFFFFF" x="145.416804" y="267.757618" width="21.2663185" height="11.0637119"></rect>
            <rect id="Rectangle-Copy-52" stroke="#FFFFFF" x="115.72838" y="251.054017" width="21.2663185" height="11.0637119"></rect>
            <rect id="Rectangle-Copy-69" stroke="#FFFFFF" x="145.416804" y="251.054017" width="21.2663185" height="11.0637119"></rect>
            <rect id="Rectangle-Copy-53" stroke="#FFFFFF" x="115.72838" y="234.350416" width="21.2663185" height="11.0637119"></rect>
            <rect id="Rectangle-Copy-70" stroke="#FFFFFF" x="145.416804" y="234.350416" width="21.2663185" height="11.0637119"></rect>
            <rect id="Rectangle-Copy-54" stroke="#FFFFFF" x="115.72838" y="217.646814" width="21.2663185" height="11.0637119"></rect>
            <rect id="Rectangle-Copy-71" stroke="#FFFFFF" x="145.416804" y="217.646814" width="21.2663185" height="11.0637119"></rect>
            <rect id="Rectangle-Copy-55" stroke="#FFFFFF" x="115.72838" y="200.943213" width="21.2663185" height="11.0637119"></rect>
            <rect id="Rectangle-Copy-72" stroke="#FFFFFF" x="145.416804" y="200.943213" width="21.2663185" height="11.0637119"></rect>
            <rect id="Rectangle-Copy-56" stroke="#FFFFFF" x="115.72838" y="184.239612" width="21.2663185" height="11.0637119"></rect>
            <rect id="Rectangle-Copy-73" stroke="#FFFFFF" x="145.416804" y="184.239612" width="21.2663185" height="11.0637119"></rect>
            <rect id="Rectangle-Copy-57" stroke="#FFFFFF" x="115.72838" y="167.536011" width="21.2663185" height="11.0637119"></rect>
            <rect id="Rectangle-Copy-74" stroke="#FFFFFF" x="145.416804" y="167.536011" width="21.2663185" height="11.0637119"></rect>
            <rect id="Rectangle-Copy-58" stroke="#FFFFFF" x="115.72838" y="150.83241" width="21.2663185" height="11.0637119"></rect>
            <rect id="Rectangle-Copy-75" stroke="#FFFFFF" x="145.416804" y="150.83241" width="21.2663185" height="11.0637119"></rect>
            <rect id="Rectangle-Copy-59" stroke="#FFFFFF" x="115.72838" y="134.128809" width="21.2663185" height="11.0637119"></rect>
            <rect id="Rectangle-Copy-76" stroke="#FFFFFF" x="145.416804" y="134.128809" width="21.2663185" height="11.0637119"></rect>
            <rect id="Rectangle-Copy-92" stroke="#FFFFFF" x="175.105229" y="384.682825" width="21.2663185" height="11.0637119"></rect>
            <rect id="Rectangle-Copy-91" stroke="#FFFFFF" x="175.105229" y="367.979224" width="21.2663185" height="11.0637119"></rect>
            <rect id="Rectangle-Copy-90" stroke="#FFFFFF" x="175.105229" y="351.275623" width="21.2663185" height="11.0637119"></rect>
            <rect id="Rectangle-Copy-89" stroke="#FFFFFF" x="175.105229" y="334.572022" width="21.2663185" height="11.0637119"></rect>
            <rect id="Rectangle-Copy-88" stroke="#FFFFFF" x="175.105229" y="317.868421" width="21.2663185" height="11.0637119"></rect>
            <rect id="Rectangle-Copy-87" stroke="#FFFFFF" x="175.105229" y="301.16482" width="21.2663185" height="11.0637119"></rect>
            <rect id="Rectangle-Copy-86" stroke="#FFFFFF" x="175.105229" y="284.461219" width="21.2663185" height="11.0637119"></rect>
            <rect id="Rectangle-Copy-85" stroke="#FFFFFF" x="175.105229" y="267.757618" width="21.2663185" height="11.0637119"></rect>
            <rect id="Rectangle-Copy-84" stroke="#FFFFFF" x="175.105229" y="251.054017" width="21.2663185" height="11.0637119"></rect>
            <rect id="Rectangle-Copy-83" stroke="#FFFFFF" x="175.105229" y="234.350416" width="21.2663185" height="11.0637119"></rect>
            <rect id="Rectangle-Copy-82" stroke="#FFFFFF" x="175.105229" y="217.646814" width="21.2663185" height="11.0637119"></rect>
            <rect id="Rectangle-Copy-81" stroke="#FFFFFF" x="175.105229" y="200.943213" width="21.2663185" height="11.0637119"></rect>
            <rect id="Rectangle-Copy-80" stroke="#FFFFFF" x="175.105229" y="184.239612" width="21.2663185" height="11.0637119"></rect>
            <rect id="Rectangle-Copy-79" stroke="#FFFFFF" x="175.105229" y="167.536011" width="21.2663185" height="11.0637119"></rect>
            <rect id="Rectangle-Copy-78" stroke="#FFFFFF" x="175.105229" y="150.83241" width="21.2663185" height="11.0637119"></rect>
            <rect id="Rectangle-Copy-77" stroke="#FFFFFF" x="175.105229" y="134.128809" width="21.2663185" height="11.0637119"></rect>
            <rect id="Rectangle-Copy-99" stroke="#FFFFFF" x="978.548223" y="200.943213" width="21.2663185" height="11.0637119"></rect>
            <rect id="Rectangle-Copy-125" stroke="#FFFFFF" x="224.276683" y="658.436288" width="21.2663185" height="11.0637119"></rect>
            <rect id="Rectangle-Copy-100" stroke="#FFFFFF" x="1008.23665" y="200.943213" width="21.2663185" height="11.0637119"></rect>
            <rect id="Rectangle-Copy-126" stroke="#FFFFFF" x="253.965107" y="658.436288" width="21.2663185" height="11.0637119"></rect>
            <rect id="Rectangle-Copy-101" stroke="#FFFFFF" x="978.548223" y="184.239612" width="21.2663185" height="11.0637119"></rect>
            <rect id="Rectangle-Copy-127" stroke="#FFFFFF" x="224.276683" y="641.732687" width="21.2663185" height="11.0637119"></rect>
            <rect id="Rectangle-Copy-102" stroke="#FFFFFF" x="1008.23665" y="184.239612" width="21.2663185" height="11.0637119"></rect>
            <rect id="Rectangle-Copy-141" stroke="#FFFFFF" x="253.965107" y="641.732687" width="21.2663185" height="11.0637119"></rect>
            <rect id="Rectangle-Copy-103" stroke="#FFFFFF" x="978.548223" y="167.536011" width="21.2663185" height="11.0637119"></rect>
            <rect id="Rectangle-Copy-142" stroke="#FFFFFF" x="224.276683" y="625.029086" width="21.2663185" height="11.0637119"></rect>
            <rect id="Rectangle-Copy-104" stroke="#FFFFFF" x="1008.23665" y="167.536011" width="21.2663185" height="11.0637119"></rect>
            <rect id="Rectangle-Copy-143" stroke="#FFFFFF" x="253.965107" y="625.029086" width="21.2663185" height="11.0637119"></rect>
            <rect id="Rectangle-Copy-105" stroke="#FFFFFF" x="978.548223" y="150.83241" width="21.2663185" height="11.0637119"></rect>
            <rect id="Rectangle-Copy-144" stroke="#FFFFFF" x="224.276683" y="608.325485" width="21.2663185" height="11.0637119"></rect>
            <rect id="Rectangle-Copy-106" stroke="#FFFFFF" x="1008.23665" y="150.83241" width="21.2663185" height="11.0637119"></rect>
            <rect id="Rectangle-Copy-145" stroke="#FFFFFF" x="253.965107" y="608.325485" width="21.2663185" height="11.0637119"></rect>
            <rect id="Rectangle-Copy-107" stroke="#FFFFFF" x="978.548223" y="134.128809" width="21.2663185" height="11.0637119"></rect>
            <rect id="Rectangle-Copy-146" stroke="#FFFFFF" x="224.276683" y="591.621884" width="21.2663185" height="11.0637119"></rect>
            <rect id="Rectangle-Copy-108" stroke="#FFFFFF" x="1008.23665" y="134.128809" width="21.2663185" height="11.0637119"></rect>
            <rect id="Rectangle-Copy-147" stroke="#FFFFFF" x="253.965107" y="591.621884" width="21.2663185" height="11.0637119"></rect>
            <rect id="Rectangle-Copy-109" stroke="#FFFFFF" x="978.548223" y="117.425208" width="21.2663185" height="11.0637119"></rect>
            <rect id="Rectangle-Copy-148" stroke="#FFFFFF" x="224.276683" y="574.918283" width="21.2663185" height="11.0637119"></rect>
            <rect id="Rectangle-Copy-110" stroke="#FFFFFF" x="1008.23665" y="117.425208" width="21.2663185" height="11.0637119"></rect>
            <rect id="Rectangle-Copy-149" stroke="#FFFFFF" x="253.965107" y="574.918283" width="21.2663185" height="11.0637119"></rect>
            <rect id="Rectangle-Copy-111" stroke="#FFFFFF" x="978.548223" y="100.721607" width="21.2663185" height="11.0637119"></rect>
            <rect id="Rectangle-Copy-150" stroke="#FFFFFF" x="224.276683" y="558.214681" width="21.2663185" height="11.0637119"></rect>
            <rect id="Rectangle-Copy-112" stroke="#FFFFFF" x="1008.23665" y="100.721607" width="21.2663185" height="11.0637119"></rect>
            <rect id="Rectangle-Copy-151" stroke="#FFFFFF" x="253.965107" y="558.214681" width="21.2663185" height="11.0637119"></rect>
            <rect id="Rectangle-Copy-113" stroke="#FFFFFF" x="978.548223" y="84.0180055" width="21.2663185" height="11.0637119"></rect>
            <rect id="Rectangle-Copy-114" stroke="#FFFFFF" x="1008.23665" y="84.0180055" width="21.2663185" height="11.0637119"></rect>
            <rect id="Rectangle-Copy-115" stroke="#FFFFFF" x="978.548223" y="67.3144044" width="21.2663185" height="11.0637119"></rect>
            <rect id="Rectangle-Copy-116" stroke="#FFFFFF" x="1008.23665" y="67.3144044" width="21.2663185" height="11.0637119"></rect>
            <rect id="Rectangle-Copy-117" stroke="#FFFFFF" x="978.548223" y="50.6108033" width="21.2663185" height="11.0637119"></rect>
            <rect id="Rectangle-Copy-118" stroke="#FFFFFF" x="1008.23665" y="50.6108033" width="21.2663185" height="11.0637119"></rect>
            <rect id="Rectangle-Copy-119" stroke="#FFFFFF" x="978.548223" y="33.9072022" width="21.2663185" height="11.0637119"></rect>
            <rect id="Rectangle-Copy-120" stroke="#FFFFFF" x="1008.23665" y="33.9072022" width="21.2663185" height="11.0637119"></rect>
            <rect id="Rectangle-Copy-121" stroke="#FFFFFF" x="978.548223" y="17.2036011" width="21.2663185" height="11.0637119"></rect>
            <rect id="Rectangle-Copy-122" stroke="#FFFFFF" x="1008.23665" y="17.2036011" width="21.2663185" height="11.0637119"></rect>
            <rect id="Rectangle-Copy-123" stroke="#FFFFFF" x="978.548223" y="0.5" width="21.2663185" height="11.0637119"></rect>
            <rect id="Rectangle-Copy-124" stroke="#FFFFFF" x="1008.23665" y="0.5" width="21.2663185" height="11.0637119"></rect>
            <rect id="Rectangle-Copy-128" stroke="#FFFFFF" x="1037.92507" y="200.943213" width="21.2663185" height="11.0637119"></rect>
            <rect id="Rectangle-Copy-164" stroke="#FFFFFF" x="283.653532" y="658.436288" width="21.2663185" height="11.0637119"></rect>
            <rect id="Rectangle-Copy-171" stroke="#FFFFFF" x="313.341957" y="658.436288" width="21.2663185" height="11.0637119"></rect>
            <rect id="Rectangle-Copy-129" stroke="#FFFFFF" x="1037.92507" y="184.239612" width="21.2663185" height="11.0637119"></rect>
            <rect id="Rectangle-Copy-165" stroke="#FFFFFF" x="283.653532" y="641.732687" width="21.2663185" height="11.0637119"></rect>
            <rect id="Rectangle-Copy-172" stroke="#FFFFFF" x="313.341957" y="641.732687" width="21.2663185" height="11.0637119"></rect>
            <rect id="Rectangle-Copy-130" stroke="#FFFFFF" x="1037.92507" y="167.536011" width="21.2663185" height="11.0637119"></rect>
            <rect id="Rectangle-Copy-166" stroke="#FFFFFF" x="283.653532" y="625.029086" width="21.2663185" height="11.0637119"></rect>
            <rect id="Rectangle-Copy-173" stroke="#FFFFFF" x="313.341957" y="625.029086" width="21.2663185" height="11.0637119"></rect>
            <rect id="Rectangle-Copy-131" stroke="#FFFFFF" x="1037.92507" y="150.83241" width="21.2663185" height="11.0637119"></rect>
            <rect id="Rectangle-Copy-167" stroke="#FFFFFF" x="283.653532" y="608.325485" width="21.2663185" height="11.0637119"></rect>
            <rect id="Rectangle-Copy-174" stroke="#FFFFFF" x="313.341957" y="608.325485" width="21.2663185" height="11.0637119"></rect>
            <rect id="Rectangle-Copy-132" stroke="#FFFFFF" x="1037.92507" y="134.128809" width="21.2663185" height="11.0637119"></rect>
            <rect id="Rectangle-Copy-168" stroke="#FFFFFF" x="283.653532" y="591.621884" width="21.2663185" height="11.0637119"></rect>
            <rect id="Rectangle-Copy-175" stroke="#FFFFFF" x="313.341957" y="591.621884" width="21.2663185" height="11.0637119"></rect>
            <rect id="Rectangle-Copy-133" stroke="#FFFFFF" x="1037.92507" y="117.425208" width="21.2663185" height="11.0637119"></rect>
            <rect id="Rectangle-Copy-169" stroke="#FFFFFF" x="283.653532" y="574.918283" width="21.2663185" height="11.0637119"></rect>
            <rect id="Rectangle-Copy-176" stroke="#FFFFFF" x="313.341957" y="574.918283" width="21.2663185" height="11.0637119"></rect>
            <rect id="Rectangle-Copy-134" stroke="#FFFFFF" x="1037.92507" y="100.721607" width="21.2663185" height="11.0637119"></rect>
            <rect id="Rectangle-Copy-170" stroke="#FFFFFF" x="283.653532" y="558.214681" width="21.2663185" height="11.0637119"></rect>
            <rect id="Rectangle-Copy-177" stroke="#FFFFFF" x="313.341957" y="558.214681" width="21.2663185" height="11.0637119"></rect>
            <rect id="Rectangle-Copy-135" stroke="#FFFFFF" x="1037.92507" y="84.0180055" width="21.2663185" height="11.0637119"></rect>
            <rect id="Rectangle-Copy-136" stroke="#FFFFFF" x="1037.92507" y="67.3144044" width="21.2663185" height="11.0637119"></rect>
            <rect id="Rectangle-Copy-137" stroke="#FFFFFF" x="1037.92507" y="50.6108033" width="21.2663185" height="11.0637119"></rect>
            <rect id="Rectangle-Copy-138" stroke="#FFFFFF" x="1037.92507" y="33.9072022" width="21.2663185" height="11.0637119"></rect>
            <rect id="Rectangle-Copy-139" stroke="#FFFFFF" x="1037.92507" y="17.2036011" width="21.2663185" height="11.0637119"></rect>
            <rect id="Rectangle-Copy-140" stroke="#FFFFFF" x="1037.92507" y="0.5" width="21.2663185" height="11.0637119"></rect>
            <rect id="Rectangle-Copy" stroke="#FFFFFF" x="711.352401" y="0.5" width="72.2932985" height="38.9030471"></rect>
            <rect id="Rectangle-Copy-25" stroke="#FFFFFF" x="468.278423" y="0.5" width="72.2932985" height="38.9030471"></rect>
            <rect id="Rectangle-Copy-39" stroke="#FFFFFF" x="380.140912" y="0.5" width="72.2932985" height="38.9030471"></rect>
            <rect id="Rectangle-Copy-16" stroke="#FFFFFF" x="871.855447" y="0.5" width="72.2932985" height="38.9030471"></rect>
            <rect id="Rectangle-Copy-3" stroke="#FFFFFF" x="711.352401" y="45.0429363" width="72.2932985" height="38.9030471"></rect>
            <rect id="Rectangle-Copy-26" stroke="#FFFFFF" x="468.278423" y="45.0429363" width="72.2932985" height="38.9030471"></rect>
            <rect id="Rectangle-Copy-17" stroke="#FFFFFF" x="871.855447" y="45.0429363" width="72.2932985" height="38.9030471"></rect>
            <rect id="Rectangle-Copy-5" stroke="#FFFFFF" x="623.21489" y="89.5858726" width="72.2932985" height="38.9030471"></rect>
            <rect id="Rectangle-Copy-27" stroke="#FFFFFF" x="380.140912" y="89.5858726" width="72.2932985" height="38.9030471"></rect>
            <rect id="Rectangle-Copy-4" stroke="#FFFFFF" x="711.352401" y="89.5858726" width="72.2932985" height="38.9030471"></rect>
            <rect id="Rectangle-Copy-28" stroke="#FFFFFF" x="468.278423" y="89.5858726" width="72.2932985" height="38.9030471"></rect>
            <rect id="Rectangle-Copy-18" stroke="#FFFFFF" x="871.855447" y="89.5858726" width="72.2932985" height="38.9030471"></rect>
            <rect id="Rectangle-Copy-7" stroke="#FFFFFF" x="623.21489" y="134.128809" width="72.2932985" height="38.9030471"></rect>
            <rect id="Rectangle-Copy-29" stroke="#FFFFFF" x="380.140912" y="134.128809" width="72.2932985" height="38.9030471"></rect>
            <rect id="Rectangle-Copy-6" stroke="#FFFFFF" x="711.352401" y="134.128809" width="72.2932985" height="38.9030471"></rect>
            <rect id="Rectangle-Copy-30" stroke="#FFFFFF" x="468.278423" y="134.128809" width="72.2932985" height="38.9030471"></rect>
            <rect id="Rectangle-Copy-19" stroke="#FFFFFF" x="871.855447" y="134.128809" width="72.2932985" height="38.9030471"></rect>
            <rect id="Rectangle-Copy-42" stroke="#FFFFFF" x="225.204446" y="134.128809" width="72.2932985" height="38.9030471"></rect>
            <rect id="Rectangle-Copy-9" stroke="#FFFFFF" x="623.21489" y="178.671745" width="72.2932985" height="38.9030471"></rect>
            <rect id="Rectangle-Copy-31" stroke="#FFFFFF" x="380.140912" y="178.671745" width="72.2932985" height="38.9030471"></rect>
            <rect id="Rectangle-Copy-8" stroke="#FFFFFF" x="711.352401" y="178.671745" width="72.2932985" height="38.9030471"></rect>
            <rect id="Rectangle-Copy-32" stroke="#FFFFFF" x="468.278423" y="178.671745" width="72.2932985" height="38.9030471"></rect>
            <rect id="Rectangle-Copy-20" stroke="#FFFFFF" x="871.855447" y="178.671745" width="72.2932985" height="38.9030471"></rect>
            <rect id="Rectangle-Copy-43" stroke="#FFFFFF" x="225.204446" y="178.671745" width="72.2932985" height="38.9030471"></rect>
            <rect id="Rectangle-Copy-11" stroke="#FFFFFF" x="623.21489" y="223.214681" width="72.2932985" height="38.9030471"></rect>
            <rect id="Rectangle-Copy-33" stroke="#FFFFFF" x="380.140912" y="223.214681" width="72.2932985" height="38.9030471"></rect>
            <rect id="Rectangle-Copy-10" stroke="#FFFFFF" x="711.352401" y="223.214681" width="72.2932985" height="38.9030471"></rect>
            <rect id="Rectangle-Copy-34" stroke="#FFFFFF" x="468.278423" y="223.214681" width="72.2932985" height="38.9030471"></rect>
            <rect id="Rectangle-Copy-21" stroke="#FFFFFF" x="871.855447" y="223.214681" width="72.2932985" height="38.9030471"></rect>
            <rect id="Rectangle-Copy-44" stroke="#FFFFFF" x="225.204446" y="223.214681" width="72.2932985" height="38.9030471"></rect>
            <rect id="Rectangle-Copy-13" stroke="#FFFFFF" x="623.21489" y="267.757618" width="72.2932985" height="38.9030471"></rect>
            <rect id="Rectangle-Copy-35" stroke="#FFFFFF" x="380.140912" y="267.757618" width="72.2932985" height="38.9030471"></rect>
            <rect id="Rectangle-Copy-12" stroke="#FFFFFF" x="711.352401" y="267.757618" width="72.2932985" height="38.9030471"></rect>
            <rect id="Rectangle-Copy-36" stroke="#FFFFFF" x="468.278423" y="267.757618" width="72.2932985" height="38.9030471"></rect>
            <rect id="Rectangle-Copy-22" stroke="#FFFFFF" x="871.855447" y="267.757618" width="72.2932985" height="38.9030471"></rect>
            <rect id="Rectangle-Copy-45" stroke="#FFFFFF" x="225.204446" y="267.757618" width="72.2932985" height="38.9030471"></rect>
            <rect id="Rectangle-Copy-15" stroke="#FFFFFF" x="623.21489" y="312.300554" width="72.2932985" height="38.9030471"></rect>
            <rect id="Rectangle-Copy-37" stroke="#FFFFFF" x="380.140912" y="312.300554" width="72.2932985" height="38.9030471"></rect>
            <rect id="Rectangle-Copy-14" stroke="#FFFFFF" x="711.352401" y="312.300554" width="72.2932985" height="38.9030471"></rect>
            <rect id="Rectangle-Copy-38" stroke="#FFFFFF" x="468.278423" y="312.300554" width="72.2932985" height="38.9030471"></rect>
            <rect id="Rectangle-Copy-23" stroke="#FFFFFF" x="871.855447" y="312.300554" width="72.2932985" height="38.9030471"></rect>
            <rect id="Rectangle-Copy-46" stroke="#FFFFFF" x="225.204446" y="312.300554" width="72.2932985" height="38.9030471"></rect>
            <rect id="Rectangle-Copy-60" stroke="#FFFFFF" x="225.204446" y="356.84349" width="72.2932985" height="38.9030471"></rect>
            <rect id="Rectangle" stroke="#FFFFFF" x="0.5" y="134.5" width="32.3994778" height="261.617729"></rect>
            <path d="M-12.2729492,272.544922 C-11.4936523,272.544922 -10.7399902,272.428711 -10.0119629,272.196289 C-9.28393555,271.963867 -8.62426758,271.642578 -8.03295898,271.232422 C-7.44165039,270.822266 -6.89135742,270.338623 -6.38208008,269.781494 C-5.87280273,269.224365 -5.43017578,268.621094 -5.05419922,267.97168 C-4.67822266,267.322266 -4.35522461,266.645508 -4.08520508,265.941406 C-3.81518555,265.237305 -3.61352539,264.526367 -3.48022461,263.808594 C-3.34692383,263.09082 -3.28027344,262.390137 -3.28027344,261.706543 C-3.28027344,260.257324 -3.67163086,259.110596 -4.4543457,258.266357 C-5.23706055,257.422119 -6.35986328,257 -7.82275391,257 C-9.55908203,257 -11.090332,257.50415 -12.4165039,258.512451 C-13.7426758,259.520752 -14.7646484,260.906738 -15.4824219,262.67041 L-15.4824219,262.67041 L-13.8930664,262.67041 C-12.519043,259.730957 -10.6289062,258.26123 -8.22265625,258.26123 C-7.09472656,258.26123 -6.2590332,258.585938 -5.71557617,259.235352 C-5.17211914,259.884766 -4.90039062,260.773438 -4.90039062,261.901367 C-4.90039062,262.537109 -4.99951172,263.285645 -5.19775391,264.146973 L-5.19775391,264.146973 L-12.1499023,264.146973 L-12.5498047,265.408203 L-5.55664062,265.408203 C-5.84375,266.242188 -6.19238281,267.006104 -6.60253906,267.699951 C-7.01269531,268.393799 -7.48608398,269.012451 -8.02270508,269.555908 C-8.55932617,270.099365 -9.17456055,270.523193 -9.8684082,270.827393 C-10.5622559,271.131592 -11.3022461,271.283691 -12.0883789,271.283691 C-13.2094727,271.283691 -14.045166,271 -14.595459,270.432617 C-15.145752,269.865234 -15.4208984,269.06543 -15.4208984,268.033203 C-15.4208984,267.705078 -15.3867188,267.318848 -15.3183594,266.874512 L-15.3183594,266.874512 L-16.8769531,266.874512 C-16.9589844,267.339355 -17,267.780273 -17,268.197266 C-17,269.550781 -16.5761719,270.61377 -15.7285156,271.38623 C-14.8808594,272.158691 -13.7290039,272.544922 -12.2729492,272.544922 Z M-1.60888672,272.124512 L-0.0708007812,267.110352 L3.57958984,264.229004 L5.10742188,272.124512 L6.76855469,272.124512 L4.84082031,263.244629 L12.2338867,257.42041 L10.234375,257.42041 L0.493164062,265.213379 L2.88232422,257.42041 L1.31347656,257.42041 L-3.18798828,272.124512 L-1.60888672,272.124512 Z M11.7006836,272.124512 L13.9257812,264.875 L18.109375,264.875 C18.9433594,264.875 19.6953125,264.770752 20.3652344,264.562256 C21.0351562,264.35376 21.5803223,264.085449 22.0007324,263.757324 C22.4211426,263.429199 22.7731934,263.048096 23.0568848,262.614014 C23.3405762,262.179932 23.5388184,261.752686 23.6516113,261.332275 C23.7644043,260.911865 23.8208008,260.489746 23.8208008,260.065918 C23.8208008,259.300293 23.5422363,258.667969 22.9851074,258.168945 C22.4279785,257.669922 21.5649414,257.42041 20.3959961,257.42041 L20.3959961,257.42041 L14.6230469,257.42041 L10.121582,272.124512 L11.7006836,272.124512 Z M18.3349609,263.624023 L14.3051758,263.624023 L15.7919922,258.681641 L20.0576172,258.681641 C20.8369141,258.681641 21.4094238,258.825195 21.7751465,259.112305 C22.1408691,259.399414 22.3237305,259.795898 22.3237305,260.301758 C22.3237305,261.272461 21.9836426,262.068848 21.3034668,262.690918 C20.623291,263.312988 19.6337891,263.624023 18.3349609,263.624023 L18.3349609,263.624023 Z M22.4980469,272.124512 L25.2666016,268.033203 L31.9418945,268.033203 L32.1982422,272.124512 L33.7260742,272.124512 L32.762207,257.42041 L31.0600586,257.42041 L20.8779297,272.124512 L22.4980469,272.124512 Z M31.8598633,266.771973 L26.1279297,266.771973 L31.3779297,259.102051 L31.8598633,266.771973 Z M37.6123047,272.124512 L39.7553711,265.090332 L46.7075195,265.090332 L44.5644531,272.124512 L46.1435547,272.124512 L50.6347656,257.42041 L49.0556641,257.42041 L47.0869141,263.829102 L40.1347656,263.829102 L42.1035156,257.42041 L40.534668,257.42041 L36.0332031,272.124512 L37.6123047,272.124512 Z" id="ЭКРАН" fill="#FFFFFF" fill-rule="nonzero" transform="translate(16.817383, 264.772461) rotate(-90.000000) translate(-16.817383, -264.772461) "></path>
            <path d="M115.150391,424 L119.672363,409.295898 L118.093262,409.295898 L113.981445,422.73877 L109.356934,422.73877 L113.479004,409.295898 L111.899902,409.295898 L107.788086,422.73877 L103.163574,422.73877 L107.275391,409.295898 L105.706543,409.295898 L101.205078,424 L115.150391,424 Z M128.470215,424 L128.870117,422.73877 L120.677246,422.73877 L122.440918,416.96582 L128.634277,416.96582 L129.013672,415.70459 L122.820312,415.70459 L124.38916,410.557129 L132.582031,410.557129 L132.981934,409.295898 L123.220215,409.295898 L118.71875,424 L128.470215,424 Z M135.894043,424.42041 C137.008301,424.42041 138.026855,424.266602 138.949707,423.958984 C139.872559,423.651367 140.636475,423.236084 141.241455,422.713135 C141.846436,422.190186 142.314697,421.586914 142.64624,420.90332 C142.977783,420.219727 143.143555,419.495117 143.143555,418.729492 C143.143555,418.34668 143.064941,418.004883 142.907715,417.704102 C142.750488,417.40332 142.577881,417.179443 142.389893,417.032471 C142.201904,416.885498 141.983154,416.760742 141.733643,416.658203 C141.484131,416.555664 141.311523,416.49585 141.21582,416.47876 C141.120117,416.46167 141.041504,416.449707 140.97998,416.442871 L140.97998,416.442871 L141.041504,416.227539 C142.053223,415.974609 142.914551,415.460205 143.625488,414.684326 C144.336426,413.908447 144.691895,413.072754 144.691895,412.177246 C144.691895,411.158691 144.321045,410.35376 143.579346,409.762451 C142.837646,409.171143 141.831055,408.875488 140.55957,408.875488 C138.932617,408.875488 137.509033,409.328369 136.288818,410.234131 C135.068604,411.139893 134.243164,412.296875 133.8125,413.705078 L133.8125,413.705078 L135.391602,413.705078 C135.52832,413.267578 135.735107,412.84375 136.011963,412.433594 C136.288818,412.023438 136.623779,411.644043 137.016846,411.29541 C137.409912,410.946777 137.881592,410.666504 138.431885,410.45459 C138.982178,410.242676 139.558105,410.136719 140.159668,410.136719 C141.205566,410.136719 141.964355,410.343506 142.436035,410.75708 C142.907715,411.170654 143.143555,411.705566 143.143555,412.361816 C143.143555,412.956543 143.003418,413.48291 142.723145,413.940918 C142.442871,414.398926 142.072021,414.759521 141.610596,415.022705 C141.14917,415.285889 140.650146,415.482422 140.113525,415.612305 C139.576904,415.742188 139.018066,415.807129 138.437012,415.807129 L138.437012,415.807129 L136.550293,415.807129 L136.150391,417.068359 L138.139648,417.068359 C138.761719,417.068359 139.31543,417.126465 139.800781,417.242676 C140.286133,417.358887 140.697998,417.570801 141.036377,417.878418 C141.374756,418.186035 141.543945,418.575684 141.543945,419.047363 C141.543945,420.216309 141.058594,421.193848 140.087891,421.97998 C139.117188,422.766113 137.852539,423.15918 136.293945,423.15918 C135.15918,423.15918 134.347412,422.92334 133.858643,422.45166 C133.369873,421.97998 133.125488,421.368164 133.125488,420.616211 C133.125488,420.294922 133.180176,419.953125 133.289551,419.59082 L133.289551,419.59082 L131.720703,419.59082 C131.577148,420.055664 131.505371,420.489746 131.505371,420.893066 C131.505371,421.938965 131.901855,422.78833 132.694824,423.441162 C133.487793,424.093994 134.554199,424.42041 135.894043,424.42041 Z M143.635742,424.102539 C143.881836,424.102539 144.104004,424.092285 144.302246,424.071777 C144.500488,424.05127 144.75,424 145.050781,423.917969 C145.351562,423.835938 145.631836,423.721436 145.891602,423.574463 C146.151367,423.42749 146.44873,423.217285 146.783691,422.943848 C147.118652,422.67041 147.439941,422.343994 147.747559,421.9646 C148.055176,421.585205 148.390137,421.110107 148.752441,420.539307 C149.114746,419.968506 149.463379,419.325928 149.79834,418.611572 C150.133301,417.897217 150.487061,417.05127 150.859619,416.07373 C151.232178,415.096191 151.596191,414.029785 151.95166,412.874512 L151.95166,412.874512 L152.669434,410.557129 L156.976074,410.557129 L152.854004,424 L154.433105,424 L158.924316,409.295898 L151.674805,409.295898 L150.710938,412.454102 C150.293945,413.814453 149.870117,415.039795 149.439453,416.130127 C149.008789,417.220459 148.608887,418.121094 148.239746,418.832031 C147.870605,419.542969 147.487793,420.159912 147.091309,420.682861 C146.694824,421.205811 146.346191,421.600586 146.04541,421.867188 C145.744629,422.133789 145.426758,422.345703 145.091797,422.50293 C144.756836,422.660156 144.483398,422.755859 144.271484,422.790039 C144.05957,422.824219 143.827148,422.841309 143.574219,422.841309 C143.4375,422.841309 143.304199,422.820801 143.174316,422.779785 L143.174316,422.779785 L142.794922,424 L142.907715,424.020508 C142.98291,424.041016 143.090576,424.059814 143.230713,424.076904 C143.37085,424.093994 143.505859,424.102539 143.635742,424.102539 Z M163.077148,424.42041 C164.088867,424.42041 165.071533,424.199951 166.025146,423.759033 C166.97876,423.318115 167.81958,422.730225 168.547607,421.995361 C169.275635,421.260498 169.914795,420.43335 170.465088,419.513916 C171.015381,418.594482 171.434082,417.635742 171.721191,416.637695 C172.008301,415.639648 172.151855,414.679199 172.151855,413.756348 C172.151855,412.279785 171.763916,411.097168 170.988037,410.208496 C170.212158,409.319824 169.164551,408.875488 167.845215,408.875488 C166.990723,408.875488 166.158447,409.032715 165.348389,409.347168 C164.53833,409.661621 163.808594,410.085449 163.15918,410.618652 C162.509766,411.151855 161.909912,411.773926 161.359619,412.484863 C160.809326,413.195801 160.349609,413.946045 159.980469,414.735596 C159.611328,415.525146 159.324219,416.335205 159.119141,417.165771 C158.914062,417.996338 158.811523,418.797852 158.811523,419.570312 C158.811523,421.040039 159.194336,422.21582 159.959961,423.097656 C160.725586,423.979492 161.764648,424.42041 163.077148,424.42041 Z M163.477051,423.15918 C162.472168,423.15918 161.706543,422.82251 161.180176,422.14917 C160.653809,421.47583 160.390625,420.575195 160.390625,419.447266 C160.390625,418.326172 160.597412,417.196533 161.010986,416.05835 C161.424561,414.920166 161.959473,413.92041 162.615723,413.059082 C163.271973,412.197754 164.029053,411.495361 164.886963,410.951904 C165.744873,410.408447 166.597656,410.136719 167.445312,410.136719 C168.443359,410.136719 169.207275,410.478516 169.737061,411.162109 C170.266846,411.845703 170.531738,412.758301 170.531738,413.899902 C170.531738,415.01416 170.323242,416.136963 169.90625,417.268311 C169.489258,418.399658 168.954346,419.394287 168.301514,420.252197 C167.648682,421.110107 166.891602,421.809082 166.030273,422.349121 C165.168945,422.88916 164.317871,423.15918 163.477051,423.15918 Z M173.823242,424 L175.966309,416.96582 L182.918457,416.96582 L180.775391,424 L182.354492,424 L186.845703,409.295898 L185.266602,409.295898 L183.297852,415.70459 L176.345703,415.70459 L178.314453,409.295898 L176.745605,409.295898 L172.244141,424 L173.823242,424 Z M187.471191,424 L191.5625,410.557129 L198.709473,410.557129 L199.109375,409.295898 L190.393555,409.295898 L185.89209,424 L187.471191,424 Z M198.873535,424 L209.732422,411.920898 L206.010254,424 L207.476562,424 L211.998535,409.295898 L210.521973,409.295898 L199.693848,421.375 L203.385254,409.295898 L201.918945,409.295898 L197.41748,424 L198.873535,424 Z" id="ШЕЗЛОНГИ" fill="#FFFFFF" fill-rule="nonzero"></path>
            <path d="M246.388184,545 C247.242676,545 248.013428,544.885498 248.700439,544.656494 C249.387451,544.42749 249.941162,544.136963 250.361572,543.784912 C250.781982,543.432861 251.132324,543.027832 251.412598,542.569824 C251.692871,542.111816 251.887695,541.672607 251.99707,541.252197 C252.106445,540.831787 252.161133,540.42334 252.161133,540.026855 C252.161133,539.213379 251.884277,538.560547 251.330566,538.068359 C250.776855,537.576172 249.912109,537.330078 248.736328,537.330078 L248.736328,537.330078 L244.111816,537.330078 L245.875488,531.557129 L254.283691,531.557129 L254.683594,530.295898 L244.706543,530.295898 L240.205078,545 L246.388184,545 Z M246.634277,543.73877 L242.163574,543.73877 L243.742676,538.591309 L248.418457,538.591309 C249.245605,538.591309 249.823242,538.734863 250.151367,539.021973 C250.479492,539.309082 250.643555,539.719238 250.643555,540.252441 C250.643555,540.710449 250.563232,541.144531 250.402588,541.554688 C250.241943,541.964844 250.002686,542.333984 249.684814,542.662109 C249.366943,542.990234 248.946533,543.251709 248.423584,543.446533 C247.900635,543.641357 247.304199,543.73877 246.634277,543.73877 L246.634277,543.73877 Z M253.986328,545 L256.754883,540.908691 L263.430176,540.908691 L263.686523,545 L265.214355,545 L264.250488,530.295898 L262.54834,530.295898 L252.366211,545 L253.986328,545 Z M263.348145,539.647461 L257.616211,539.647461 L262.866211,531.977539 L263.348145,539.647461 Z M266.895996,545.102539 C267.14209,545.102539 267.364258,545.092285 267.5625,545.071777 C267.760742,545.05127 268.010254,545 268.311035,544.917969 C268.611816,544.835938 268.89209,544.721436 269.151855,544.574463 C269.411621,544.42749 269.708984,544.217285 270.043945,543.943848 C270.378906,543.67041 270.700195,543.343994 271.007812,542.9646 C271.31543,542.585205 271.650391,542.110107 272.012695,541.539307 C272.375,540.968506 272.723633,540.325928 273.058594,539.611572 C273.393555,538.897217 273.747314,538.05127 274.119873,537.07373 C274.492432,536.096191 274.856445,535.029785 275.211914,533.874512 L275.211914,533.874512 L275.929688,531.557129 L280.236328,531.557129 L276.114258,545 L277.693359,545 L282.18457,530.295898 L274.935059,530.295898 L273.971191,533.454102 C273.554199,534.814453 273.130371,536.039795 272.699707,537.130127 C272.269043,538.220459 271.869141,539.121094 271.5,539.832031 C271.130859,540.542969 270.748047,541.159912 270.351562,541.682861 C269.955078,542.205811 269.606445,542.600586 269.305664,542.867188 C269.004883,543.133789 268.687012,543.345703 268.352051,543.50293 C268.01709,543.660156 267.743652,543.755859 267.531738,543.790039 C267.319824,543.824219 267.087402,543.841309 266.834473,543.841309 C266.697754,543.841309 266.564453,543.820801 266.43457,543.779785 L266.43457,543.779785 L266.055176,545 L266.167969,545.020508 C266.243164,545.041016 266.35083,545.059814 266.490967,545.076904 C266.631104,545.093994 266.766113,545.102539 266.895996,545.102539 Z M282.810059,545 L284.348145,539.98584 L287.998535,537.104492 L289.526367,545 L291.1875,545 L289.259766,536.120117 L296.652832,530.295898 L294.65332,530.295898 L284.912109,538.088867 L287.30127,530.295898 L285.732422,530.295898 L281.230957,545 L282.810059,545 Z M298.488281,545.42041 C299.5,545.42041 300.482666,545.199951 301.436279,544.759033 C302.389893,544.318115 303.230713,543.730225 303.95874,542.995361 C304.686768,542.260498 305.325928,541.43335 305.876221,540.513916 C306.426514,539.594482 306.845215,538.635742 307.132324,537.637695 C307.419434,536.639648 307.562988,535.679199 307.562988,534.756348 C307.562988,533.279785 307.175049,532.097168 306.39917,531.208496 C305.623291,530.319824 304.575684,529.875488 303.256348,529.875488 C302.401855,529.875488 301.56958,530.032715 300.759521,530.347168 C299.949463,530.661621 299.219727,531.085449 298.570312,531.618652 C297.920898,532.151855 297.321045,532.773926 296.770752,533.484863 C296.220459,534.195801 295.760742,534.946045 295.391602,535.735596 C295.022461,536.525146 294.735352,537.335205 294.530273,538.165771 C294.325195,538.996338 294.222656,539.797852 294.222656,540.570312 C294.222656,542.040039 294.605469,543.21582 295.371094,544.097656 C296.136719,544.979492 297.175781,545.42041 298.488281,545.42041 Z M298.888184,544.15918 C297.883301,544.15918 297.117676,543.82251 296.591309,543.14917 C296.064941,542.47583 295.801758,541.575195 295.801758,540.447266 C295.801758,539.326172 296.008545,538.196533 296.422119,537.05835 C296.835693,535.920166 297.370605,534.92041 298.026855,534.059082 C298.683105,533.197754 299.440186,532.495361 300.298096,531.951904 C301.156006,531.408447 302.008789,531.136719 302.856445,531.136719 C303.854492,531.136719 304.618408,531.478516 305.148193,532.162109 C305.677979,532.845703 305.942871,533.758301 305.942871,534.899902 C305.942871,536.01416 305.734375,537.136963 305.317383,538.268311 C304.900391,539.399658 304.365479,540.394287 303.712646,541.252197 C303.059814,542.110107 302.302734,542.809082 301.441406,543.349121 C300.580078,543.88916 299.729004,544.15918 298.888184,544.15918 Z M309.234375,545 L311.377441,537.96582 L318.32959,537.96582 L316.186523,545 L317.765625,545 L322.256836,530.295898 L320.677734,530.295898 L318.708984,536.70459 L311.756836,536.70459 L313.725586,530.295898 L312.156738,530.295898 L307.655273,545 L309.234375,545 Z" id="БАЛКОН" fill="#FFFFFF" fill-rule="nonzero"></path>
            <path d="M489.228516,192 L496.668945,167.674805 L509.249023,167.674805 L501.808594,192 L504.666016,192 L512.792969,165.392578 L494.516602,165.392578 L486.371094,192 L489.228516,192 Z M511.345703,192 L516.355469,184.59668 L528.43457,184.59668 L528.898438,192 L531.663086,192 L529.918945,165.392578 L526.838867,165.392578 L508.414062,192 L511.345703,192 Z M528.286133,182.314453 L517.914062,182.314453 L527.414062,168.435547 L528.286133,182.314453 Z M538.695312,192 L542.72168,178.881836 L550.291992,178.881836 C551.801107,178.881836 553.161784,178.693197 554.374023,178.315918 C555.586263,177.938639 556.572754,177.453125 557.333496,176.859375 C558.094238,176.265625 558.731283,175.576009 559.244629,174.790527 C559.757975,174.005046 560.116699,173.231934 560.320801,172.471191 C560.524902,171.710449 560.626953,170.946615 560.626953,170.179688 C560.626953,168.794271 560.122884,167.650065 559.114746,166.74707 C558.106608,165.844076 556.544922,165.392578 554.429688,165.392578 L554.429688,165.392578 L543.983398,165.392578 L535.837891,192 L538.695312,192 Z M550.700195,176.618164 L543.408203,176.618164 L546.098633,167.674805 L553.817383,167.674805 C555.227539,167.674805 556.263509,167.93457 556.925293,168.454102 C557.587077,168.973633 557.917969,169.691081 557.917969,170.606445 C557.917969,172.362956 557.302572,173.804036 556.071777,174.929688 C554.840983,176.055339 553.050456,176.618164 550.700195,176.618164 L550.700195,176.618164 Z M562.705078,192 L565.488281,182.926758 L572.09375,177.712891 L574.858398,192 L577.864258,192 L574.375977,175.931641 L587.753906,165.392578 L584.135742,165.392578 L566.508789,179.494141 L570.832031,165.392578 L567.993164,165.392578 L559.847656,192 L562.705078,192 Z M591.075195,192.760742 C592.905924,192.760742 594.684082,192.361816 596.409668,191.563965 C598.135254,190.766113 599.656738,189.702311 600.974121,188.372559 C602.291504,187.042806 603.448079,185.546061 604.443848,183.882324 C605.439616,182.218587 606.197266,180.483724 606.716797,178.677734 C607.236328,176.871745 607.496094,175.133789 607.496094,173.463867 C607.496094,170.791992 606.794108,168.652018 605.390137,167.043945 C603.986165,165.435872 602.090495,164.631836 599.703125,164.631836 C598.156901,164.631836 596.650879,164.916341 595.185059,165.485352 C593.719238,166.054362 592.398763,166.821289 591.223633,167.786133 C590.048503,168.750977 588.963053,169.876628 587.967285,171.163086 C586.971517,172.449544 586.139648,173.807129 585.47168,175.23584 C584.803711,176.664551 584.28418,178.130371 583.913086,179.633301 C583.541992,181.13623 583.356445,182.586589 583.356445,183.984375 C583.356445,186.64388 584.049154,188.771484 585.43457,190.367188 C586.819987,191.962891 588.700195,192.760742 591.075195,192.760742 Z M591.798828,190.478516 C589.980469,190.478516 588.595052,189.869303 587.642578,188.650879 C586.690104,187.432454 586.213867,185.802734 586.213867,183.761719 C586.213867,181.733073 586.588053,179.688965 587.336426,177.629395 C588.084798,175.569824 589.052734,173.760742 590.240234,172.202148 C591.427734,170.643555 592.797689,169.372559 594.350098,168.38916 C595.902507,167.405762 597.445638,166.914062 598.979492,166.914062 C600.785482,166.914062 602.167806,167.532552 603.126465,168.769531 C604.085124,170.00651 604.564453,171.657878 604.564453,173.723633 C604.564453,175.739909 604.187174,177.771647 603.432617,179.818848 C602.67806,181.866048 601.710124,183.665853 600.528809,185.218262 C599.347493,186.770671 597.977539,188.035482 596.418945,189.012695 C594.860352,189.989909 593.320312,190.478516 591.798828,190.478516 Z M617.552734,192 C621.325521,192 624.300456,191.155762 626.477539,189.467285 C628.654622,187.778809 629.743164,185.505859 629.743164,182.648438 C629.743164,182.067057 629.659668,181.532064 629.492676,181.043457 C629.325684,180.55485 629.124674,180.152832 628.889648,179.837402 C628.654622,179.521973 628.370117,179.24056 628.036133,178.993164 C627.702148,178.745768 627.399089,178.560221 627.126953,178.436523 C626.854818,178.312826 626.570312,178.207682 626.273438,178.121094 C625.976562,178.034505 625.775553,177.981934 625.67041,177.963379 C625.565267,177.944824 625.481771,177.935547 625.419922,177.935547 L625.419922,177.935547 L625.53125,177.564453 C627.572266,177.16862 629.254557,176.324382 630.578125,175.031738 C631.901693,173.739095 632.563477,172.177409 632.563477,170.34668 C632.563477,168.676758 631.907878,167.433594 630.59668,166.617188 C629.285482,165.800781 627.460938,165.392578 625.123047,165.392578 L625.123047,165.392578 L615.808594,165.392578 L607.663086,192 L617.552734,192 Z M621.541992,176.989258 L615.084961,176.989258 L617.923828,167.674805 L624.399414,167.674805 C626.155924,167.674805 627.498047,167.912923 628.425781,168.38916 C629.353516,168.865397 629.817383,169.703451 629.817383,170.90332 C629.817383,171.744466 629.653483,172.514486 629.325684,173.213379 C628.997884,173.912272 628.564941,174.49056 628.026855,174.948242 C627.48877,175.405924 626.85791,175.79248 626.134277,176.10791 C625.410645,176.42334 624.665365,176.649089 623.898438,176.785156 C623.13151,176.921224 622.346029,176.989258 621.541992,176.989258 L621.541992,176.989258 Z M618.424805,189.717773 L611.207031,189.717773 L614.398438,179.271484 L621.616211,179.271484 C623.496419,179.271484 624.866374,179.571452 625.726074,180.171387 C626.585775,180.771322 627.015625,181.714518 627.015625,183.000977 C627.015625,185.004883 626.254883,186.625326 624.733398,187.862305 C623.211914,189.099284 621.109049,189.717773 618.424805,189.717773 L618.424805,189.717773 Z M635.402344,192 L638.185547,182.926758 L644.791016,177.712891 L647.555664,192 L650.561523,192 L647.073242,175.931641 L660.451172,165.392578 L656.833008,165.392578 L639.206055,179.494141 L643.529297,165.392578 L640.69043,165.392578 L632.544922,192 L635.402344,192 Z M656.146484,192 L661.15625,184.59668 L673.235352,184.59668 L673.699219,192 L676.463867,192 L674.719727,165.392578 L671.639648,165.392578 L653.214844,192 L656.146484,192 Z M673.086914,182.314453 L662.714844,182.314453 L672.214844,168.435547 L673.086914,182.314453 Z" id="ПАРКОВКА" fill="#FFFFFF" fill-rule="nonzero" transform="translate(581.417480, 178.696289) rotate(-90.000000) translate(-581.417480, -178.696289) "></path>
            <path d="M1005.38818,240 C1006.24268,240 1007.01343,239.885498 1007.70044,239.656494 C1008.38745,239.42749 1008.94116,239.136963 1009.36157,238.784912 C1009.78198,238.432861 1010.13232,238.027832 1010.4126,237.569824 C1010.69287,237.111816 1010.8877,236.672607 1010.99707,236.252197 C1011.10645,235.831787 1011.16113,235.42334 1011.16113,235.026855 C1011.16113,234.213379 1010.88428,233.560547 1010.33057,233.068359 C1009.77686,232.576172 1008.91211,232.330078 1007.73633,232.330078 L1007.73633,232.330078 L1003.11182,232.330078 L1004.87549,226.557129 L1013.28369,226.557129 L1013.68359,225.295898 L1003.70654,225.295898 L999.205078,240 L1005.38818,240 Z M1005.63428,238.73877 L1001.16357,238.73877 L1002.74268,233.591309 L1007.41846,233.591309 C1008.24561,233.591309 1008.82324,233.734863 1009.15137,234.021973 C1009.47949,234.309082 1009.64355,234.719238 1009.64355,235.252441 C1009.64355,235.710449 1009.56323,236.144531 1009.40259,236.554688 C1009.24194,236.964844 1009.00269,237.333984 1008.68481,237.662109 C1008.36694,237.990234 1007.94653,238.251709 1007.42358,238.446533 C1006.90063,238.641357 1006.3042,238.73877 1005.63428,238.73877 L1005.63428,238.73877 Z M1012.98633,240 L1015.75488,235.908691 L1022.43018,235.908691 L1022.68652,240 L1024.21436,240 L1023.25049,225.295898 L1021.54834,225.295898 L1011.36621,240 L1012.98633,240 Z M1022.34814,234.647461 L1016.61621,234.647461 L1021.86621,226.977539 L1022.34814,234.647461 Z M1028.10059,240 L1030.32568,232.750488 L1034.50928,232.750488 C1035.34326,232.750488 1036.09521,232.64624 1036.76514,232.437744 C1037.43506,232.229248 1037.98022,231.960938 1038.40063,231.632812 C1038.82104,231.304688 1039.1731,230.923584 1039.45679,230.489502 C1039.74048,230.05542 1039.93872,229.628174 1040.05151,229.207764 C1040.16431,228.787354 1040.2207,228.365234 1040.2207,227.941406 C1040.2207,227.175781 1039.94214,226.543457 1039.38501,226.044434 C1038.82788,225.54541 1037.96484,225.295898 1036.7959,225.295898 L1036.7959,225.295898 L1031.02295,225.295898 L1026.52148,240 L1028.10059,240 Z M1034.73486,231.499512 L1030.70508,231.499512 L1032.19189,226.557129 L1036.45752,226.557129 C1037.23682,226.557129 1037.80933,226.700684 1038.17505,226.987793 C1038.54077,227.274902 1038.72363,227.671387 1038.72363,228.177246 C1038.72363,229.147949 1038.38354,229.944336 1037.70337,230.566406 C1037.02319,231.188477 1036.03369,231.499512 1034.73486,231.499512 L1034.73486,231.499512 Z" id="БАР" fill="#FFFFFF" fill-rule="nonzero"></path>
        </g>
    </g>
</svg>