<?xml version="1.0" encoding="UTF-8"?>
<svg width="1327px" height="720px" viewBox="0 0 1327 720" version="1.1" xmlns="http://www.w3.org/2000/svg" xmlns:xlink="http://www.w3.org/1999/xlink">
    <title>WRS Copy</title>
    <g id="WRS-Copy" stroke="none" stroke-width="1" fill="none" fill-rule="evenodd">
        <rect fill="#000000" x="0" y="0" width="1327" height="720"></rect>
        <rect id="Rectangle" stroke="#FFFFFF" fill="#000000" x="813.5" y="33.5" width="78" height="42"></rect>
        <rect id="Rectangle-Copy-2" stroke="#FFFFFF" fill="#000000" x="813.5" y="81.5" width="78" height="42"></rect>
        <rect id="Rectangle-Copy-24" stroke="#FFFFFF" fill="#000000" x="534.5" y="81.5" width="78" height="42"></rect>
        <rect id="Rectangle" stroke="#FFFFFF" fill="#000000" x="228.5" y="447.5" width="23" height="12"></rect>
        <rect id="Rectangle-Copy-61" stroke="#FFFFFF" fill="#000000" x="260.5" y="447.5" width="23" height="12"></rect>
        <rect id="Rectangle-Copy-40" stroke="#FFFFFF" fill="#000000" x="228.5" y="429.5" width="23" height="12"></rect>
        <rect id="Rectangle-Copy-62" stroke="#FFFFFF" fill="#000000" x="260.5" y="429.5" width="23" height="12"></rect>
        <rect id="Rectangle-Copy-41" stroke="#FFFFFF" fill="#000000" x="228.5" y="411.5" width="23" height="12"></rect>
        <rect id="Rectangle-Copy-63" stroke="#FFFFFF" fill="#000000" x="260.5" y="411.5" width="23" height="12"></rect>
        <rect id="Rectangle-Copy-47" stroke="#FFFFFF" fill="#000000" x="228.5" y="393.5" width="23" height="12"></rect>
        <rect id="Rectangle-Copy-64" stroke="#FFFFFF" fill="#000000" x="260.5" y="393.5" width="23" height="12"></rect>
        <rect id="Rectangle-Copy-48" stroke="#FFFFFF" fill="#000000" x="228.5" y="375.5" width="23" height="12"></rect>
        <rect id="Rectangle-Copy-65" stroke="#FFFFFF" fill="#000000" x="260.5" y="375.5" width="23" height="12"></rect>
        <rect id="Rectangle-Copy-49" stroke="#FFFFFF" fill="#000000" x="228.5" y="357.5" width="23" height="12"></rect>
        <rect id="Rectangle-Copy-66" stroke="#FFFFFF" fill="#000000" x="260.5" y="357.5" width="23" height="12"></rect>
        <rect id="Rectangle-Copy-50" stroke="#FFFFFF" fill="#000000" x="228.5" y="339.5" width="23" height="12"></rect>
        <rect id="Rectangle-Copy-67" stroke="#FFFFFF" fill="#000000" x="260.5" y="339.5" width="23" height="12"></rect>
        <rect id="Rectangle-Copy-51" stroke="#FFFFFF" fill="#000000" x="228.5" y="321.5" width="23" height="12"></rect>
        <rect id="Rectangle-Copy-68" stroke="#FFFFFF" fill="#000000" x="260.5" y="321.5" width="23" height="12"></rect>
        <rect id="Rectangle-Copy-52" stroke="#FFFFFF" fill="#000000" x="228.5" y="303.5" width="23" height="12"></rect>
        <rect id="Rectangle-Copy-69" stroke="#FFFFFF" fill="#000000" x="260.5" y="303.5" width="23" height="12"></rect>
        <rect id="Rectangle-Copy-53" stroke="#FFFFFF" fill="#000000" x="228.5" y="285.5" width="23" height="12"></rect>
        <rect id="Rectangle-Copy-70" stroke="#FFFFFF" fill="#000000" x="260.5" y="285.5" width="23" height="12"></rect>
        <rect id="Rectangle-Copy-54" stroke="#FFFFFF" fill="#000000" x="228.5" y="267.5" width="23" height="12"></rect>
        <rect id="Rectangle-Copy-71" stroke="#FFFFFF" fill="#000000" x="260.5" y="267.5" width="23" height="12"></rect>
        <rect id="Rectangle-Copy-55" stroke="#FFFFFF" fill="#000000" x="228.5" y="249.5" width="23" height="12"></rect>
        <rect id="Rectangle-Copy-72" stroke="#FFFFFF" fill="#000000" x="260.5" y="249.5" width="23" height="12"></rect>
        <rect id="Rectangle-Copy-56" stroke="#FFFFFF" fill="#000000" x="228.5" y="231.5" width="23" height="12"></rect>
        <rect id="Rectangle-Copy-73" stroke="#FFFFFF" fill="#000000" x="260.5" y="231.5" width="23" height="12"></rect>
        <rect id="Rectangle-Copy-57" stroke="#FFFFFF" fill="#000000" x="228.5" y="213.5" width="23" height="12"></rect>
        <rect id="Rectangle-Copy-74" stroke="#FFFFFF" fill="#000000" x="260.5" y="213.5" width="23" height="12"></rect>
        <rect id="Rectangle-Copy-58" stroke="#FFFFFF" fill="#000000" x="228.5" y="195.5" width="23" height="12"></rect>
        <rect id="Rectangle-Copy-75" stroke="#FFFFFF" fill="#000000" x="260.5" y="195.5" width="23" height="12"></rect>
        <rect id="Rectangle-Copy-59" stroke="#FFFFFF" fill="#000000" x="228.5" y="177.5" width="23" height="12"></rect>
        <rect id="Rectangle-Copy-76" stroke="#FFFFFF" fill="#000000" x="260.5" y="177.5" width="23" height="12"></rect>
        <rect id="Rectangle-Copy-92" stroke="#FFFFFF" fill="#000000" x="292.5" y="447.5" width="23" height="12"></rect>
        <rect id="Rectangle-Copy-91" stroke="#FFFFFF" fill="#000000" x="292.5" y="429.5" width="23" height="12"></rect>
        <rect id="Rectangle-Copy-90" stroke="#FFFFFF" fill="#000000" x="292.5" y="411.5" width="23" height="12"></rect>
        <rect id="Rectangle-Copy-89" stroke="#FFFFFF" fill="#000000" x="292.5" y="393.5" width="23" height="12"></rect>
        <rect id="Rectangle-Copy-88" stroke="#FFFFFF" fill="#000000" x="292.5" y="375.5" width="23" height="12"></rect>
        <rect id="Rectangle-Copy-87" stroke="#FFFFFF" fill="#000000" x="292.5" y="357.5" width="23" height="12"></rect>
        <rect id="Rectangle-Copy-86" stroke="#FFFFFF" fill="#000000" x="292.5" y="339.5" width="23" height="12"></rect>
        <rect id="Rectangle-Copy-85" stroke="#FFFFFF" fill="#000000" x="292.5" y="321.5" width="23" height="12"></rect>
        <rect id="Rectangle-Copy-84" stroke="#FFFFFF" fill="#000000" x="292.5" y="303.5" width="23" height="12"></rect>
        <rect id="Rectangle-Copy-83" stroke="#FFFFFF" fill="#000000" x="292.5" y="285.5" width="23" height="12"></rect>
        <rect id="Rectangle-Copy-82" stroke="#FFFFFF" fill="#000000" x="292.5" y="267.5" width="23" height="12"></rect>
        <rect id="Rectangle-Copy-81" stroke="#FFFFFF" fill="#000000" x="292.5" y="249.5" width="23" height="12"></rect>
        <rect id="Rectangle-Copy-80" stroke="#FFFFFF" fill="#000000" x="292.5" y="231.5" width="23" height="12"></rect>
        <rect id="Rectangle-Copy-79" stroke="#FFFFFF" fill="#000000" x="292.5" y="213.5" width="23" height="12"></rect>
        <rect id="Rectangle-Copy-78" stroke="#FFFFFF" fill="#000000" x="292.5" y="195.5" width="23" height="12"></rect>
        <rect id="Rectangle-Copy-77" stroke="#FFFFFF" fill="#000000" x="292.5" y="177.5" width="23" height="12"></rect>
        <rect id="Rectangle-Copy-99" stroke="#FFFFFF" fill="#000000" x="1205.5" y="249.5" width="23" height="12"></rect>
        <rect id="Rectangle-Copy-125" stroke="#FFFFFF" fill="#000000" x="350.5" y="673.5" width="23" height="12"></rect>
        <rect id="Rectangle-Copy-100" stroke="#FFFFFF" fill="#000000" x="1237.5" y="249.5" width="23" height="12"></rect>
        <rect id="Rectangle-Copy-126" stroke="#FFFFFF" fill="#000000" x="382.5" y="673.5" width="23" height="12"></rect>
        <rect id="Rectangle-Copy-101" stroke="#FFFFFF" fill="#000000" x="1205.5" y="231.5" width="23" height="12"></rect>
        <rect id="Rectangle-Copy-127" stroke="#FFFFFF" fill="#000000" x="350.5" y="655.5" width="23" height="12"></rect>
        <rect id="Rectangle-Copy-102" stroke="#FFFFFF" fill="#000000" x="1237.5" y="231.5" width="23" height="12"></rect>
        <rect id="Rectangle-Copy-141" stroke="#FFFFFF" fill="#000000" x="382.5" y="655.5" width="23" height="12"></rect>
        <rect id="Rectangle-Copy-103" stroke="#FFFFFF" fill="#000000" x="1205.5" y="213.5" width="23" height="12"></rect>
        <rect id="Rectangle-Copy-142" stroke="#FFFFFF" fill="#000000" x="350.5" y="637.5" width="23" height="12"></rect>
        <rect id="Rectangle-Copy-104" stroke="#FFFFFF" fill="#000000" x="1237.5" y="213.5" width="23" height="12"></rect>
        <rect id="Rectangle-Copy-143" stroke="#FFFFFF" fill="#000000" x="382.5" y="637.5" width="23" height="12"></rect>
        <rect id="Rectangle-Copy-105" stroke="#FFFFFF" fill="#000000" x="1205.5" y="195.5" width="23" height="12"></rect>
        <rect id="Rectangle-Copy-144" stroke="#FFFFFF" fill="#000000" x="350.5" y="619.5" width="23" height="12"></rect>
        <rect id="Rectangle-Copy-106" stroke="#FFFFFF" fill="#000000" x="1237.5" y="195.5" width="23" height="12"></rect>
        <rect id="Rectangle-Copy-145" stroke="#FFFFFF" fill="#000000" x="382.5" y="619.5" width="23" height="12"></rect>
        <rect id="Rectangle-Copy-107" stroke="#FFFFFF" fill="#000000" x="1205.5" y="177.5" width="23" height="12"></rect>
        <rect id="Rectangle-Copy-146" stroke="#FFFFFF" fill="#000000" x="350.5" y="601.5" width="23" height="12"></rect>
        <rect id="Rectangle-Copy-108" stroke="#FFFFFF" fill="#000000" x="1237.5" y="177.5" width="23" height="12"></rect>
        <rect id="Rectangle-Copy-147" stroke="#FFFFFF" fill="#000000" x="382.5" y="601.5" width="23" height="12"></rect>
        <rect id="Rectangle-Copy-109" stroke="#FFFFFF" fill="#000000" x="1205.5" y="159.5" width="23" height="12"></rect>
        <rect id="Rectangle-Copy-148" stroke="#FFFFFF" fill="#000000" x="350.5" y="583.5" width="23" height="12"></rect>
        <rect id="Rectangle-Copy-110" stroke="#FFFFFF" fill="#000000" x="1237.5" y="159.5" width="23" height="12"></rect>
        <rect id="Rectangle-Copy-149" stroke="#FFFFFF" fill="#000000" x="382.5" y="583.5" width="23" height="12"></rect>
        <rect id="Rectangle-Copy-111" stroke="#FFFFFF" fill="#000000" x="1205.5" y="141.5" width="23" height="12"></rect>
        <rect id="Rectangle-Copy-150" stroke="#FFFFFF" fill="#000000" x="350.5" y="565.5" width="23" height="12"></rect>
        <rect id="Rectangle-Copy-112" stroke="#FFFFFF" fill="#000000" x="1237.5" y="141.5" width="23" height="12"></rect>
        <rect id="Rectangle-Copy-151" stroke="#FFFFFF" fill="#000000" x="382.5" y="565.5" width="23" height="12"></rect>
        <rect id="Rectangle-Copy-113" stroke="#FFFFFF" fill="#000000" x="1205.5" y="123.5" width="23" height="12"></rect>
        <rect id="Rectangle-Copy-114" stroke="#FFFFFF" fill="#000000" x="1237.5" y="123.5" width="23" height="12"></rect>
        <rect id="Rectangle-Copy-115" stroke="#FFFFFF" fill="#000000" x="1205.5" y="105.5" width="23" height="12"></rect>
        <rect id="Rectangle-Copy-116" stroke="#FFFFFF" fill="#000000" x="1237.5" y="105.5" width="23" height="12"></rect>
        <rect id="Rectangle-Copy-117" stroke="#FFFFFF" fill="#000000" x="1205.5" y="87.5" width="23" height="12"></rect>
        <rect id="Rectangle-Copy-118" stroke="#FFFFFF" fill="#000000" x="1237.5" y="87.5" width="23" height="12"></rect>
        <rect id="Rectangle-Copy-119" stroke="#FFFFFF" fill="#000000" x="1205.5" y="69.5" width="23" height="12"></rect>
        <rect id="Rectangle-Copy-120" stroke="#FFFFFF" fill="#000000" x="1237.5" y="69.5" width="23" height="12"></rect>
        <rect id="Rectangle-Copy-121" stroke="#FFFFFF" fill="#000000" x="1205.5" y="51.5" width="23" height="12"></rect>
        <rect id="Rectangle-Copy-122" stroke="#FFFFFF" fill="#000000" x="1237.5" y="51.5" width="23" height="12"></rect>
        <rect id="Rectangle-Copy-123" stroke="#FFFFFF" fill="#000000" x="1205.5" y="33.5" width="23" height="12"></rect>
        <rect id="Rectangle-Copy-124" stroke="#FFFFFF" fill="#000000" x="1237.5" y="33.5" width="23" height="12"></rect>
        <rect id="Rectangle-Copy-128" stroke="#FFFFFF" fill="#000000" x="1269.5" y="249.5" width="23" height="12"></rect>
        <rect id="Rectangle-Copy-164" stroke="#FFFFFF" fill="#000000" x="414.5" y="673.5" width="23" height="12"></rect>
        <rect id="Rectangle-Copy-171" stroke="#FFFFFF" fill="#000000" x="446.5" y="673.5" width="23" height="12"></rect>
        <rect id="Rectangle-Copy-129" stroke="#FFFFFF" fill="#000000" x="1269.5" y="231.5" width="23" height="12"></rect>
        <rect id="Rectangle-Copy-165" stroke="#FFFFFF" fill="#000000" x="414.5" y="655.5" width="23" height="12"></rect>
        <rect id="Rectangle-Copy-172" stroke="#FFFFFF" fill="#000000" x="446.5" y="655.5" width="23" height="12"></rect>
        <rect id="Rectangle-Copy-130" stroke="#FFFFFF" fill="#000000" x="1269.5" y="213.5" width="23" height="12"></rect>
        <rect id="Rectangle-Copy-166" stroke="#FFFFFF" fill="#000000" x="414.5" y="637.5" width="23" height="12"></rect>
        <rect id="Rectangle-Copy-173" stroke="#FFFFFF" fill="#000000" x="446.5" y="637.5" width="23" height="12"></rect>
        <rect id="Rectangle-Copy-131" stroke="#FFFFFF" fill="#000000" x="1269.5" y="195.5" width="23" height="12"></rect>
        <rect id="Rectangle-Copy-167" stroke="#FFFFFF" fill="#000000" x="414.5" y="619.5" width="23" height="12"></rect>
        <rect id="Rectangle-Copy-174" stroke="#FFFFFF" fill="#000000" x="446.5" y="619.5" width="23" height="12"></rect>
        <rect id="Rectangle-Copy-132" stroke="#FFFFFF" fill="#000000" x="1269.5" y="177.5" width="23" height="12"></rect>
        <rect id="Rectangle-Copy-168" stroke="#FFFFFF" fill="#000000" x="414.5" y="601.5" width="23" height="12"></rect>
        <rect id="Rectangle-Copy-175" stroke="#FFFFFF" fill="#000000" x="446.5" y="601.5" width="23" height="12"></rect>
        <rect id="Rectangle-Copy-133" stroke="#FFFFFF" fill="#000000" x="1269.5" y="159.5" width="23" height="12"></rect>
        <rect id="Rectangle-Copy-169" stroke="#FFFFFF" fill="#000000" x="414.5" y="583.5" width="23" height="12"></rect>
        <rect id="Rectangle-Copy-176" stroke="#FFFFFF" fill="#000000" x="446.5" y="583.5" width="23" height="12"></rect>
        <rect id="Rectangle-Copy-134" stroke="#FFFFFF" fill="#000000" x="1269.5" y="141.5" width="23" height="12"></rect>
        <rect id="Rectangle-Copy-170" stroke="#FFFFFF" fill="#000000" x="414.5" y="565.5" width="23" height="12"></rect>
        <rect id="Rectangle-Copy-177" stroke="#FFFFFF" fill="#000000" x="446.5" y="565.5" width="23" height="12"></rect>
        <rect id="Rectangle-Copy-135" stroke="#FFFFFF" fill="#000000" x="1269.5" y="123.5" width="23" height="12"></rect>
        <rect id="Rectangle-Copy-136" stroke="#FFFFFF" fill="#000000" x="1269.5" y="105.5" width="23" height="12"></rect>
        <rect id="Rectangle-Copy-137" stroke="#FFFFFF" fill="#000000" x="1269.5" y="87.5" width="23" height="12"></rect>
        <rect id="Rectangle-Copy-138" stroke="#FFFFFF" fill="#000000" x="1269.5" y="69.5" width="23" height="12"></rect>
        <rect id="Rectangle-Copy-139" stroke="#FFFFFF" fill="#000000" x="1269.5" y="51.5" width="23" height="12"></rect>
        <rect id="Rectangle-Copy-140" stroke="#FFFFFF" fill="#000000" x="1269.5" y="33.5" width="23" height="12"></rect>
        <rect id="Rectangle-Copy" stroke="#FFFFFF" fill="#000000" x="908.5" y="33.5" width="78" height="42"></rect>
        <rect id="Rectangle-Copy-25" stroke="#FFFFFF" fill="#000000" x="629.5" y="33.5" width="78" height="42"></rect>
        <rect id="Rectangle-Copy-39" stroke="#FFFFFF" fill="#000000" x="534.5" y="33.5" width="78" height="42"></rect>
        <rect id="Rectangle-Copy-16" stroke="#FFFFFF" fill="#000000" x="1092.5" y="33.5" width="78" height="42"></rect>
        <rect id="Rectangle-Copy-3" stroke="#FFFFFF" fill="#000000" x="908.5" y="81.5" width="78" height="42"></rect>
        <rect id="Rectangle-Copy-26" stroke="#FFFFFF" fill="#000000" x="629.5" y="81.5" width="78" height="42"></rect>
        <rect id="Rectangle-Copy-17" stroke="#FFFFFF" fill="#000000" x="1092.5" y="81.5" width="78" height="42"></rect>
        <rect id="Rectangle-Copy-5" stroke="#FFFFFF" fill="#000000" x="813.5" y="129.5" width="78" height="42"></rect>
        <rect id="Rectangle-Copy-27" stroke="#FFFFFF" fill="#000000" x="534.5" y="129.5" width="78" height="42"></rect>
        <rect id="Rectangle-Copy-4" stroke="#FFFFFF" fill="#000000" x="908.5" y="129.5" width="78" height="42"></rect>
        <rect id="Rectangle-Copy-28" stroke="#FFFFFF" fill="#000000" x="629.5" y="129.5" width="78" height="42"></rect>
        <rect id="Rectangle-Copy-18" stroke="#FFFFFF" fill="#000000" x="1092.5" y="129.5" width="78" height="42"></rect>
        <rect id="Rectangle-Copy-7" stroke="#FFFFFF" fill="#000000" x="813.5" y="177.5" width="78" height="42"></rect>
        <rect id="Rectangle-Copy-29" stroke="#FFFFFF" fill="#000000" x="534.5" y="177.5" width="78" height="42"></rect>
        <rect id="Rectangle-Copy-6" stroke="#FFFFFF" fill="#000000" x="908.5" y="177.5" width="78" height="42"></rect>
        <rect id="Rectangle-Copy-30" stroke="#FFFFFF" fill="#000000" x="629.5" y="177.5" width="78" height="42"></rect>
        <rect id="Rectangle-Copy-19" stroke="#FFFFFF" fill="#000000" x="1092.5" y="177.5" width="78" height="42"></rect>
        <rect id="Rectangle-Copy-42" stroke="#FFFFFF" fill="#000000" x="350.5" y="177.5" width="78" height="42"></rect>
        <rect id="Rectangle-Copy-9" stroke="#FFFFFF" fill="#000000" x="813.5" y="225.5" width="78" height="42"></rect>
        <rect id="Rectangle-Copy-31" stroke="#FFFFFF" fill="#000000" x="534.5" y="225.5" width="78" height="42"></rect>
        <rect id="Rectangle-Copy-8" stroke="#FFFFFF" fill="#000000" x="908.5" y="225.5" width="78" height="42"></rect>
        <rect id="Rectangle-Copy-32" stroke="#FFFFFF" fill="#000000" x="629.5" y="225.5" width="78" height="42"></rect>
        <rect id="Rectangle-Copy-20" stroke="#FFFFFF" fill="#000000" x="1092.5" y="225.5" width="78" height="42"></rect>
        <rect id="Rectangle-Copy-43" stroke="#FFFFFF" fill="#000000" x="350.5" y="225.5" width="78" height="42"></rect>
        <rect id="Rectangle-Copy-11" stroke="#FFFFFF" fill="#000000" x="813.5" y="273.5" width="78" height="42"></rect>
        <rect id="Rectangle-Copy-33" stroke="#FFFFFF" fill="#000000" x="534.5" y="273.5" width="78" height="42"></rect>
        <rect id="Rectangle-Copy-10" stroke="#FFFFFF" fill="#000000" x="908.5" y="273.5" width="78" height="42"></rect>
        <rect id="Rectangle-Copy-34" stroke="#FFFFFF" fill="#000000" x="629.5" y="273.5" width="78" height="42"></rect>
        <rect id="Rectangle-Copy-21" stroke="#FFFFFF" fill="#000000" x="1092.5" y="273.5" width="78" height="42"></rect>
        <rect id="Rectangle-Copy-44" stroke="#FFFFFF" fill="#000000" x="350.5" y="273.5" width="78" height="42"></rect>
        <rect id="Rectangle-Copy-13" stroke="#FFFFFF" fill="#000000" x="813.5" y="321.5" width="78" height="42"></rect>
        <rect id="Rectangle-Copy-35" stroke="#FFFFFF" fill="#000000" x="534.5" y="321.5" width="78" height="42"></rect>
        <rect id="Rectangle-Copy-12" stroke="#FFFFFF" fill="#000000" x="908.5" y="321.5" width="78" height="42"></rect>
        <rect id="Rectangle-Copy-36" stroke="#FFFFFF" fill="#000000" x="629.5" y="321.5" width="78" height="42"></rect>
        <rect id="Rectangle-Copy-22" stroke="#FFFFFF" fill="#000000" x="1092.5" y="321.5" width="78" height="42"></rect>
        <rect id="Rectangle-Copy-45" stroke="#FFFFFF" fill="#000000" x="350.5" y="321.5" width="78" height="42"></rect>
        <rect id="Rectangle-Copy-15" stroke="#FFFFFF" fill="#000000" x="813.5" y="369.5" width="78" height="42"></rect>
        <rect id="Rectangle-Copy-37" stroke="#FFFFFF" fill="#000000" x="534.5" y="369.5" width="78" height="42"></rect>
        <rect id="Rectangle-Copy-14" stroke="#FFFFFF" fill="#000000" x="908.5" y="369.5" width="78" height="42"></rect>
        <rect id="Rectangle-Copy-38" stroke="#FFFFFF" fill="#000000" x="629.5" y="369.5" width="78" height="42"></rect>
        <rect id="Rectangle-Copy-23" stroke="#FFFFFF" fill="#000000" x="1092.5" y="369.5" width="78" height="42"></rect>
        <rect id="Rectangle-Copy-46" stroke="#FFFFFF" fill="#000000" x="350.5" y="369.5" width="78" height="42"></rect>
        <rect id="Rectangle-Copy-60" stroke="#FFFFFF" fill="#000000" x="350.5" y="417.5" width="78" height="42"></rect>
        <rect id="Rectangle" stroke="#FFFFFF" fill="#000000" x="34.5" y="177.5" width="31" height="282"></rect>
        <text id="Балкон" font-family="FavoritPro-Light, Favorit Pro" font-size="21" font-weight="300" line-spacing="20" fill="#FFFFFF">
            <tspan x="366" y="551">БАЛКОН</tspan>
        </text>
        <text id="Шезлонги" font-family="FavoritPro-Light, Favorit Pro" font-size="21" font-weight="300" line-spacing="20" fill="#FFFFFF">
            <tspan x="211" y="492">ШЕЗЛОНГИ</tspan>
        </text>
        <text id="Экран" transform="translate(50.500000, 320.000000) rotate(-90.000000) translate(-50.500000, -320.000000) " font-family="FavoritPro-Light, Favorit Pro" font-size="21" font-weight="300" line-spacing="20" fill="#FFFFFF">
            <tspan x="15" y="329">ЭКРАН</tspan>
        </text>
        <text id="Веранда" font-family="FavoritPro-Light, Favorit Pro" font-size="21" font-weight="300" line-spacing="20" fill="#FFFFFF">
            <tspan x="1199" y="289">ВЕРАНДА</tspan>
        </text>
        <text id="Парковка" transform="translate(759.500000, 225.000000) rotate(-90.000000) translate(-759.500000, -225.000000) " font-family="FavoritPro-Light, Favorit Pro" font-size="50" font-weight="300" line-spacing="48" fill="#FFFFFF">
            <tspan x="624" y="247">ПАРКОВКА</tspan>
        </text>
    </g>
</svg>