<?xml version="1.0" encoding="UTF-8"?>
<svg width="439px" height="627px" viewBox="0 0 439 627" version="1.1" xmlns="http://www.w3.org/2000/svg" xmlns:xlink="http://www.w3.org/1999/xlink">
    <title>Group 3</title>
    <g id="Final-concept" stroke="none" stroke-width="1" fill="none" fill-rule="evenodd">
        <g id="Programm-Copy-3" transform="translate(-463.000000, -96.000000)">
            <g id="Group-3" transform="translate(463.000000, 96.000000)">
                <rect id="Rectangle" fill="#8B8B8B" x="0" y="0" width="439" height="627"></rect>
                <g id="download" transform="translate(73.000000, 190.000000)" fill="#F1EB53" fill-rule="nonzero">
                    <path d="M162.34,197.576 L184.928,33.0277 L208.602,25.8324 L232.035,176.344 L209.085,183.304 L206.79,161.718 L188.31,167.38 L185.894,190.381 L162.34,197.576 Z M204.616,139.66 L197.248,89.1748 L190.122,144.142 L204.616,139.66 Z" id="Shape"></path>
                    <path d="M38.6524,77.3792 C49.4026,74.0764 69.3328,80.446 69.3328,101.796 C69.3328,117.366 60.032,127.393 60.032,127.393 C60.032,127.393 69.3328,131.875 69.3328,147.917 C69.3328,161.482 60.032,172.098 60.032,172.098 C60.032,172.098 69.3328,177.642 69.3328,191.915 C69.3328,222.819 38.6524,235.204 38.6524,235.204 L0,247 L0,89.1748 C0,89.1748 27.9022,80.6819 38.6524,77.3792 Z M23.0707,104.981 L23.0707,126.921 L36.7198,122.792 C36.7198,122.792 45.4166,118.9 45.4166,109.581 C45.4166,100.263 36.4782,100.97 36.4782,100.97 L23.0707,104.981 Z M23.0707,149.568 L23.0707,171.508 L36.7198,167.38 C36.7198,167.38 45.4166,163.487 45.4166,154.169 C45.4166,144.85 36.4782,145.558 36.4782,145.558 L23.0707,149.568 Z M23.0707,194.863 L23.0707,216.803 L36.7198,212.675 C36.7198,212.675 45.4166,208.782 45.4166,199.464 C45.4166,190.145 36.4782,190.853 36.4782,190.853 L23.0707,194.863 Z" id="Shape"></path>
                    <polygon id="Path" points="84.673 63.3424 84.673 221.168 153.402 200.171 153.402 177.17 107.502 191.089 107.502 169.031 153.402 155.112 153.402 132.347 107.502 146.148 107.502 124.208 153.402 110.289 153.402 87.4054 107.502 101.324 107.502 79.3844 153.402 65.4656 153.402 42.5821"></polygon>
                    <polygon id="Path" points="248.463 171.862 248.463 36.8023 225.03 43.8797 225.03 20.8782 294 0 294 23.0014 271.171 29.9608 271.171 164.549"></polygon>
                </g>
            </g>
        </g>
    </g>
</svg>